<?xml version="1.0" encoding="UTF-8" standalone="no"?>
<svg
   xmlns:dc="http://purl.org/dc/elements/1.1/"
   xmlns:cc="http://creativecommons.org/ns#"
   xmlns:rdf="http://www.w3.org/1999/02/22-rdf-syntax-ns#"
   xmlns:svg="http://www.w3.org/2000/svg"
   xmlns="http://www.w3.org/2000/svg"
   xmlns:sodipodi="http://sodipodi.sourceforge.net/DTD/sodipodi-0.dtd"
   xmlns:inkscape="http://www.inkscape.org/namespaces/inkscape"
   version="1.1"
   viewBox="0 0 435.56168 304.40683"
   stroke-miterlimit="10"
   id="svg2"
   inkscape:version="0.91 r13725"
   sodipodi:docname="linear-regression-net.svg"
   width="435.56168"
   height="304.40683"
   style="fill:none;stroke:none;stroke-linecap:square;stroke-miterlimit:10">
  <metadata
     id="metadata137">
    <rdf:RDF>
      <cc:Work
         rdf:about="">
        <dc:format>image/svg+xml</dc:format>
        <dc:type
           rdf:resource="http://purl.org/dc/dcmitype/StillImage" />
        <dc:title></dc:title>
      </cc:Work>
    </rdf:RDF>
  </metadata>
  <defs
     id="defs135" />
  <sodipodi:namedview
     pagecolor="#ffffff"
     bordercolor="#666666"
     borderopacity="1"
     objecttolerance="10"
     gridtolerance="10"
     guidetolerance="10"
     inkscape:pageopacity="1"
     inkscape:pageshadow="2"
     inkscape:window-width="2560"
     inkscape:window-height="1417"
     id="namedview133"
     showgrid="false"
     fit-margin-top="0"
     fit-margin-left="0"
     fit-margin-right="0"
     fit-margin-bottom="0"
     inkscape:zoom="1.7147339"
     inkscape:cx="252.39115"
     inkscape:cy="87.32355"
     inkscape:window-x="-8"
     inkscape:window-y="-8"
     inkscape:window-maximized="1"
     inkscape:current-layer="svg2" />
  <clipPath
     id="p.0">
    <path
       d="M 0,0 960,0 960,720 0,720 0,0 Z"
       id="path5"
       inkscape:connector-curvature="0"
       style="clip-rule:nonzero" />
  </clipPath>
  <g
     clip-path="url(#p.0)"
     id="g7"
     transform="translate(-33.391075,-57.637797)">
    <path
       d="m 116.84908,88.61024 0,0 c 0,-16.829468 13.64298,-30.472443 30.47243,-30.472443 l 0,0 c 8.08181,0 15.83259,3.21048 21.54728,8.925171 5.71469,5.714691 8.92517,13.465477 8.92517,21.547272 l 0,0 c 0,16.82946 -13.64298,30.47244 -30.47245,30.47244 l 0,0 c -16.82945,0 -30.47243,-13.64298 -30.47243,-30.47244 z"
       id="path11"
       inkscape:connector-curvature="0"
       style="fill:#000000;fill-opacity:0;fill-rule:evenodd" />
    <path
       d="m 116.84908,88.61024 0,0 c 0,-16.829468 13.64298,-30.472443 30.47243,-30.472443 l 0,0 c 8.08181,0 15.83259,3.21048 21.54728,8.925171 5.71469,5.714691 8.92517,13.465477 8.92517,21.547272 l 0,0 c 0,16.82946 -13.64298,30.47244 -30.47245,30.47244 l 0,0 c -16.82945,0 -30.47243,-13.64298 -30.47243,-30.47244 z"
       id="path13"
       inkscape:connector-curvature="0"
       style="fill-rule:evenodd;stroke:#000000;stroke-width:1;stroke-linecap:butt;stroke-linejoin:round" />
    <path
       d="m 144.72777,85.52524 q -0.14063,-0.07813 -0.28125,-0.265625 -0.14063,-0.203125 -0.14063,-0.328125 0,-0.09375 0.0469,-0.140625 3.95312,-2.6875 4.04687,-2.6875 l 0.0469,0 q 0.1875,0 0.28125,0.4375 -0.23438,0.78125 -0.23438,2.203125 l 0,9.234375 q 0,1.359375 0.1875,2.09375 0.0469,0.15625 0.6875,0.3125 0.65625,0.15625 0.89063,0.15625 0.0937,0 0.0937,0.421875 0,0.21875 -0.0312,0.265625 -2.34375,-0.125 -2.82813,-0.125 -0.375,0 -2.71875,0.125 -0.0937,-0.109375 -0.0937,-0.390625 0,-0.296875 0.0937,-0.296875 0.29688,0 0.9375,-0.15625 0.65625,-0.15625 0.70313,-0.3125 0.14062,-0.5625 0.14062,-1.34375 l 0,-8.4375 q 0,-0.671875 -0.0469,-1.015625 -0.0469,-0.359375 -0.10938,-0.4375 -0.0625,-0.09375 -0.17187,-0.09375 -0.14063,0 -0.42188,0.140625 -0.26562,0.140625 -0.625,0.359375 -0.34375,0.203125 -0.45312,0.28125 z"
       id="path15"
       inkscape:connector-curvature="0"
       style="fill:#000000;fill-rule:nonzero" />
    <path
       d="m 33.891075,149.55511 0,0 c 0,-16.82947 13.642979,-30.47243 30.472443,-30.47243 l 0,0 c 8.081795,0 15.832581,3.21047 21.547272,8.92516 5.714691,5.71469 8.925171,13.46548 8.925171,21.54727 l 0,0 c 0,16.82947 -13.642983,30.47244 -30.472443,30.47244 l 0,0 c -16.829464,0 -30.472443,-13.64297 -30.472443,-30.47244 z"
       id="path17"
       inkscape:connector-curvature="0"
       style="fill:#000000;fill-opacity:0;fill-rule:evenodd" />
    <path
       d="m 33.891075,149.55511 0,0 c 0,-16.82947 13.642979,-30.47243 30.472443,-30.47243 l 0,0 c 8.081795,0 15.832581,3.21047 21.547272,8.92516 5.714691,5.71469 8.925171,13.46548 8.925171,21.54727 l 0,0 c 0,16.82947 -13.642983,30.47244 -30.472443,30.47244 l 0,0 c -16.829464,0 -30.472443,-13.64297 -30.472443,-30.47244 z"
       id="path19"
       inkscape:connector-curvature="0"
       style="fill-rule:evenodd;stroke:#000000;stroke-width:1;stroke-linecap:butt;stroke-linejoin:round" />
    <path
       d="m 58.105705,148.25137 q 0.04687,-0.23438 0.09375,-0.32813 2.265625,0.10938 2.34375,0.10938 0.04687,0 2.453125,-0.10938 0.03125,0.0937 0.03125,0.28125 0,0.39063 -0.07813,0.39063 -0.9375,0 -0.9375,0.40625 0,0.0937 0.125,0.28125 l 1.515625,2.35937 q 0.171875,-0.25 0.5,-0.73437 0.328125,-0.48438 0.515625,-0.76563 0.203125,-0.29687 0.359375,-0.625 0.171875,-0.32812 0.171875,-0.5 0,-0.20312 -0.265625,-0.28125 -0.265625,-0.0937 -0.609375,-0.0937 -0.34375,-0.0156 -0.390625,-0.0469 -0.0625,-0.0156 -0.0625,-0.375 0,-0.20313 0.0625,-0.29688 2.390625,0.10938 2.453125,0.10938 0.07813,0 2.140625,-0.10938 0.04687,0.23438 0.04687,0.32813 0,0.34375 -0.0625,0.34375 -1.546875,0.1875 -2.046875,0.79687 l -2.25,2.9375 q -0.04687,0.0625 -0.04687,0.15625 0,0.125 0.07813,0.26563 l 2.5,3.70312 q 0.640625,0.9375 1.96875,1.03125 0.07813,0 0.07813,0.32813 0,0.23437 -0.09375,0.35937 -2.1875,-0.125 -2.203125,-0.125 -0.07813,0 -2.609375,0.125 -0.04687,-0.25 -0.04687,-0.3125 0,-0.375 0.07813,-0.375 0.984375,-0.0781 0.984375,-0.42187 0,-0.0469 -0.04687,-0.14063 l -1.78125,-2.8125 -1.625,2.40625 q -0.15625,0.26563 -0.15625,0.45313 0,0.42187 1.171875,0.51562 0.0625,0 0.109375,0 0.07813,0 0.07813,0.34375 0,0.23438 -0.09375,0.34375 -2.28125,-0.125 -2.34375,-0.125 -0.04687,0 -2.28125,0.125 -0.04687,-0.20312 -0.04687,-0.34375 0,-0.34375 0.09375,-0.34375 1.578125,-0.23437 2.109375,-0.98437 l 2.4375,-3.26563 q 0,-0.0156 0.01563,-0.0625 0.01563,-0.0469 0.01563,-0.0781 0,-0.0469 -0.04687,-0.14063 l -2.421875,-3.53125 q -0.203125,-0.3125 -0.859375,-0.5625 -0.65625,-0.26562 -1.0625,-0.26562 l -0.0625,-0.34375 z"
       id="path21"
       inkscape:connector-curvature="0"
       style="fill:#000000;fill-rule:nonzero" />
    <path
       d="m 70.78539,159.34512 q -0.09375,-0.0469 -0.1875,-0.17188 -0.09375,-0.14062 -0.09375,-0.21875 0,-0.0625 0.03125,-0.0937 2.640625,-1.79687 2.703125,-1.79687 l 0.03125,0 q 0.125,0 0.1875,0.29687 -0.15625,0.51563 -0.15625,1.46875 l 0,6.15625 q 0,0.90625 0.125,1.39063 0.03125,0.10937 0.453125,0.21875 0.4375,0.0937 0.59375,0.0937 0.0625,0 0.0625,0.28125 0,0.14062 -0.01563,0.17187 -1.5625,-0.0781 -1.890625,-0.0781 -0.25,0 -1.8125,0.0781 -0.0625,-0.0625 -0.0625,-0.25 0,-0.20312 0.0625,-0.20312 0.203125,0 0.625,-0.0937 0.4375,-0.10938 0.46875,-0.21875 0.09375,-0.375 0.09375,-0.89063 l 0,-5.625 q 0,-0.45312 -0.03125,-0.6875 -0.03125,-0.23437 -0.07813,-0.28125 -0.03125,-0.0625 -0.109375,-0.0625 -0.09375,0 -0.28125,0.0937 -0.171875,0.0937 -0.40625,0.23438 -0.234375,0.14062 -0.3125,0.1875 z"
       id="path23"
       inkscape:connector-curvature="0"
       style="fill:#000000;fill-rule:nonzero" />
    <path
       d="m 33.891075,222.61942 0,0 c 0,-16.82945 13.642979,-30.47243 30.472443,-30.47243 l 0,0 c 8.081795,0 15.832581,3.21048 21.547272,8.92517 5.714691,5.71469 8.925171,13.46547 8.925171,21.54726 l 0,0 c 0,16.82947 -13.642983,30.47244 -30.472443,30.47244 l 0,0 c -16.829464,0 -30.472443,-13.64297 -30.472443,-30.47244 z"
       id="path25"
       inkscape:connector-curvature="0"
       style="fill:#000000;fill-opacity:0;fill-rule:evenodd" />
    <path
       d="m 33.891075,222.61942 0,0 c 0,-16.82945 13.642979,-30.47243 30.472443,-30.47243 l 0,0 c 8.081795,0 15.832581,3.21048 21.547272,8.92517 5.714691,5.71469 8.925171,13.46547 8.925171,21.54726 l 0,0 c 0,16.82947 -13.642983,30.47244 -30.472443,30.47244 l 0,0 c -16.829464,0 -30.472443,-13.64297 -30.472443,-30.47244 z"
       id="path27"
       inkscape:connector-curvature="0"
       style="fill-rule:evenodd;stroke:#000000;stroke-width:1;stroke-linecap:butt;stroke-linejoin:round" />
    <path
       d="m 57.508186,221.31567 q 0.04687,-0.23438 0.09375,-0.32813 2.265625,0.10938 2.34375,0.10938 0.04687,0 2.453125,-0.10938 0.03125,0.0937 0.03125,0.28125 0,0.39063 -0.07813,0.39063 -0.9375,0 -0.9375,0.40625 0,0.0937 0.125,0.28125 l 1.515625,2.35937 q 0.171875,-0.25 0.5,-0.73437 0.328125,-0.48438 0.515625,-0.76563 0.203125,-0.29687 0.359375,-0.625 0.171875,-0.32812 0.171875,-0.5 0,-0.20312 -0.265625,-0.28125 -0.265625,-0.0937 -0.609375,-0.0937 -0.34375,-0.0156 -0.390625,-0.0469 -0.0625,-0.0156 -0.0625,-0.375 0,-0.20313 0.0625,-0.29688 2.390625,0.10938 2.453125,0.10938 0.07813,0 2.140625,-0.10938 0.04687,0.23438 0.04687,0.32813 0,0.34375 -0.0625,0.34375 -1.546875,0.1875 -2.046875,0.79687 l -2.25,2.9375 q -0.04687,0.0625 -0.04687,0.15625 0,0.125 0.07813,0.26563 l 2.5,3.70312 q 0.640625,0.9375 1.96875,1.03125 0.07813,0 0.07813,0.32813 0,0.23437 -0.09375,0.35937 -2.1875,-0.125 -2.203125,-0.125 -0.07813,0 -2.609375,0.125 -0.04687,-0.25 -0.04687,-0.3125 0,-0.375 0.07813,-0.375 0.984375,-0.0781 0.984375,-0.42187 0,-0.0469 -0.04687,-0.14063 l -1.78125,-2.8125 -1.625,2.40625 q -0.15625,0.26563 -0.15625,0.45313 0,0.42187 1.171875,0.51562 0.0625,0 0.109375,0 0.07813,0 0.07813,0.34375 0,0.23438 -0.09375,0.34375 -2.28125,-0.125 -2.34375,-0.125 -0.04687,0 -2.28125,0.125 -0.04687,-0.20312 -0.04687,-0.34375 0,-0.34375 0.09375,-0.34375 1.578125,-0.23437 2.109375,-0.98437 l 2.4375,-3.26563 q 0,-0.0156 0.01563,-0.0625 0.01563,-0.0469 0.01563,-0.0781 0,-0.0469 -0.04687,-0.14063 l -2.421875,-3.53125 q -0.203125,-0.3125 -0.859375,-0.5625 -0.65625,-0.26562 -1.0625,-0.26562 l -0.0625,-0.34375 z"
       id="path29"
       inkscape:connector-curvature="0"
       style="fill:#000000;fill-rule:nonzero" />
    <path
       d="m 72.141,230.12817 q 1.046875,0 1.640625,0.78125 0.609375,0.78125 0.609375,1.76562 0,0.57813 -0.203125,1.20313 -0.1875,0.60937 -0.609375,1.25 -0.40625,0.64062 -0.75,1.125 -0.328125,0.46875 -0.921875,1.09375 -0.59375,0.625 -0.828125,0.85937 -0.21875,0.23438 -0.71875,0.71875 -0.04687,0.0781 0.03125,0.10938 l 3.015625,0 q 0.4375,0 0.625,-0.25 0.203125,-0.25 0.40625,-0.95313 0.0625,-0.17187 0.21875,-0.17187 0.203125,0 0.28125,0.0625 -0.375,1.875 -0.421875,2.1875 -0.03125,0.25 -0.3125,0.25 l -5.125,0 q -0.0625,0 -0.125,-0.17188 -0.04687,-0.1875 -0.04687,-0.29687 1.703125,-1.71875 2.921875,-3.5625 1.21875,-1.85938 1.21875,-3.14063 0,-0.84375 -0.421875,-1.29687 -0.421875,-0.46875 -1.109375,-0.46875 -1.296875,0 -2.078125,1.29687 -0.09375,0 -0.203125,-0.0937 -0.09375,-0.10937 -0.09375,-0.15625 0.04687,-0.1875 0.25,-0.5 0.21875,-0.32812 0.5625,-0.70312 0.359375,-0.39063 0.9375,-0.65625 0.59375,-0.28125 1.25,-0.28125 z"
       id="path31"
       inkscape:connector-curvature="0"
       style="fill:#000000;fill-rule:nonzero" />
    <path
       d="m 168.86879,110.15751 54.61418,112.47244"
       id="path33"
       inkscape:connector-curvature="0"
       style="fill:#000000;fill-opacity:0;fill-rule:evenodd" />
    <path
       d="m 168.86879,110.1575 51.99333,107.0751"
       id="path35"
       inkscape:connector-curvature="0"
       style="fill-rule:evenodd;stroke:#000000;stroke-width:1;stroke-linecap:butt;stroke-linejoin:round" />
    <path
       d="m 219.3763,217.95409 3.46809,3.36079 -0.49643,-4.80375 z"
       id="path37"
       inkscape:connector-curvature="0"
       style="fill:#000000;fill-rule:evenodd;stroke:#000000;stroke-width:1;stroke-linecap:butt" />
    <path
       d="m 33.891075,331.07217 0,0 c 0,-16.82947 13.642979,-30.47244 30.472443,-30.47244 l 0,0 c 8.081795,0 15.832581,3.21048 21.547272,8.92517 5.714691,5.71469 8.925171,13.46548 8.925171,21.54727 l 0,0 c 0,16.82947 -13.642983,30.47244 -30.472443,30.47244 l 0,0 c -16.829464,0 -30.472443,-13.64297 -30.472443,-30.47244 z"
       id="path39"
       inkscape:connector-curvature="0"
       style="fill:#000000;fill-opacity:0;fill-rule:evenodd" />
    <path
       d="m 33.891075,331.07217 0,0 c 0,-16.82947 13.642979,-30.47244 30.472443,-30.47244 l 0,0 c 8.081795,0 15.832581,3.21048 21.547272,8.92517 5.714691,5.71469 8.925171,13.46548 8.925171,21.54727 l 0,0 c 0,16.82947 -13.642983,30.47244 -30.472443,30.47244 l 0,0 c -16.829464,0 -30.472443,-13.64297 -30.472443,-30.47244 z"
       id="path41"
       inkscape:connector-curvature="0"
       style="fill-rule:evenodd;stroke:#000000;stroke-width:1;stroke-linecap:butt;stroke-linejoin:round" />
    <path
       d="m 58.004143,329.76843 q 0.04687,-0.23437 0.09375,-0.32812 2.265625,0.10937 2.34375,0.10937 0.04687,0 2.453125,-0.10937 0.03125,0.0937 0.03125,0.28125 0,0.39062 -0.07813,0.39062 -0.9375,0 -0.9375,0.40625 0,0.0937 0.125,0.28125 l 1.515625,2.35938 q 0.171875,-0.25 0.5,-0.73438 0.328125,-0.48437 0.515625,-0.76562 0.203125,-0.29688 0.359375,-0.625 0.171875,-0.32813 0.171875,-0.5 0,-0.20313 -0.265625,-0.28125 -0.265625,-0.0937 -0.609375,-0.0937 -0.34375,-0.0156 -0.390625,-0.0469 -0.0625,-0.0156 -0.0625,-0.375 0,-0.20312 0.0625,-0.29687 2.390625,0.10937 2.453125,0.10937 0.07813,0 2.140625,-0.10937 0.04687,0.23437 0.04687,0.32812 0,0.34375 -0.0625,0.34375 -1.546875,0.1875 -2.046875,0.79688 l -2.25,2.9375 q -0.04687,0.0625 -0.04687,0.15625 0,0.125 0.07813,0.26562 l 2.5,3.70313 q 0.640625,0.9375 1.96875,1.03125 0.07813,0 0.07813,0.32812 0,0.23438 -0.09375,0.35938 -2.1875,-0.125 -2.203125,-0.125 -0.07813,0 -2.609375,0.125 -0.04687,-0.25 -0.04687,-0.3125 0,-0.375 0.07813,-0.375 0.984375,-0.0781 0.984375,-0.42188 0,-0.0469 -0.04687,-0.14062 l -1.78125,-2.8125 -1.625,2.40625 q -0.15625,0.26562 -0.15625,0.45312 0,0.42188 1.171875,0.51563 0.0625,0 0.109375,0 0.07813,0 0.07813,0.34375 0,0.23437 -0.09375,0.34375 -2.28125,-0.125 -2.34375,-0.125 -0.04687,0 -2.28125,0.125 -0.04687,-0.20313 -0.04687,-0.34375 0,-0.34375 0.09375,-0.34375 1.578125,-0.23438 2.109375,-0.98438 l 2.4375,-3.26562 q 0,-0.0156 0.01563,-0.0625 0.01563,-0.0469 0.01563,-0.0781 0,-0.0469 -0.04687,-0.14062 l -2.421875,-3.53125 q -0.203125,-0.3125 -0.859375,-0.5625 -0.65625,-0.26563 -1.0625,-0.26563 l -0.0625,-0.34375 z"
       id="path43"
       inkscape:connector-curvature="0"
       style="fill:#000000;fill-rule:nonzero" />
    <path
       d="m 72.511955,342.39343 q -0.90625,0 -1.421875,0.8125 -0.515625,0.8125 -0.515625,1.89063 0,1.14062 0.609375,1.98437 0.609375,0.82813 1.6875,0.82813 0.53125,0 0.828125,-0.23438 0.296875,-0.25 0.296875,-0.65625 l 0,-3.71875 q 0,-0.32812 -0.359375,-0.60937 -0.34375,-0.29688 -1.125,-0.29688 z m 0.203125,-0.65625 q 0.671875,0 1.171875,0.26563 0.109375,0 0.109375,-0.28125 l 0,-1.6875 q 0,-0.53125 -0.09375,-1 -0.07813,-0.25 -0.796875,-0.25 l -0.140625,0 q -0.09375,0 -0.09375,-0.17188 0,-0.25 0.09375,-0.25 0.46875,-0.0469 0.859375,-0.125 0.40625,-0.0781 0.625,-0.15625 0.234375,-0.0781 0.390625,-0.14062 0.15625,-0.0781 0.234375,-0.125 l 0.0625,-0.0469 0.03125,0 q 0.0625,0 0.125,0.0937 0.0625,0.0781 0.07813,0.15625 -0.171875,0.5 -0.171875,1.35938 l 0,7.03125 q 0,0.75 0.09375,1.1875 0.03125,0.10937 0.171875,0.17187 0.140625,0.0625 0.28125,0.0781 0.15625,0.0156 0.296875,0.0156 l 0.140625,0.0156 q 0.04687,0.0156 0.04687,0.1875 0,0.23437 -0.09375,0.23437 -0.234375,0.0156 -0.53125,0.0625 -0.28125,0.0469 -0.546875,0.10938 -0.25,0.0469 -0.46875,0.10937 -0.21875,0.0469 -0.359375,0.0937 l -0.140625,0.0312 q -0.09375,0 -0.09375,-0.26562 l 0,-0.1875 q 0,-0.0937 -0.0625,-0.0625 -0.875,0.48437 -1.65625,0.48437 -1.296875,0 -2.171875,-0.92187 -0.875,-0.92188 -0.875,-2.20313 0,-1.51562 1.0625,-2.65625 1.078125,-1.15625 2.421875,-1.15625 z"
       id="path45"
       inkscape:connector-curvature="0"
       style="fill:#000000;fill-rule:nonzero" />
    <path
       d="m 223.49738,222.6181 0,0 c 0,-16.82945 13.64297,-30.47243 30.47244,-30.47243 l 0,0 c 8.08179,0 15.83258,3.21048 21.54727,8.92517 5.7147,5.71469 8.92518,13.46547 8.92518,21.54726 l 0,0 c 0,16.82947 -13.64298,30.47244 -30.47245,30.47244 l 0,0 c -16.82947,0 -30.47244,-13.64297 -30.47244,-30.47244 z"
       id="path47"
       inkscape:connector-curvature="0"
       style="fill:#000000;fill-opacity:0;fill-rule:evenodd" />
    <path
       d="m 223.49738,222.6181 0,0 c 0,-16.82945 13.64297,-30.47243 30.47244,-30.47243 l 0,0 c 8.08179,0 15.83258,3.21048 21.54727,8.92517 5.7147,5.71469 8.92518,13.46547 8.92518,21.54726 l 0,0 c 0,16.82947 -13.64298,30.47244 -30.47245,30.47244 l 0,0 c -16.82947,0 -30.47244,-13.64297 -30.47244,-30.47244 z"
       id="path49"
       inkscape:connector-curvature="0"
       style="fill-rule:evenodd;stroke:#000000;stroke-width:1;stroke-linecap:butt;stroke-linejoin:round" />
    <path
       d="m 251.91513,230.04874 q 0.39062,0 1.25,0 0.85937,-0.0156 1.23437,-0.0156 2.96875,0 3.78125,-0.42187 0.82813,-0.42188 1.375,-2.25 0.0156,-0.14063 0.32813,-0.14063 0.4375,0 0.57812,0.14063 -0.10937,0.29687 -0.35937,0.96875 -0.25,0.67187 -0.39063,1.07812 -0.14062,0.40625 -0.3125,0.95313 -0.15625,0.53125 -0.20312,0.89062 -1.32813,0 -4.57813,-0.0781 -3.25,-0.0625 -4.25,-0.0625 l -2.76562,0.125 q -0.0937,-0.10938 -0.0937,-0.4375 0,-0.375 0.0937,-0.375 0.39062,0 0.95312,-0.75 l 4.78125,-5.95313 q 0.0781,-0.10937 -0.0156,-0.23437 -1.17188,-1.79688 -4.5,-6.20313 -0.23438,-0.3125 -0.625,-0.5625 -0.39063,-0.26562 -0.59375,-0.26562 -0.0937,0 -0.0937,-0.32813 0,-0.29687 0.0937,-0.39062 1.14062,0.0469 2.71875,0.0469 1.04687,0 4.0625,-0.0937 3.03125,-0.0937 4.34375,-0.0937 0.0937,0.67188 0.34375,1.84375 0.26562,1.15625 0.3125,1.34375 -0.10938,0.10938 -0.39063,0.10938 -0.3125,0 -0.32812,-0.15625 -0.35938,-1.39063 -1.21875,-1.8125 -0.45313,-0.20313 -2.14063,-0.20313 l -1.07812,0 q -0.20313,0 -0.85938,-0.0156 -0.64062,-0.0156 -0.98437,-0.0156 -1.53125,0 -1.57813,0.23438 l 4.4375,5.84375 q 0.0937,0.28125 0.0937,0.45312 0,0.15625 -0.125,0.26563 -3.85937,4.29687 -4.64062,5.4375 -0.42188,0.64062 -0.42188,0.875 0,0.25 1.76563,0.25 z"
       id="path51"
       inkscape:connector-curvature="0"
       style="fill:#000000;fill-rule:nonzero" />
    <path
       d="m 407.50787,222.6181 0,0 c 0,-16.82945 13.64297,-30.47243 30.47244,-30.47243 l 0,0 c 8.08179,0 15.83258,3.21048 21.54728,8.92517 5.71469,5.71469 8.92517,13.46547 8.92517,21.54726 l 0,0 c 0,16.82947 -13.64298,30.47244 -30.47245,30.47244 l 0,0 c -16.82947,0 -30.47244,-13.64297 -30.47244,-30.47244 z"
       id="path53"
       inkscape:connector-curvature="0"
       style="fill:#000000;fill-opacity:0;fill-rule:evenodd" />
    <path
       d="m 407.50787,222.6181 0,0 c 0,-16.82945 13.64297,-30.47243 30.47244,-30.47243 l 0,0 c 8.08179,0 15.83258,3.21048 21.54728,8.92517 5.71469,5.71469 8.92517,13.46547 8.92517,21.54726 l 0,0 c 0,16.82947 -13.64298,30.47244 -30.47245,30.47244 l 0,0 c -16.82947,0 -30.47244,-13.64297 -30.47244,-30.47244 z"
       id="path55"
       inkscape:connector-curvature="0"
       style="fill-rule:evenodd;stroke:#000000;stroke-width:1;stroke-linecap:butt;stroke-linejoin:round" />
    <path
       d="m 432.66,207.11124 10.64063,0 0,33.16406 -10.64063,0 0,-33.16406 z"
       id="path57"
       inkscape:connector-curvature="0"
       style="fill:#fffff4;fill-rule:nonzero" />
    <path
       d="m 440.81625,220.62686 q -0.1875,0 -0.92187,-0.53125 -0.71875,-0.53125 -1.25,-1.01563 -0.51563,0.48438 -1.21875,1.01563 -0.70313,0.53125 -0.89063,0.53125 -0.21875,0 -0.21875,-0.54688 0.0781,-0.0937 0.51563,-0.59375 0.45312,-0.5 0.75,-0.875 0.51562,-0.64062 0.875,-1.25 0.14062,-0.23437 0.1875,-0.23437 0.10937,0 0.23437,0.23437 0.5625,0.92188 0.84375,1.29688 0.25,0.32812 0.5625,0.6875 0.32813,0.34375 0.51563,0.53125 0.1875,0.1875 0.1875,0.20312 0,0.54688 -0.17188,0.54688 z m -5.48437,0.46875 q 0.40625,0 0.73437,-0.0156 0.34375,-0.0312 0.78125,-0.0469 0.4375,-0.0312 0.76563,-0.0469 0.0469,0.14063 0.0469,0.34375 0,0.32813 -0.0937,0.32813 -0.1875,0 -0.625,0.17187 -0.4375,0.15625 -0.48437,0.32813 l 0,0.0469 q 0,0.42188 2.51562,6.10938 l 1.78125,-5.125 q 0.15625,-0.5 0.15625,-0.73438 0,-0.34375 -0.35937,-0.5625 -0.35938,-0.23437 -0.96875,-0.23437 -0.0937,0 -0.0937,-0.29688 0,-0.28125 0.0937,-0.375 0.29687,0.0156 0.90625,0.0625 0.60937,0.0469 1.17187,0.0469 0.51563,0 1.125,-0.0469 0.60938,-0.0469 0.92188,-0.0625 0.0469,0.14063 0.0469,0.34375 0,0.32813 -0.0937,0.32813 -0.3125,0 -0.84375,0.21875 -0.51562,0.20312 -0.6875,0.67187 l -4.1875,11.32813 q -0.54687,1.45312 -1.23437,2.03125 -0.67188,0.57812 -1.23438,0.57812 -0.48437,0 -0.71875,-0.3125 -0.23437,-0.29687 -0.23437,-0.60937 0,-0.51563 0.32812,-0.75 1.9375,0 2.57813,-2.01563 0.10937,-0.34375 0.26562,-0.84375 0.17188,-0.48437 0.26563,-0.79687 l -3.34375,-8.20313 q -0.26563,-0.5625 -0.46875,-0.79687 -0.21875,-0.21875 -0.65625,-0.35938 -0.42188,-0.14062 -0.6875,-0.14062 -0.0937,0 -0.0937,-0.29688 0,-0.28125 0.0937,-0.375 2.42187,0.10938 2.53125,0.10938 z"
       id="path59"
       inkscape:connector-curvature="0"
       style="fill:#000000;fill-rule:nonzero" />
    <path
       d="M 94.83596,331.07217 223.49736,222.63124"
       id="path61"
       inkscape:connector-curvature="0"
       style="fill:#000000;fill-opacity:0;fill-rule:evenodd" />
    <path
       d="M 94.83596,331.07217 218.90958,226.49801"
       id="path63"
       inkscape:connector-curvature="0"
       style="fill-rule:evenodd;stroke:#000000;stroke-width:1;stroke-linecap:butt;stroke-linejoin:round" />
    <path
       d="m 219.97404,227.76099 2.4055,-4.18761 -4.53445,1.66167 z"
       id="path65"
       inkscape:connector-curvature="0"
       style="fill:#000000;fill-rule:evenodd;stroke:#000000;stroke-width:1;stroke-linecap:butt" />
    <path
       d="m 94.83596,222.61942 128.6614,0"
       id="path67"
       inkscape:connector-curvature="0"
       style="fill:#000000;fill-opacity:0;fill-rule:evenodd" />
    <path
       d="m 94.83596,222.61942 122.66141,0"
       id="path69"
       inkscape:connector-curvature="0"
       style="fill-rule:evenodd;stroke:#000000;stroke-width:1;stroke-linecap:butt;stroke-linejoin:round" />
    <path
       d="m 217.49738,224.27115 4.5381,-1.65173 -4.5381,-1.65172 z"
       id="path71"
       inkscape:connector-curvature="0"
       style="fill:#000000;fill-rule:evenodd;stroke:#000000;stroke-width:1;stroke-linecap:butt" />
    <path
       d="m 94.83596,149.55511 128.6614,73.07088"
       id="path73"
       inkscape:connector-curvature="0"
       style="fill:#000000;fill-opacity:0;fill-rule:evenodd" />
    <path
       d="m 94.83596,149.55511 123.44411,70.1078"
       id="path75"
       inkscape:connector-curvature="0"
       style="fill-rule:evenodd;stroke:#000000;stroke-width:1;stroke-linecap:butt;stroke-linejoin:round" />
    <path
       d="m 217.46437,221.09918 4.76181,0.80486 -3.1304,-3.67739 z"
       id="path77"
       inkscape:connector-curvature="0"
       style="fill:#000000;fill-rule:evenodd;stroke:#000000;stroke-width:1;stroke-linecap:butt" />
    <path
       d="m 376.4475,222.6181 31.05511,0"
       id="path79"
       inkscape:connector-curvature="0"
       style="fill:#000000;fill-opacity:0;fill-rule:evenodd" />
    <path
       d="m 376.4475,222.6181 25.05511,0"
       id="path81"
       inkscape:connector-curvature="0"
       style="fill-rule:evenodd;stroke:#000000;stroke-width:1;stroke-linecap:butt;stroke-linejoin:round" />
    <path
       d="m 401.50262,224.26984 4.53809,-1.65173 -4.53809,-1.65172 z"
       id="path83"
       inkscape:connector-curvature="0"
       style="fill:#000000;fill-rule:evenodd;stroke:#000000;stroke-width:1;stroke-linecap:butt" />
    <path
       d="m 315.50262,222.6181 0,0 c 0,-16.82945 13.64297,-30.47243 30.47244,-30.47243 l 0,0 c 8.08179,0 15.83258,3.21048 21.54727,8.92517 5.7147,5.71469 8.92518,13.46547 8.92518,21.54726 l 0,0 c 0,16.82947 -13.64298,30.47244 -30.47245,30.47244 l 0,0 c -16.82947,0 -30.47244,-13.64297 -30.47244,-30.47244 z"
       id="path85"
       inkscape:connector-curvature="0"
       style="fill:#000000;fill-opacity:0;fill-rule:evenodd" />
    <path
       d="m 315.50262,222.6181 0,0 c 0,-16.82945 13.64297,-30.47243 30.47244,-30.47243 l 0,0 c 8.08179,0 15.83258,3.21048 21.54727,8.92517 5.7147,5.71469 8.92518,13.46547 8.92518,21.54726 l 0,0 c 0,16.82947 -13.64298,30.47244 -30.47245,30.47244 l 0,0 c -16.82947,0 -30.47244,-13.64297 -30.47244,-30.47244 z"
       id="path87"
       inkscape:connector-curvature="0"
       style="fill-rule:evenodd;stroke:#000000;stroke-width:1;stroke-linecap:butt;stroke-linejoin:round" />
    <path
       d="m 339.64694,207.11124 12.65625,0 0,33.16406 -12.65625,0 0,-33.16406 z"
       id="path89"
       inkscape:connector-curvature="0"
       style="fill:#fffff4;fill-rule:nonzero" />
    <path
       d="m 345.41257,221.00186 q 0.51563,0 1.17188,0.0781 0.65625,0.0625 1.95312,0.0625 1.35938,0 1.84375,-0.0937 0.5,-0.0937 0.9375,-0.32812 0.35938,0.0781 0.46875,0.32812 0,0.28125 -0.375,1.03125 -0.375,0.73438 -0.84375,0.73438 -0.34375,0 -0.64062,-0.0156 -0.29688,-0.0156 -0.60938,-0.0312 -0.3125,-0.0312 -0.54687,-0.0312 0.48437,0.46875 0.875,1.4375 0.40625,0.95313 0.40625,2.03125 0,2.25 -1.35938,3.70313 -1.35937,1.4375 -3.32812,1.4375 -2.17188,0 -3.51563,-1.51563 -1.32812,-1.51562 -1.32812,-3.625 0,-2.20312 1.46875,-3.70312 1.48437,-1.5 3.42187,-1.5 z m -0.23437,1.59375 q -1.32813,0 -2.03125,1.07812 -0.70313,1.07813 -0.70313,2.84375 0,1.59375 0.60938,2.75 0.60937,1.15625 1.79687,1.15625 1.53125,0 2.46875,-1.42187 0.9375,-1.4375 0.9375,-3.42188 0,-1.85937 -0.96875,-2.67187 -0.375,-0.3125 -2.10937,-0.3125 z"
       id="path91"
       inkscape:connector-curvature="0"
       style="fill:#000000;fill-rule:nonzero" />
    <path
       d="m 284.44226,222.6181 31.05511,0"
       id="path93"
       inkscape:connector-curvature="0"
       style="fill:#000000;fill-opacity:0;fill-rule:evenodd" />
    <path
       d="m 284.44226,222.6181 25.05511,0"
       id="path95"
       inkscape:connector-curvature="0"
       style="fill-rule:evenodd;stroke:#000000;stroke-width:1;stroke-linecap:butt;stroke-linejoin:round" />
    <path
       d="m 309.49738,224.26984 4.53809,-1.65173 -4.53809,-1.65172 z"
       id="path97"
       inkscape:connector-curvature="0"
       style="fill:#000000;fill-rule:evenodd;stroke:#000000;stroke-width:1;stroke-linecap:butt" />
    <path
       d="m 65.71939,272.14304 0,0 c 0,-0.74799 -0.606354,-1.35434 -1.354332,-1.35434 l 0,0 c -0.359184,0 -0.703667,0.1427 -0.957653,0.39667 -0.253986,0.254 -0.396675,0.59848 -0.396675,0.95767 l 0,0 c 0,0.74796 0.606354,1.35431 1.354328,1.35431 l 0,0 c 0.747978,0 1.354332,-0.60635 1.354332,-1.35431 z"
       id="path99"
       inkscape:connector-curvature="0"
       style="fill:#000000;fill-rule:evenodd" />
    <path
       d="m 65.71939,272.14304 0,0 c 0,-0.74799 -0.606354,-1.35434 -1.354332,-1.35434 l 0,0 c -0.359184,0 -0.703667,0.1427 -0.957653,0.39667 -0.253986,0.254 -0.396675,0.59848 -0.396675,0.95767 l 0,0 c 0,0.74796 0.606354,1.35431 1.354328,1.35431 l 0,0 c 0.747978,0 1.354332,-0.60635 1.354332,-1.35431 z"
       id="path101"
       inkscape:connector-curvature="0"
       style="fill-rule:evenodd;stroke:#000000;stroke-width:1;stroke-linecap:butt;stroke-linejoin:round" />
    <path
       d="m 65.71939,279.88974 0,0 c 0,-0.74796 -0.606354,-1.35431 -1.354332,-1.35431 l 0,0 c -0.359184,0 -0.703667,0.14267 -0.957653,0.39667 -0.253986,0.25397 -0.396675,0.59845 -0.396675,0.95764 l 0,0 c 0,0.74799 0.606354,1.35434 1.354328,1.35434 l 0,0 c 0.747978,0 1.354332,-0.60635 1.354332,-1.35434 z"
       id="path103"
       inkscape:connector-curvature="0"
       style="fill:#000000;fill-rule:evenodd" />
    <path
       d="m 65.71939,279.88974 0,0 c 0,-0.74796 -0.606354,-1.35431 -1.354332,-1.35431 l 0,0 c -0.359184,0 -0.703667,0.14267 -0.957653,0.39667 -0.253986,0.25397 -0.396675,0.59845 -0.396675,0.95764 l 0,0 c 0,0.74799 0.606354,1.35434 1.354328,1.35434 l 0,0 c 0.747978,0 1.354332,-0.60635 1.354332,-1.35434 z"
       id="path105"
       inkscape:connector-curvature="0"
       style="fill-rule:evenodd;stroke:#000000;stroke-width:1;stroke-linecap:butt;stroke-linejoin:round" />
    <path
       d="m 65.71939,287.04987 0,0 c 0,-0.74799 -0.606354,-1.35434 -1.354332,-1.35434 l 0,0 c -0.359184,0 -0.703667,0.14267 -0.957653,0.39667 -0.253986,0.254 -0.396675,0.59848 -0.396675,0.95767 l 0,0 c 0,0.74796 0.606354,1.35431 1.354328,1.35431 l 0,0 c 0.747978,0 1.354332,-0.60635 1.354332,-1.35431 z"
       id="path107"
       inkscape:connector-curvature="0"
       style="fill:#000000;fill-rule:evenodd" />
    <path
       d="m 65.71939,287.04987 0,0 c 0,-0.74799 -0.606354,-1.35434 -1.354332,-1.35434 l 0,0 c -0.359184,0 -0.703667,0.14267 -0.957653,0.39667 -0.253986,0.254 -0.396675,0.59848 -0.396675,0.95767 l 0,0 c 0,0.74796 0.606354,1.35431 1.354328,1.35431 l 0,0 c 0.747978,0 1.354332,-0.60635 1.354332,-1.35431 z"
       id="path109"
       inkscape:connector-curvature="0"
       style="fill-rule:evenodd;stroke:#000000;stroke-width:1;stroke-linecap:butt;stroke-linejoin:round" />
    <path
       d="m 128.69554,139.71523 60.94488,0 0,73.32283 -60.94488,0 z"
       id="path111"
       inkscape:connector-curvature="0"
       style="fill:#000000;fill-opacity:0;fill-rule:evenodd" />
    <path
       d="m 157.6721,163.08334 q 0,-0.82813 -1.54688,-0.82813 l -0.0937,0 q -0.0937,0 -0.0937,-0.28125 0,-0.29687 0.0937,-0.39062 0.34375,0.0156 0.78125,0.0469 0.4375,0.0156 0.79688,0.0469 0.35937,0.0156 0.78125,0.0156 0.40625,0 0.6875,-0.0156 0.29687,-0.0312 0.67187,-0.0469 0.375,-0.0312 0.73438,-0.0469 0.0469,0.14062 0.0469,0.34375 0,0.32812 -0.125,0.32812 -0.29687,0 -0.8125,0.20313 -0.51562,0.20312 -0.6875,0.64062 l -3.0625,8.39063 q -0.1875,0.53125 -0.65625,0.53125 -0.23437,0 -0.28125,-0.0937 l -2.89062,-6.90625 -2.35938,6.46875 q -0.0312,0.0781 -0.10937,0.1875 -0.0625,0.10937 -0.21875,0.21875 -0.14063,0.125 -0.3125,0.125 -0.23438,0 -0.28125,-0.0937 -0.5625,-1.28125 -1.28125,-3.04688 -0.70313,-1.76562 -1.34375,-3.1875 -0.625,-1.42187 -1.46875,-2.92187 -0.3125,-0.51563 -1.26563,-0.51563 -0.0937,0 -0.0937,-0.29687 0,-0.28125 0.0937,-0.375 0.34375,0.0156 0.76563,0.0469 0.42187,0.0156 0.76562,0.0469 0.35938,0.0156 0.78125,0.0156 l 2.34375,-0.10937 q 0.0469,0.0937 0.0312,0.39062 0,0.28125 -0.0781,0.28125 -1.17188,0 -1.17188,0.54688 0,0.0625 0.29688,0.70312 0.29687,0.625 1.01562,2.1875 0.73438,1.5625 1.48438,3.25 0.39062,-1.15625 0.875,-2.53125 0.5,-1.39062 0.70312,-1.96875 0.20313,-0.59375 0.20313,-0.6875 0,-0.10937 -0.10938,-0.35937 -0.10937,-0.26563 -0.21875,-0.45313 l -0.125,-0.21875 q -0.14062,-0.20312 -0.4375,-0.34375 -0.23437,-0.125 -0.75,-0.125 -0.0937,0 -0.0937,-0.28125 0,-0.29687 0.0937,-0.39062 0.34375,0.0156 0.75,0.0469 0.42188,0.0156 0.75,0.0469 0.34375,0.0156 0.76563,0.0156 0.40625,0 0.73437,-0.0156 0.34375,-0.0312 0.78125,-0.0469 0.45313,-0.0312 0.78125,-0.0469 0.0469,0.14062 0.0469,0.40625 0,0.25 -0.0625,0.26562 -1.125,0 -1.125,0.92188 0,0.48437 2.57812,5.76562 0.34375,-1.07812 0.875,-2.59375 0.54688,-1.53125 0.79688,-2.26562 0.25,-0.75 0.25,-1 z"
       id="path113"
       inkscape:connector-curvature="0"
       style="fill:#000000;fill-rule:nonzero" />
    <path
       d="m 162.31273,173.00522 q -0.0937,-0.0469 -0.1875,-0.17188 -0.0937,-0.14062 -0.0937,-0.21875 0,-0.0625 0.0312,-0.0937 2.64062,-1.79687 2.70312,-1.79687 l 0.0312,0 q 0.125,0 0.1875,0.29687 -0.15625,0.51563 -0.15625,1.46875 l 0,6.15625 q 0,0.90625 0.125,1.39063 0.0312,0.10937 0.45313,0.21875 0.4375,0.0937 0.59375,0.0937 0.0625,0 0.0625,0.28125 0,0.14062 -0.0156,0.17187 -1.5625,-0.0781 -1.89062,-0.0781 -0.25,0 -1.8125,0.0781 -0.0625,-0.0625 -0.0625,-0.25 0,-0.20312 0.0625,-0.20312 0.20312,0 0.625,-0.0937 0.4375,-0.10938 0.46875,-0.21875 0.0937,-0.375 0.0937,-0.89063 l 0,-5.625 q 0,-0.45312 -0.0312,-0.6875 -0.0312,-0.23437 -0.0781,-0.28125 -0.0312,-0.0625 -0.10937,-0.0625 -0.0937,0 -0.28125,0.0937 -0.17188,0.0937 -0.40625,0.23438 -0.23438,0.14062 -0.3125,0.1875 z"
       id="path115"
       inkscape:connector-curvature="0"
       style="fill:#000000;fill-rule:nonzero" />
    <path
       d="m 189.64043,119.08268 60.94487,0 0,73.32284 -60.94487,0 z"
       id="path117"
       inkscape:connector-curvature="0"
       style="fill:#000000;fill-opacity:0;fill-rule:evenodd" />
    <path
       d="m 204.64043,140.85706 q 2.25,0 3.53125,1.53125 1.28125,1.53125 1.28125,3.26562 0,2.23438 -1.65625,3.92188 -1.65625,1.6875 -3.64063,1.6875 -0.875,0 -1.65625,-0.15625 -0.78125,-0.15625 -0.90625,-0.15625 -0.20312,0 -0.53125,0.14062 -0.3125,0.125 -0.35937,0.125 -0.0937,0 -0.29688,-0.0781 -0.1875,-0.0625 -0.1875,-0.15625 0,-0.0312 0.0625,-0.39063 0.0781,-0.35937 0.14063,-1.0625 0.0781,-0.70312 0.0781,-1.57812 l 0,-9.70313 q 0,-0.79687 -0.14062,-1.5 -0.125,-0.375 -1.20313,-0.375 l -0.20312,0 q -0.14063,0 -0.14063,-0.25 0,-0.375 0.14063,-0.375 0.70312,-0.0781 1.29687,-0.1875 0.59375,-0.125 0.9375,-0.23437 0.34375,-0.125 0.57813,-0.21875 0.23437,-0.10938 0.34375,-0.1875 l 0.0937,-0.0625 0.0469,0 q 0.0937,0 0.1875,0.125 0.0937,0.125 0.125,0.25 -0.26562,0.75 -0.26562,2.03125 l 0,4.10937 q 0,0.25 0.0781,0.25 0.0156,0 0.0625,-0.0156 0.32813,-0.23438 1,-0.48438 0.6875,-0.26562 1.20313,-0.26562 z m -0.75,1.14062 q -0.65625,0 -1.125,0.375 -0.46875,0.35938 -0.46875,1.03125 l 0,5.46875 q 0,0.71875 0.6875,1.0625 0.70312,0.34375 1.60937,0.34375 1.34375,0 2.09375,-1.26562 0.75,-1.26563 0.75,-2.85938 0,-1.85937 -0.98437,-3 -0.96875,-1.15625 -2.5625,-1.15625 z"
       id="path119"
       inkscape:connector-curvature="0"
       style="fill:#000000;fill-rule:nonzero" />
    <path
       d="m 111.7664,175.92258 60.94488,0 0,73.32283 -60.94488,0 z"
       id="path121"
       inkscape:connector-curvature="0"
       style="fill:#000000;fill-opacity:0;fill-rule:evenodd" />
    <path
       d="m 140.74297,199.2907 q 0,-0.82813 -1.54687,-0.82813 l -0.0937,0 q -0.0937,0 -0.0937,-0.28125 0,-0.29687 0.0937,-0.39062 0.34375,0.0156 0.78125,0.0469 0.4375,0.0156 0.79687,0.0469 0.35938,0.0156 0.78125,0.0156 0.40625,0 0.6875,-0.0156 0.29688,-0.0312 0.67188,-0.0469 0.375,-0.0312 0.73437,-0.0469 0.0469,0.14062 0.0469,0.34375 0,0.32812 -0.125,0.32812 -0.29688,0 -0.8125,0.20313 -0.51563,0.20312 -0.6875,0.64062 l -3.0625,8.39063 q -0.1875,0.53125 -0.65625,0.53125 -0.23438,0 -0.28125,-0.0937 l -2.89063,-6.90625 -2.35937,6.46875 q -0.0312,0.0781 -0.10938,0.1875 -0.0625,0.10937 -0.21875,0.21875 -0.14062,0.125 -0.3125,0.125 -0.23437,0 -0.28125,-0.0937 -0.5625,-1.28125 -1.28125,-3.04688 -0.70312,-1.76562 -1.34375,-3.1875 -0.625,-1.42187 -1.46875,-2.92187 -0.3125,-0.51563 -1.26562,-0.51563 -0.0937,0 -0.0937,-0.29687 0,-0.28125 0.0937,-0.375 0.34375,0.0156 0.76562,0.0469 0.42188,0.0156 0.76563,0.0469 0.35937,0.0156 0.78125,0.0156 l 2.34375,-0.10937 q 0.0469,0.0937 0.0312,0.39062 0,0.28125 -0.0781,0.28125 -1.17187,0 -1.17187,0.54688 0,0.0625 0.29687,0.70312 0.29688,0.625 1.01563,2.1875 0.73437,1.5625 1.48437,3.25 0.39063,-1.15625 0.875,-2.53125 0.5,-1.39062 0.70313,-1.96875 0.20312,-0.59375 0.20312,-0.6875 0,-0.10937 -0.10937,-0.35937 -0.10938,-0.26563 -0.21875,-0.45313 l -0.125,-0.21875 q -0.14063,-0.20312 -0.4375,-0.34375 -0.23438,-0.125 -0.75,-0.125 -0.0937,0 -0.0937,-0.28125 0,-0.29687 0.0937,-0.39062 0.34375,0.0156 0.75,0.0469 0.42187,0.0156 0.75,0.0469 0.34375,0.0156 0.76562,0.0156 0.40625,0 0.73438,-0.0156 0.34375,-0.0312 0.78125,-0.0469 0.45312,-0.0312 0.78125,-0.0469 0.0469,0.14062 0.0469,0.40625 0,0.25 -0.0625,0.26562 -1.125,0 -1.125,0.92188 0,0.48437 2.57813,5.76562 0.34375,-1.07812 0.875,-2.59375 0.54687,-1.53125 0.79687,-2.26562 0.25,-0.75 0.25,-1 z"
       id="path123"
       inkscape:connector-curvature="0"
       style="fill:#000000;fill-rule:nonzero" />
    <path
       d="m 147.33672,206.93132 q 1.04688,0 1.64063,0.78125 0.60937,0.78125 0.60937,1.76562 0,0.57813 -0.20312,1.20313 -0.1875,0.60937 -0.60938,1.25 -0.40625,0.64062 -0.75,1.125 -0.32812,0.46875 -0.92187,1.09375 -0.59375,0.625 -0.82813,0.85937 -0.21875,0.23438 -0.71875,0.71875 -0.0469,0.0781 0.0312,0.10938 l 3.01563,0 q 0.4375,0 0.625,-0.25 0.20312,-0.25 0.40625,-0.95313 0.0625,-0.17187 0.21875,-0.17187 0.20312,0 0.28125,0.0625 -0.375,1.875 -0.42188,2.1875 -0.0312,0.25 -0.3125,0.25 l -5.125,0 q -0.0625,0 -0.125,-0.17188 -0.0469,-0.1875 -0.0469,-0.29687 1.70312,-1.71875 2.92187,-3.5625 1.21875,-1.85938 1.21875,-3.14063 0,-0.84375 -0.42187,-1.29687 -0.42188,-0.46875 -1.10938,-0.46875 -1.29687,0 -2.07812,1.29687 -0.0937,0 -0.20313,-0.0937 -0.0937,-0.10937 -0.0937,-0.15625 0.0469,-0.1875 0.25,-0.5 0.21875,-0.32812 0.5625,-0.70312 0.35938,-0.39063 0.9375,-0.65625 0.59375,-0.28125 1.25,-0.28125 z"
       id="path125"
       inkscape:connector-curvature="0"
       style="fill:#000000;fill-rule:nonzero" />
    <path
       d="m 114.13648,233.67061 60.94488,0 0,73.32283 -60.94488,0 z"
       id="path127"
       inkscape:connector-curvature="0"
       style="fill:#000000;fill-opacity:0;fill-rule:evenodd" />
    <path
       d="m 143.11305,257.03873 q 0,-0.82813 -1.54688,-0.82813 l -0.0937,0 q -0.0937,0 -0.0937,-0.28125 0,-0.29687 0.0937,-0.39062 0.34375,0.0156 0.78125,0.0469 0.4375,0.0156 0.79688,0.0469 0.35937,0.0156 0.78125,0.0156 0.40625,0 0.6875,-0.0156 0.29687,-0.0312 0.67187,-0.0469 0.375,-0.0312 0.73438,-0.0469 0.0469,0.14062 0.0469,0.34375 0,0.32812 -0.125,0.32812 -0.29687,0 -0.8125,0.20313 -0.51562,0.20312 -0.6875,0.64062 l -3.0625,8.39063 q -0.1875,0.53125 -0.65625,0.53125 -0.23437,0 -0.28125,-0.0937 l -2.89062,-6.90625 -2.35938,6.46875 q -0.0312,0.0781 -0.10937,0.1875 -0.0625,0.10937 -0.21875,0.21875 -0.14063,0.125 -0.3125,0.125 -0.23438,0 -0.28125,-0.0937 -0.5625,-1.28125 -1.28125,-3.04688 -0.70313,-1.76562 -1.34375,-3.1875 -0.625,-1.42187 -1.46875,-2.92187 -0.3125,-0.51563 -1.26563,-0.51563 -0.0937,0 -0.0937,-0.29687 0,-0.28125 0.0937,-0.375 0.34375,0.0156 0.76563,0.0469 0.42187,0.0156 0.76562,0.0469 0.35938,0.0156 0.78125,0.0156 l 2.34375,-0.10937 q 0.0469,0.0937 0.0312,0.39062 0,0.28125 -0.0781,0.28125 -1.17188,0 -1.17188,0.54688 0,0.0625 0.29688,0.70312 0.29687,0.625 1.01562,2.1875 0.73438,1.5625 1.48438,3.25 0.39062,-1.15625 0.875,-2.53125 0.5,-1.39062 0.70312,-1.96875 0.20313,-0.59375 0.20313,-0.6875 0,-0.10937 -0.10938,-0.35937 -0.10937,-0.26563 -0.21875,-0.45313 l -0.125,-0.21875 q -0.14062,-0.20312 -0.4375,-0.34375 -0.23437,-0.125 -0.75,-0.125 -0.0937,0 -0.0937,-0.28125 0,-0.29687 0.0937,-0.39062 0.34375,0.0156 0.75,0.0469 0.42188,0.0156 0.75,0.0469 0.34375,0.0156 0.76563,0.0156 0.40625,0 0.73437,-0.0156 0.34375,-0.0312 0.78125,-0.0469 0.45313,-0.0312 0.78125,-0.0469 0.0469,0.14062 0.0469,0.40625 0,0.25 -0.0625,0.26562 -1.125,0 -1.125,0.92188 0,0.48437 2.57812,5.76562 0.34375,-1.07812 0.875,-2.59375 0.54688,-1.53125 0.79688,-2.26562 0.25,-0.75 0.25,-1 z"
       id="path129"
       inkscape:connector-curvature="0"
       style="fill:#000000;fill-rule:nonzero" />
    <path
       d="m 149.5818,268.49185 q -0.90625,0 -1.42188,0.8125 -0.51562,0.8125 -0.51562,1.89062 0,1.14063 0.60937,1.98438 0.60938,0.82812 1.6875,0.82812 0.53125,0 0.82813,-0.23437 0.29687,-0.25 0.29687,-0.65625 l 0,-3.71875 q 0,-0.32813 -0.35937,-0.60938 -0.34375,-0.29687 -1.125,-0.29687 z m 0.20312,-0.65625 q 0.67188,0 1.17188,0.26562 0.10937,0 0.10937,-0.28125 l 0,-1.6875 q 0,-0.53125 -0.0937,-1 -0.0781,-0.25 -0.79687,-0.25 l -0.14063,0 q -0.0937,0 -0.0937,-0.17187 0,-0.25 0.0937,-0.25 0.46875,-0.0469 0.85938,-0.125 0.40625,-0.0781 0.625,-0.15625 0.23437,-0.0781 0.39062,-0.14063 0.15625,-0.0781 0.23438,-0.125 l 0.0625,-0.0469 0.0312,0 q 0.0625,0 0.125,0.0937 0.0625,0.0781 0.0781,0.15625 -0.17187,0.5 -0.17187,1.35937 l 0,7.03125 q 0,0.75 0.0937,1.1875 0.0312,0.10938 0.17187,0.17188 0.14063,0.0625 0.28125,0.0781 0.15625,0.0156 0.29688,0.0156 l 0.14062,0.0156 q 0.0469,0.0156 0.0469,0.1875 0,0.23438 -0.0937,0.23438 -0.23438,0.0156 -0.53125,0.0625 -0.28125,0.0469 -0.54688,0.10937 -0.25,0.0469 -0.46875,0.10938 -0.21875,0.0469 -0.35937,0.0937 l -0.14063,0.0312 q -0.0937,0 -0.0937,-0.26563 l 0,-0.1875 q 0,-0.0937 -0.0625,-0.0625 -0.875,0.48438 -1.65625,0.48438 -1.29687,0 -2.17187,-0.92188 -0.875,-0.92187 -0.875,-2.20312 0,-1.51563 1.0625,-2.65625 1.07812,-1.15625 2.42187,-1.15625 z"
       id="path131"
       inkscape:connector-curvature="0"
       style="fill:#000000;fill-rule:nonzero" />
  </g>
</svg>
