<?xml version="1.0" encoding="UTF-8" standalone="no"?>
<!-- Created with Inkscape (http://www.inkscape.org/) -->

<svg
   xmlns:ns0="http://www.iki.fi/pav/software/textext/"
   xmlns:dc="http://purl.org/dc/elements/1.1/"
   xmlns:cc="http://creativecommons.org/ns#"
   xmlns:rdf="http://www.w3.org/1999/02/22-rdf-syntax-ns#"
   xmlns:svg="http://www.w3.org/2000/svg"
   xmlns="http://www.w3.org/2000/svg"
   xmlns:sodipodi="http://sodipodi.sourceforge.net/DTD/sodipodi-0.dtd"
   xmlns:inkscape="http://www.inkscape.org/namespaces/inkscape"
   width="43.843948mm"
   height="32.622051mm"
   viewBox="0 0 155.35257 115.58994"
   id="svg2"
   version="1.1"
   inkscape:version="0.91 r13725"
   sodipodi:docname="mse.svg">
  <sodipodi:namedview
     id="base"
     pagecolor="#ffffff"
     bordercolor="#666666"
     borderopacity="1.0"
     inkscape:pageopacity="0.0"
     inkscape:pageshadow="2"
     inkscape:zoom="1.979899"
     inkscape:cx="142.82597"
     inkscape:cy="-11.343119"
     inkscape:document-units="px"
     inkscape:current-layer="g5822"
     showgrid="false"
     inkscape:window-width="2560"
     inkscape:window-height="1417"
     inkscape:window-x="-8"
     inkscape:window-y="-8"
     inkscape:window-maximized="1"
     fit-margin-top="0"
     fit-margin-left="0"
     fit-margin-right="0"
     fit-margin-bottom="0" />
  <defs
     id="defs4">
    <marker
       inkscape:collect="always"
       inkscape:isstock="true"
       style="overflow:visible"
       id="marker8909"
       refX="0"
       refY="0"
       orient="auto"
       inkscape:stockid="TriangleOutM">
      <path
         transform="scale(0.4,0.4)"
         style="fill:#000000;fill-opacity:1;fill-rule:evenodd;stroke:#000000;stroke-width:1pt;stroke-opacity:1"
         d="m 5.77,0 -8.65,5 0,-10 8.65,5 z"
         id="path8911"
         inkscape:connector-curvature="0" />
    </marker>
    <marker
       inkscape:collect="always"
       inkscape:stockid="TriangleOutM"
       orient="auto"
       refY="0"
       refX="0"
       id="marker8847"
       style="overflow:visible"
       inkscape:isstock="true">
      <path
         id="path8849"
         d="m 5.77,0 -8.65,5 0,-10 8.65,5 z"
         style="fill:#000000;fill-opacity:1;fill-rule:evenodd;stroke:#000000;stroke-width:1pt;stroke-opacity:1"
         transform="scale(0.4,0.4)"
         inkscape:connector-curvature="0" />
    </marker>
  </defs>
  <metadata
     id="metadata7">
    <rdf:RDF>
      <cc:Work
         rdf:about="">
        <dc:format>image/svg+xml</dc:format>
        <dc:type
           rdf:resource="http://purl.org/dc/dcmitype/StillImage" />
        <dc:title></dc:title>
      </cc:Work>
    </rdf:RDF>
  </metadata>
  <g
     inkscape:label="Layer 1"
     inkscape:groupmode="layer"
     id="layer1"
     transform="translate(-52.026419,-329.94586)">
    <path
       inkscape:connector-curvature="3"
       inkscape:connector-type="polyline"
       id="path4829"
       d="M 191.19942,81.04345 -31.819805,5.8441688"
       style="display:none;fill:none;fill-rule:evenodd;stroke:#000000;stroke-width:1px;stroke-linecap:butt;stroke-linejoin:miter;stroke-opacity:1" />
    <g
       id="g8983"
       inkscape:export-filename="/home/igorbb/docker/data/keras/course/regression/resources/mse.png"
       inkscape:export-xdpi="200"
       inkscape:export-ydpi="200">
      <path
         style="fill:none;fill-rule:evenodd;stroke:#000000;stroke-width:1;stroke-linecap:butt;stroke-linejoin:miter;stroke-miterlimit:4;stroke-dasharray:none;stroke-opacity:1;marker-end:url(#marker8847)"
         d="m 63.90319,439.15842 10e-7,-106.405"
         id="path8839"
         inkscape:connector-curvature="0"
         sodipodi:nodetypes="cc"
         inkscape:export-filename="/home/igorbb/docker/data/keras/course/regression/resources/mse.png"
         inkscape:export-xdpi="200"
         inkscape:export-ydpi="200" />
      <path
         sodipodi:nodetypes="cc"
         inkscape:connector-curvature="0"
         id="path8907"
         d="m 60.285712,433.07647 144.285718,0"
         style="fill:none;fill-rule:evenodd;stroke:#000000;stroke-width:1;stroke-linecap:butt;stroke-linejoin:miter;stroke-miterlimit:4;stroke-dasharray:none;stroke-opacity:1;marker-end:url(#marker8909)"
         inkscape:export-filename="/home/igorbb/docker/data/keras/course/regression/resources/mse.png"
         inkscape:export-xdpi="200"
         inkscape:export-ydpi="200" />
      <circle
         r="1.8940359"
         cy="386.79791"
         cx="97.605995"
         id="path10345"
         style="opacity:0.57099998;fill:#008000;stroke-width:1;stroke-linejoin:round;stroke-miterlimit:4;stroke-dasharray:none"
         inkscape:export-filename="/home/igorbb/docker/data/keras/course/regression/resources/mse.png"
         inkscape:export-xdpi="200"
         inkscape:export-ydpi="200" />
      <circle
         style="opacity:0.57099998;fill:#008000;stroke-width:1;stroke-linejoin:round;stroke-miterlimit:4;stroke-dasharray:none"
         id="circle10347"
         cx="107.45499"
         cy="398.66721"
         r="1.8940359"
         inkscape:export-filename="/home/igorbb/docker/data/keras/course/regression/resources/mse.png"
         inkscape:export-xdpi="200"
         inkscape:export-ydpi="200" />
      <circle
         r="1.8940359"
         cy="383.51489"
         cx="112.50574"
         id="circle10349"
         style="opacity:0.57099998;fill:#008000;stroke-width:1;stroke-linejoin:round;stroke-miterlimit:4;stroke-dasharray:none"
         inkscape:export-filename="/home/igorbb/docker/data/keras/course/regression/resources/mse.png"
         inkscape:export-xdpi="200"
         inkscape:export-ydpi="200" />
      <circle
         style="opacity:0.57099998;fill:#008000;stroke-width:1;stroke-linejoin:round;stroke-miterlimit:4;stroke-dasharray:none"
         id="circle10351"
         cx="122.31139"
         cy="373.29083"
         r="1.8940359"
         inkscape:export-filename="/home/igorbb/docker/data/keras/course/regression/resources/mse.png"
         inkscape:export-xdpi="200"
         inkscape:export-ydpi="200" />
      <circle
         r="1.8940359"
         cy="384.81351"
         cx="141.41238"
         id="circle10353"
         style="opacity:0.57099998;fill:#008000;stroke-width:1;stroke-linejoin:round;stroke-miterlimit:4;stroke-dasharray:none"
         inkscape:export-filename="/home/igorbb/docker/data/keras/course/regression/resources/mse.png"
         inkscape:export-xdpi="200"
         inkscape:export-ydpi="200" />
      <circle
         style="opacity:0.57099998;fill:#008000;stroke-width:1;stroke-linejoin:round;stroke-miterlimit:4;stroke-dasharray:none"
         id="circle10355"
         cx="169.57936"
         cy="337.55295"
         r="1.8940359"
         inkscape:export-filename="/home/igorbb/docker/data/keras/course/regression/resources/mse.png"
         inkscape:export-xdpi="200"
         inkscape:export-ydpi="200" />
      <path
         sodipodi:nodetypes="cc"
         inkscape:connector-curvature="0"
         id="path10357"
         d="M 52.275395,424.0473 180.91662,350.18096"
         style="fill:#0000ff;fill-rule:evenodd;stroke:#0000ff;stroke-width:1px;stroke-linecap:butt;stroke-linejoin:miter;stroke-opacity:1"
         inkscape:export-filename="/home/igorbb/docker/data/keras/course/regression/resources/mse.png"
         inkscape:export-xdpi="200"
         inkscape:export-ydpi="200" />
      <path
         inkscape:connector-curvature="0"
         id="path10363"
         d="m 139.96383,374.01964 c 0,0.0644 0.0126,0.13001 0,0.19315 -0.005,0.0223 -0.0381,0.0279 -0.0483,0.0483 -0.006,0.0127 0,0.16789 0,0.19314 0,0.0966 0,0.19315 0,0.28971 0,0.0161 0.0114,0.0369 0,0.0483 -0.0114,0.0114 -0.0369,-0.0114 -0.0483,0 -0.0114,0.0114 0,0.0322 0,0.0483 0,0.0161 0,0.0322 0,0.0483 0,0.12877 0,0.25753 0,0.38628 0,0.0805 0,0.16096 0,0.24143 0,0.0161 -0.0144,0.0411 0,0.0483 0.0288,0.0144 0.0738,-0.0227 0.0966,0 0.0115,0.0115 0,0.16194 0,0.19314 0,0.0161 0,0.0643 0,0.0483 0,-0.0322 -0.0144,-0.0678 0,-0.0966 0.0144,-0.0288 0.0678,0.0144 0.0966,0 0.0204,-0.0101 0.028,-0.0381 0.0483,-0.0483 0.0283,-0.0141 0.20585,0.009 0.24143,0 0.22193,-0.0555 0.011,-0.0483 0.14485,-0.0483 0.0177,0 0.19121,0.002 0.19315,0 0.0114,-0.0114 -0.0114,-0.0369 0,-0.0483 0.0114,-0.0114 0.0322,0 0.0483,0 0.0966,0 0.19315,0 0.28972,0 0.0161,0 0.0322,0 0.0483,0 0.0161,0 0.0411,-0.0144 0.0483,0 0.0144,0.0288 -0.0144,0.0677 0,0.0966 0.007,0.0144 0.0322,0 0.0483,0 0.0805,0 0.16096,0 0.24143,0 0.11324,0 -0.0227,-0.0114 0.0966,0.0483 0.0288,0.0144 0.0738,-0.0227 0.0966,0 0.0114,0.0114 -0.0114,0.0369 0,0.0483 0.017,0.017 0.20807,-0.0167 0.24142,0 0.0204,0.0101 0.028,0.0381 0.0483,0.0483 0.0144,0.007 0.0369,-0.0114 0.0483,0 0.0114,0.0114 -0.0114,0.0369 0,0.0483 0.0114,0.0114 0.0322,0 0.0483,0 0.0322,0 0.0677,-0.0144 0.0966,0 0.0144,0.007 -0.0114,0.0369 0,0.0483 0.0227,0.0227 0.0738,-0.0227 0.0966,0 0.0114,0.0114 -0.0114,0.0369 0,0.0483 0.0114,0.0114 0.0369,-0.0114 0.0483,0 0.01,0.01 -0.005,0.19057 0,0.19315 0.0288,0.0144 0.0644,0 0.0966,0 0.0161,0 0.0369,-0.0114 0.0483,0 0.0241,0.0241 -0.0241,0.12071 0,0.14485 0.0114,0.0114 0.0369,-0.0114 0.0483,0 0.0322,0.0322 -0.0322,0.0644 0,0.0966 0.12876,0 -0.0161,-0.0161 0.0483,0.0483 0.0114,0.0114 0.0369,-0.0114 0.0483,0 0.0227,0.0227 -0.0227,0.0738 0,0.0966 0.0114,0.0114 0.0369,-0.0114 0.0483,0 0.0322,0.0322 -0.0322,0.0644 0,0.0966 0.0114,0.0114 0.0369,-0.0114 0.0483,0 0.0227,0.0227 -0.0227,0.0738 0,0.0966 0.0114,0.0114 0.0369,-0.0114 0.0483,0 0.0241,0.0241 -0.0241,0.12072 0,0.14486 0.0114,0.0114 0.0369,-0.0114 0.0483,0 0.0114,0.0114 0,0.0322 0,0.0483 0,0.0227 -0.002,0.23924 0,0.24143 0.0114,0.0114 0.0369,-0.0114 0.0483,0 0.002,0.002 0,0.13315 0,0.14486 0,0.0117 -0.002,0.1433 0,0.14485 0.0114,0.0114 0.0369,-0.0114 0.0483,0 0.0114,0.0114 0,0.0322 0,0.0483 0,0.0161 0,0.0322 0,0.0483 0,0.0161 0,0.0322 0,0.0483 0,0.0161 0.0144,0.0411 0,0.0483 -0.0288,0.0144 -0.0738,-0.0227 -0.0966,0 -0.0227,0.0227 0.0227,0.0738 0,0.0966 -0.0227,0.0227 -0.0678,-0.0144 -0.0966,0 -0.0144,0.007 0.0114,0.0369 0,0.0483 -0.0114,0.0114 -0.0369,-0.0114 -0.0483,0 -0.0114,0.0114 0.0114,0.0369 0,0.0483 -0.0114,0.0114 -0.0339,-0.007 -0.0483,0 -0.0203,0.0101 -0.028,0.0381 -0.0483,0.0483 -0.0144,0.007 -0.0369,-0.0114 -0.0483,0 -0.0114,0.0114 0.0114,0.0369 0,0.0483 -0.0114,0.0114 -0.0369,-0.0114 -0.0483,0 -0.0114,0.0114 0.0114,0.0369 0,0.0483 -0.0114,0.0114 -0.0369,-0.0114 -0.0483,0 -0.0114,0.0114 0.0114,0.0369 0,0.0483 -0.0114,0.0114 -0.0369,-0.0114 -0.0483,0 -0.0114,0.0114 0,0.0322 0,0.0483 -0.0161,0 -0.0369,-0.0114 -0.0483,0 -0.0114,0.0114 0.0114,0.0369 0,0.0483 -0.0241,0.0241 -0.12071,-0.0241 -0.14486,0 -0.0114,0.0114 0.0114,0.0369 0,0.0483 -0.0161,0 -0.0322,0 -0.0483,0 -0.0161,0 -0.0369,-0.0114 -0.0483,0 -0.0114,0.0114 0.0114,0.0369 0,0.0483 -0.0114,0.0114 -0.0369,-0.0114 -0.0483,0 -0.0114,0.0114 0,0.0322 0,0.0483 -0.0161,0 -0.0369,-0.0114 -0.0483,0 -0.0114,0.0114 0.0114,0.0369 0,0.0483 -0.0227,0.0227 -0.0738,-0.0227 -0.0966,0 -0.0114,0.0114 0.0114,0.0369 0,0.0483 -0.002,0.002 -0.13315,0 -0.14486,0 -0.24143,0 -0.48286,0 -0.72428,0 -0.14485,0 -0.28972,0 -0.43457,0 -0.012,0 -0.18917,0.002 -0.19314,0 -0.0379,-0.0253 -0.0587,-0.0713 -0.0966,-0.0966 -0.0223,-0.0148 -0.17919,0.014 -0.19314,0 -0.0227,-0.0227 0.0227,-0.0738 0,-0.0966 -0.0114,-0.0114 -0.0369,0.0114 -0.0483,0 -0.0241,-0.0241 0.0241,-0.12071 0,-0.14486 -0.0114,-0.0114 -0.0369,0.0114 -0.0483,0 -0.002,-0.002 0,-0.21866 0,-0.24143 0,-0.0128 -0.008,-0.14087 0,-0.14485 0.0288,-0.0144 0.0678,0.0144 0.0966,0 0.0144,-0.007 -0.0114,-0.0369 0,-0.0483 0.12876,0 -0.0161,0.0161 0.0483,-0.0483 0.0114,-0.0114 0.0322,0 0.0483,0 0.0161,0 0.0322,0 0.0483,0 0.14485,0 0.28971,0 0.43456,0 0.0128,0 0.14087,-0.008 0.14486,0 0,0.27362 -0.0322,0.0161 0.0483,0.0966 0.0114,0.0114 -0.0114,0.0369 0,0.0483 0.015,0.015 0.22646,-0.015 0.24142,0 0.0114,0.0114 -0.0114,0.0369 0,0.0483 0.0227,0.0227 0.0738,-0.0227 0.0966,0 0.0114,0.0114 -0.0114,0.0369 0,0.0483 0.0227,0.0227 0.0738,-0.0227 0.0966,0 0.0114,0.0114 -0.0114,0.0369 0,0.0483 0.0116,0.0116 0.18152,-0.0116 0.19314,0 0.0114,0.0114 -0.0114,0.0369 0,0.0483 0.0227,0.0227 0.0738,-0.0227 0.0966,0 0.0114,0.0114 -0.0114,0.0369 0,0.0483 0.12876,0 -0.0161,-0.0161 0.0483,0.0483 0.0227,0.0227 0.0738,-0.0227 0.0966,0 0.0999,0.0999 -0.15266,-0.004 0.0483,0.0966 0.0191,0.01 0.13499,-0.01 0.14485,0 0.0114,0.0114 -0.0114,0.0369 0,0.0483 0.0241,0.0241 0.12072,-0.0241 0.14487,0 0.0114,0.0114 -0.0144,0.0411 0,0.0483 0.0312,0.0156 0.1758,-0.0174 0.19314,0 0.0114,0.0114 -0.0114,0.0369 0,0.0483 0.0114,0.0114 0.0369,-0.0114 0.0483,0 0.0114,0.0114 -0.0114,0.0369 0,0.0483 0.0241,0.0241 0.12072,-0.0241 0.14486,0 0.0114,0.0114 -0.0114,0.0369 0,0.0483 0.0114,0.0114 0.0369,-0.0114 0.0483,0 0.0114,0.0114 -0.0114,0.0369 0,0.0483 0.0114,0.0114 0.0322,0 0.0483,0 0,0.0161 -0.0114,0.0369 0,0.0483 0.0114,0.0114 0.0369,-0.0114 0.0483,0 0.0227,0.0227 -0.0227,0.0738 0,0.0966 0.12876,0 -0.0161,-0.0161 0.0483,0.0483 0.0114,0.0114 0.0369,-0.0114 0.0483,0 0.0241,0.0241 -0.0241,0.12071 0,0.14486 0.0114,0.0114 0.0369,-0.0114 0.0483,0 0.0114,0.0114 0,0.0322 0,0.0483 0.0161,0 0.0369,-0.0114 0.0483,0 0.0114,0.0114 -0.0114,0.0369 0,0.0483 0.0114,0.0114 0.0369,-0.0114 0.0483,0 0.0114,0.0114 -0.0114,0.0369 0,0.0483 0.0114,0.0114 0.0369,-0.0114 0.0483,0 0.0227,0.0227 -0.0227,0.0738 0,0.0966 0.0114,0.0114 0.0369,-0.0114 0.0483,0 0.0227,0.0227 -0.0227,0.0738 0,0.0966 0.0644,0.0643 0.0483,-0.0805 0.0483,0.0483 0,0.16095 0,0.32191 0,0.48285 0,0.0161 0,0.0322 0,0.0483 0,0.0161 0.0144,0.0411 0,0.0483 -0.0288,0.0144 -0.0644,0 -0.0966,0 -0.0161,0 -0.0369,-0.0114 -0.0483,0 -0.0114,0.0114 0.0114,0.0369 0,0.0483 -0.0241,0.0241 -0.12071,-0.0241 -0.14486,0 -0.0114,0.0114 0.0114,0.0369 0,0.0483 -0.0114,0.0114 -0.0369,-0.0114 -0.0483,0 -0.0114,0.0114 0.0114,0.0369 0,0.0483 -0.0241,0.0241 -0.12072,-0.0241 -0.14486,0 -0.0114,0.0114 0.0114,0.0369 0,0.0483 -0.0114,0.0114 -0.0339,-0.007 -0.0483,0 -0.0204,0.0101 -0.028,0.0381 -0.0483,0.0483 -0.0288,0.0144 -0.0738,-0.0227 -0.0966,0 -0.0114,0.0114 0.0114,0.0369 0,0.0483 -0.0116,0.0116 -0.18152,-0.0116 -0.19314,0 -0.0114,0.0114 0.0114,0.0369 0,0.0483 -0.0227,0.0227 -0.0738,-0.0227 -0.0966,0 -0.0114,0.0114 0.0114,0.0369 0,0.0483 -0.0241,0.0241 -0.12071,-0.0241 -0.14486,0 -0.0114,0.0114 0,0.0322 0,0.0483 -0.0161,0 -0.0369,-0.0114 -0.0483,0 -0.0114,0.0114 0.0114,0.0369 0,0.0483 -0.0241,0.0241 -0.12071,-0.0241 -0.14485,0 -0.0114,0.0114 0.0114,0.0369 0,0.0483 -0.0241,0.0241 -0.12072,-0.0241 -0.14486,0 -0.0114,0.0114 0.0114,0.0369 0,0.0483 -0.0114,0.0114 -0.0369,-0.0114 -0.0483,0 -0.0114,0.0114 0.0114,0.0369 0,0.0483 -0.0227,0.0227 -0.0738,-0.0227 -0.0966,0 -0.0114,0.0114 0.0114,0.0369 0,0.0483 -0.0114,0.0114 -0.0322,0 -0.0483,0 -0.0161,0 -0.0322,0 -0.0483,0 -0.12876,0 0.0161,-0.0161 -0.0483,0.0483 -0.0114,0.0114 -0.0322,0 -0.0483,0 -0.0161,0 -0.0369,-0.0114 -0.0483,0 -0.0114,0.0114 0.0114,0.0369 0,0.0483 -0.0116,0.0116 -0.18153,-0.0116 -0.19315,0 -0.0644,0.0644 0.0805,0.0483 -0.0483,0.0483 -0.0128,0 -0.14087,0.008 -0.14485,0 0,-0.27361 0.0322,-0.0161 -0.0483,-0.0966 -0.0114,-0.0114 0,-0.0322 0,-0.0483 0,-0.0322 0.0144,-0.0678 0,-0.0966 -0.007,-0.0144 -0.0369,0.0114 -0.0483,0 -0.0114,-0.0114 0.0114,-0.0369 0,-0.0483 -0.0116,-0.0116 -0.18152,0.0116 -0.19314,0 -0.002,-0.002 0,-0.21866 0,-0.24143 0,-0.0161 -0.0144,-0.0411 0,-0.0483 0.0205,-0.0103 0.20095,0 0.24142,0 0.20924,0 0.41848,0 0.62771,0 0.0128,0 0.14087,-0.008 0.14486,0 0.0144,0.0288 -0.0144,0.0678 0,0.0966 0.0144,0.0288 0.0738,-0.0227 0.0966,0 0.0114,0.0114 -0.0114,0.0369 0,0.0483 0.0241,0.0241 0.12071,-0.0241 0.14486,0 0.0114,0.0114 -0.0114,0.0369 0,0.0483 0.0241,0.0241 0.12071,-0.0241 0.14485,0 0.0114,0.0114 -0.0114,0.0369 0,0.0483 0.0227,0.0227 0.0678,-0.0144 0.0966,0 0.0203,0.0101 0.028,0.0381 0.0483,0.0483 0.0288,0.0144 0.0738,-0.0227 0.0966,0 0.0114,0.0114 -0.0114,0.0369 0,0.0483 0.0116,0.0116 0.18152,-0.0116 0.19314,0 0.0114,0.0114 -0.0114,0.0369 0,0.0483 0.0114,0.0114 0.0369,-0.0114 0.0483,0 0.0114,0.0114 -0.0114,0.0369 0,0.0483 0.0227,0.0227 0.0738,-0.0227 0.0966,0 0.0114,0.0114 -0.0114,0.0369 0,0.0483 0.0227,0.0227 0.0738,-0.0227 0.0966,0 0.0114,0.0114 -0.0114,0.0369 0,0.0483 0.0227,0.0227 0.0738,-0.0227 0.0966,0 0.0114,0.0114 -0.0114,0.0369 0,0.0483 0.12876,0 -0.0161,-0.0161 0.0483,0.0483 0.0227,0.0227 0.0738,-0.0227 0.0966,0 0.0114,0.0114 -0.0114,0.0369 0,0.0483 0.0114,0.0114 0.0369,-0.0114 0.0483,0 0.0114,0.0114 0,0.0322 0,0.0483 0.0161,0 0.0369,-0.0114 0.0483,0 0.0114,0.0114 -0.0114,0.0369 0,0.0483 0.0114,0.0114 0.0369,-0.0114 0.0483,0 0.0114,0.0114 -0.0114,0.0369 0,0.0483 0.0114,0.0114 0.0369,-0.0114 0.0483,0 0.0227,0.0227 -0.0227,0.0738 0,0.0966 0.0114,0.0114 0.0369,-0.0114 0.0483,0 0.0241,0.0241 -0.0241,0.12071 0,0.14485 0.0114,0.0114 0.0369,-0.0114 0.0483,0 0.0114,0.0114 0,0.0322 0,0.0483 0,0.0805 0,0.16095 0,0.24143 0,0.0161 0.0144,0.0411 0,0.0483 -0.0288,0.0144 -0.0738,-0.0227 -0.0966,0 -0.0241,0.0241 0.0241,0.12071 0,0.14486 -0.0114,0.0114 -0.0369,-0.0114 -0.0483,0 -0.0114,0.0114 0.0114,0.0369 0,0.0483 -0.0114,0.0114 -0.0369,-0.0114 -0.0483,0 -0.0114,0.0114 0.0114,0.0369 0,0.0483 -0.0114,0.0114 -0.0369,-0.0114 -0.0483,0 -0.0114,0.0114 0.0114,0.0369 0,0.0483 -0.0114,0.0114 -0.0369,-0.0114 -0.0483,0 -0.0114,0.0114 0.0114,0.0369 0,0.0483 -0.0114,0.0114 -0.0369,-0.0114 -0.0483,0 -0.0227,0.0227 0.0227,0.0738 0,0.0966 -0.0114,0.0114 -0.0322,0 -0.0483,0 0,0.0161 0.0114,0.0369 0,0.0483 -0.0114,0.0114 -0.0369,-0.0114 -0.0483,0 -0.0114,0.0114 0.0114,0.0369 0,0.0483 -0.0227,0.0227 -0.0738,-0.0227 -0.0966,0 -0.0114,0.0114 0.0114,0.0369 0,0.0483 -0.0227,0.0227 -0.0678,-0.0144 -0.0966,0 -0.0203,0.0101 -0.0279,0.0381 -0.0483,0.0483 -0.0144,0.007 -0.0339,-0.007 -0.0483,0 -0.0203,0.0101 -0.028,0.0381 -0.0483,0.0483 -0.0144,0.007 -0.0369,-0.0114 -0.0483,0 -0.0114,0.0114 0.0114,0.0369 0,0.0483 -0.0227,0.0227 -0.0738,-0.0227 -0.0966,0 -0.0114,0.0114 0.0114,0.0369 0,0.0483 -0.0116,0.0116 -0.18152,-0.0116 -0.19314,0 -0.0114,0.0114 0.0114,0.0369 0,0.0483 -0.0114,0.0114 -0.0322,0 -0.0483,0 -0.0161,0 -0.0322,0 -0.0483,0 -0.14486,0 -0.28971,0 -0.43457,0 -0.0128,0 -0.14087,0.008 -0.14485,0 -0.0144,-0.0288 0.0144,-0.0678 0,-0.0966 -0.004,-0.008 -0.13202,0 -0.14486,0 -0.12877,0 0.0161,0.0161 -0.0483,-0.0483 -0.0116,-0.0116 -0.19313,0.011 -0.19313,0 0,-0.0161 0.0644,0 0.0483,0 -0.0322,0 -0.0678,0.0144 -0.0966,0 -0.0144,-0.007 0.0114,-0.0369 0,-0.0483 -0.002,-0.002 -0.21867,0 -0.24143,0 -0.0161,0 -0.0322,0 -0.0483,0 -0.0161,0 -0.0411,-0.0144 -0.0483,0 -0.0216,0.0432 0,0.0966 0,0.14486 0,0.0161 -0.0144,0.0411 0,0.0483 0.0288,0.0144 0.0643,0 0.0966,0 0.0161,0 0.0369,-0.0114 0.0483,0 0.0322,0.0322 -0.0322,0.0644 0,0.0966 0.0114,0.0114 0.0369,-0.0114 0.0483,0 0.0114,0.0114 -0.0114,0.0369 0,0.0483 0.0114,0.0114 0.0369,-0.0114 0.0483,0 0.0114,0.0114 0,0.0322 0,0.0483 0,0.0161 0,0.0322 0,0.0483 0,0.23284 0,0.52349 0,0.86913 0,0.0966 0,0.19314 0,0.28971 0,0.0161 0.0144,0.0411 0,0.0483 -0.0288,0.0144 -0.0678,-0.0144 -0.0966,0 -0.0144,0.007 0,0.0322 0,0.0483 0,0.0643 0,0.12876 0,0.19313"
         style="fill:none;fill-rule:evenodd;stroke:#ff0000;stroke-width:0.19120067px;stroke-linecap:butt;stroke-linejoin:miter;stroke-opacity:1"
         inkscape:export-filename="/home/igorbb/docker/data/keras/course/regression/resources/mse.png"
         inkscape:export-xdpi="200"
         inkscape:export-ydpi="200" />
      <path
         style="fill:none;fill-rule:evenodd;stroke:#ff0000;stroke-width:0.19120067px;stroke-linecap:butt;stroke-linejoin:miter;stroke-opacity:1"
         d="m 97.10669,387.76963 c 0,0.0644 0.0126,0.13001 0,0.19315 -0.005,0.0223 -0.0381,0.0279 -0.0483,0.0483 -0.006,0.0127 0,0.16789 0,0.19314 0,0.0966 0,0.19315 0,0.28971 0,0.0161 0.0114,0.0369 0,0.0483 -0.0114,0.0114 -0.0369,-0.0114 -0.0483,0 -0.0114,0.0114 0,0.0322 0,0.0483 0,0.0161 0,0.0322 0,0.0483 0,0.12877 0,0.25753 0,0.38628 0,0.0805 0,0.16096 0,0.24143 0,0.0161 -0.0144,0.0411 0,0.0483 0.0288,0.0144 0.0738,-0.0227 0.0966,0 0.0115,0.0115 0,0.16194 0,0.19314 0,0.0161 0,0.0643 0,0.0483 0,-0.0322 -0.0144,-0.0678 0,-0.0966 0.0144,-0.0288 0.0678,0.0144 0.0966,0 0.0204,-0.0101 0.028,-0.0381 0.0483,-0.0483 0.0283,-0.0141 0.20585,0.009 0.24143,0 0.22193,-0.0555 0.011,-0.0483 0.14485,-0.0483 0.0177,0 0.19121,0.002 0.19315,0 0.0114,-0.0114 -0.0114,-0.0369 0,-0.0483 0.0114,-0.0114 0.0322,0 0.0483,0 0.0966,0 0.19315,0 0.28972,0 0.0161,0 0.0322,0 0.0483,0 0.0161,0 0.0411,-0.0144 0.0483,0 0.0144,0.0288 -0.0144,0.0677 0,0.0966 0.007,0.0144 0.0322,0 0.0483,0 0.0805,0 0.16096,0 0.24143,0 0.11324,0 -0.0227,-0.0114 0.0966,0.0483 0.0288,0.0144 0.0738,-0.0227 0.0966,0 0.0114,0.0114 -0.0114,0.0369 0,0.0483 0.017,0.017 0.20807,-0.0167 0.24142,0 0.0204,0.0101 0.028,0.0381 0.0483,0.0483 0.0144,0.007 0.0369,-0.0114 0.0483,0 0.0114,0.0114 -0.0114,0.0369 0,0.0483 0.0114,0.0114 0.0322,0 0.0483,0 0.0322,0 0.0677,-0.0144 0.0966,0 0.0144,0.007 -0.0114,0.0369 0,0.0483 0.0227,0.0227 0.0738,-0.0227 0.0966,0 0.0114,0.0114 -0.0114,0.0369 0,0.0483 0.0114,0.0114 0.0369,-0.0114 0.0483,0 0.01,0.01 -0.005,0.19057 0,0.19315 0.0288,0.0144 0.0644,0 0.0966,0 0.0161,0 0.0369,-0.0114 0.0483,0 0.0241,0.0241 -0.0241,0.12071 0,0.14485 0.0114,0.0114 0.0369,-0.0114 0.0483,0 0.0322,0.0322 -0.0322,0.0644 0,0.0966 0.12876,0 -0.0161,-0.0161 0.0483,0.0483 0.0114,0.0114 0.0369,-0.0114 0.0483,0 0.0227,0.0227 -0.0227,0.0738 0,0.0966 0.0114,0.0114 0.0369,-0.0114 0.0483,0 0.0322,0.0322 -0.0322,0.0644 0,0.0966 0.0114,0.0114 0.0369,-0.0114 0.0483,0 0.0227,0.0227 -0.0227,0.0738 0,0.0966 0.0114,0.0114 0.0369,-0.0114 0.0483,0 0.0241,0.0241 -0.0241,0.12072 0,0.14486 0.0114,0.0114 0.0369,-0.0114 0.0483,0 0.0114,0.0114 0,0.0322 0,0.0483 0,0.0227 -0.002,0.23924 0,0.24143 0.0114,0.0114 0.0369,-0.0114 0.0483,0 0.002,0.002 0,0.13315 0,0.14486 0,0.0117 -0.002,0.1433 0,0.14485 0.0114,0.0114 0.0369,-0.0114 0.0483,0 0.0114,0.0114 0,0.0322 0,0.0483 0,0.0161 0,0.0322 0,0.0483 0,0.0161 0,0.0322 0,0.0483 0,0.0161 0.0144,0.0411 0,0.0483 -0.0288,0.0144 -0.0738,-0.0227 -0.0966,0 -0.0227,0.0227 0.0227,0.0738 0,0.0966 -0.0227,0.0227 -0.0678,-0.0144 -0.0966,0 -0.0144,0.007 0.0114,0.0369 0,0.0483 -0.0114,0.0114 -0.0369,-0.0114 -0.0483,0 -0.0114,0.0114 0.0114,0.0369 0,0.0483 -0.0114,0.0114 -0.0339,-0.007 -0.0483,0 -0.0203,0.0101 -0.028,0.0381 -0.0483,0.0483 -0.0144,0.007 -0.0369,-0.0114 -0.0483,0 -0.0114,0.0114 0.0114,0.0369 0,0.0483 -0.0114,0.0114 -0.0369,-0.0114 -0.0483,0 -0.0114,0.0114 0.0114,0.0369 0,0.0483 -0.0114,0.0114 -0.0369,-0.0114 -0.0483,0 -0.0114,0.0114 0.0114,0.0369 0,0.0483 -0.0114,0.0114 -0.0369,-0.0114 -0.0483,0 -0.0114,0.0114 0,0.0322 0,0.0483 -0.0161,0 -0.0369,-0.0114 -0.0483,0 -0.0114,0.0114 0.0114,0.0369 0,0.0483 -0.0241,0.0241 -0.12071,-0.0241 -0.14486,0 -0.0114,0.0114 0.0114,0.0369 0,0.0483 -0.0161,0 -0.0322,0 -0.0483,0 -0.0161,0 -0.0369,-0.0114 -0.0483,0 -0.0114,0.0114 0.0114,0.0369 0,0.0483 -0.0114,0.0114 -0.0369,-0.0114 -0.0483,0 -0.0114,0.0114 0,0.0322 0,0.0483 -0.0161,0 -0.0369,-0.0114 -0.0483,0 -0.0114,0.0114 0.0114,0.0369 0,0.0483 -0.0227,0.0227 -0.0738,-0.0227 -0.0966,0 -0.0114,0.0114 0.0114,0.0369 0,0.0483 -0.002,0.002 -0.13315,0 -0.14486,0 -0.24143,0 -0.48286,0 -0.72428,0 -0.14485,0 -0.28972,0 -0.43457,0 -0.012,0 -0.18917,0.002 -0.19314,0 -0.0379,-0.0253 -0.0587,-0.0713 -0.0966,-0.0966 -0.0223,-0.0148 -0.17919,0.014 -0.19314,0 -0.0227,-0.0227 0.0227,-0.0738 0,-0.0966 -0.0114,-0.0114 -0.0369,0.0114 -0.0483,0 -0.0241,-0.0241 0.0241,-0.12071 0,-0.14486 -0.0114,-0.0114 -0.0369,0.0114 -0.0483,0 -0.002,-0.002 0,-0.21866 0,-0.24143 0,-0.0128 -0.008,-0.14087 0,-0.14485 0.0288,-0.0144 0.0678,0.0144 0.0966,0 0.0144,-0.007 -0.0114,-0.0369 0,-0.0483 0.12876,0 -0.0161,0.0161 0.0483,-0.0483 0.0114,-0.0114 0.0322,0 0.0483,0 0.0161,0 0.0322,0 0.0483,0 0.14485,0 0.28971,0 0.43456,0 0.0128,0 0.14087,-0.008 0.14486,0 0,0.27362 -0.0322,0.0161 0.0483,0.0966 0.0114,0.0114 -0.0114,0.0369 0,0.0483 0.015,0.015 0.22646,-0.015 0.24142,0 0.0114,0.0114 -0.0114,0.0369 0,0.0483 0.0227,0.0227 0.0738,-0.0227 0.0966,0 0.0114,0.0114 -0.0114,0.0369 0,0.0483 0.0227,0.0227 0.0738,-0.0227 0.0966,0 0.0114,0.0114 -0.0114,0.0369 0,0.0483 0.0116,0.0116 0.18152,-0.0116 0.19314,0 0.0114,0.0114 -0.0114,0.0369 0,0.0483 0.0227,0.0227 0.0738,-0.0227 0.0966,0 0.0114,0.0114 -0.0114,0.0369 0,0.0483 0.12876,0 -0.0161,-0.0161 0.0483,0.0483 0.0227,0.0227 0.0738,-0.0227 0.0966,0 0.0999,0.0999 -0.15266,-0.004 0.0483,0.0966 0.0191,0.01 0.13499,-0.01 0.14485,0 0.0114,0.0114 -0.0114,0.0369 0,0.0483 0.0241,0.0241 0.12072,-0.0241 0.14487,0 0.0114,0.0114 -0.0144,0.0411 0,0.0483 0.0312,0.0156 0.1758,-0.0174 0.19314,0 0.0114,0.0114 -0.0114,0.0369 0,0.0483 0.0114,0.0114 0.0369,-0.0114 0.0483,0 0.0114,0.0114 -0.0114,0.0369 0,0.0483 0.0241,0.0241 0.12072,-0.0241 0.14486,0 0.0114,0.0114 -0.0114,0.0369 0,0.0483 0.0114,0.0114 0.0369,-0.0114 0.0483,0 0.0114,0.0114 -0.0114,0.0369 0,0.0483 0.0114,0.0114 0.0322,0 0.0483,0 0,0.0161 -0.0114,0.0369 0,0.0483 0.0114,0.0114 0.0369,-0.0114 0.0483,0 0.0227,0.0227 -0.0227,0.0738 0,0.0966 0.12876,0 -0.0161,-0.0161 0.0483,0.0483 0.0114,0.0114 0.0369,-0.0114 0.0483,0 0.0241,0.0241 -0.0241,0.12071 0,0.14486 0.0114,0.0114 0.0369,-0.0114 0.0483,0 0.0114,0.0114 0,0.0322 0,0.0483 0.0161,0 0.0369,-0.0114 0.0483,0 0.0114,0.0114 -0.0114,0.0369 0,0.0483 0.0114,0.0114 0.0369,-0.0114 0.0483,0 0.0114,0.0114 -0.0114,0.0369 0,0.0483 0.0114,0.0114 0.0369,-0.0114 0.0483,0 0.0227,0.0227 -0.0227,0.0738 0,0.0966 0.0114,0.0114 0.0369,-0.0114 0.0483,0 0.0227,0.0227 -0.0227,0.0738 0,0.0966 0.0644,0.0643 0.0483,-0.0805 0.0483,0.0483 0,0.16095 0,0.32191 0,0.48285 0,0.0161 0,0.0322 0,0.0483 0,0.0161 0.0144,0.0411 0,0.0483 -0.0288,0.0144 -0.0644,0 -0.0966,0 -0.0161,0 -0.0369,-0.0114 -0.0483,0 -0.0114,0.0114 0.0114,0.0369 0,0.0483 -0.0241,0.0241 -0.12071,-0.0241 -0.14486,0 -0.0114,0.0114 0.0114,0.0369 0,0.0483 -0.0114,0.0114 -0.0369,-0.0114 -0.0483,0 -0.0114,0.0114 0.0114,0.0369 0,0.0483 -0.0241,0.0241 -0.12072,-0.0241 -0.14486,0 -0.0114,0.0114 0.0114,0.0369 0,0.0483 -0.0114,0.0114 -0.0339,-0.007 -0.0483,0 -0.0204,0.0101 -0.028,0.0381 -0.0483,0.0483 -0.0288,0.0144 -0.0738,-0.0227 -0.0966,0 -0.0114,0.0114 0.0114,0.0369 0,0.0483 -0.0116,0.0116 -0.18152,-0.0116 -0.19314,0 -0.0114,0.0114 0.0114,0.0369 0,0.0483 -0.0227,0.0227 -0.0738,-0.0227 -0.0966,0 -0.0114,0.0114 0.0114,0.0369 0,0.0483 -0.0241,0.0241 -0.12071,-0.0241 -0.14486,0 -0.0114,0.0114 0,0.0322 0,0.0483 -0.0161,0 -0.0369,-0.0114 -0.0483,0 -0.0114,0.0114 0.0114,0.0369 0,0.0483 -0.0241,0.0241 -0.12071,-0.0241 -0.14485,0 -0.0114,0.0114 0.0114,0.0369 0,0.0483 -0.0241,0.0241 -0.12072,-0.0241 -0.14486,0 -0.0114,0.0114 0.0114,0.0369 0,0.0483 -0.0114,0.0114 -0.0369,-0.0114 -0.0483,0 -0.0114,0.0114 0.0114,0.0369 0,0.0483 -0.0227,0.0227 -0.0738,-0.0227 -0.0966,0 -0.0114,0.0114 0.0114,0.0369 0,0.0483 -0.0114,0.0114 -0.0322,0 -0.0483,0 -0.0161,0 -0.0322,0 -0.0483,0 -0.12876,0 0.0161,-0.0161 -0.0483,0.0483 -0.0114,0.0114 -0.0322,0 -0.0483,0 -0.0161,0 -0.0369,-0.0114 -0.0483,0 -0.0114,0.0114 0.0114,0.0369 0,0.0483 -0.0116,0.0116 -0.18153,-0.0116 -0.19315,0 -0.0644,0.0644 0.0805,0.0483 -0.0483,0.0483 -0.0128,0 -0.14087,0.008 -0.14485,0 0,-0.27361 0.0322,-0.0161 -0.0483,-0.0966 -0.0114,-0.0114 0,-0.0322 0,-0.0483 0,-0.0322 0.0144,-0.0678 0,-0.0966 -0.007,-0.0144 -0.0369,0.0114 -0.0483,0 -0.0114,-0.0114 0.0114,-0.0369 0,-0.0483 -0.0116,-0.0116 -0.18152,0.0116 -0.19314,0 -0.002,-0.002 0,-0.21866 0,-0.24143 0,-0.0161 -0.0144,-0.0411 0,-0.0483 0.0205,-0.0103 0.20095,0 0.24142,0 0.20924,0 0.41848,0 0.62771,0 0.0128,0 0.14087,-0.008 0.14486,0 0.0144,0.0288 -0.0144,0.0678 0,0.0966 0.0144,0.0288 0.0738,-0.0227 0.0966,0 0.0114,0.0114 -0.0114,0.0369 0,0.0483 0.0241,0.0241 0.12071,-0.0241 0.14486,0 0.0114,0.0114 -0.0114,0.0369 0,0.0483 0.0241,0.0241 0.12071,-0.0241 0.14485,0 0.0114,0.0114 -0.0114,0.0369 0,0.0483 0.0227,0.0227 0.0678,-0.0144 0.0966,0 0.0203,0.0101 0.028,0.0381 0.0483,0.0483 0.0288,0.0144 0.0738,-0.0227 0.0966,0 0.0114,0.0114 -0.0114,0.0369 0,0.0483 0.0116,0.0116 0.18152,-0.0116 0.19314,0 0.0114,0.0114 -0.0114,0.0369 0,0.0483 0.0114,0.0114 0.0369,-0.0114 0.0483,0 0.0114,0.0114 -0.0114,0.0369 0,0.0483 0.0227,0.0227 0.0738,-0.0227 0.0966,0 0.0114,0.0114 -0.0114,0.0369 0,0.0483 0.0227,0.0227 0.0738,-0.0227 0.0966,0 0.0114,0.0114 -0.0114,0.0369 0,0.0483 0.0227,0.0227 0.0738,-0.0227 0.0966,0 0.0114,0.0114 -0.0114,0.0369 0,0.0483 0.12876,0 -0.0161,-0.0161 0.0483,0.0483 0.0227,0.0227 0.0738,-0.0227 0.0966,0 0.0114,0.0114 -0.0114,0.0369 0,0.0483 0.0114,0.0114 0.0369,-0.0114 0.0483,0 0.0114,0.0114 0,0.0322 0,0.0483 0.0161,0 0.0369,-0.0114 0.0483,0 0.0114,0.0114 -0.0114,0.0369 0,0.0483 0.0114,0.0114 0.0369,-0.0114 0.0483,0 0.0114,0.0114 -0.0114,0.0369 0,0.0483 0.0114,0.0114 0.0369,-0.0114 0.0483,0 0.0227,0.0227 -0.0227,0.0738 0,0.0966 0.0114,0.0114 0.0369,-0.0114 0.0483,0 0.0241,0.0241 -0.0241,0.12071 0,0.14485 0.0114,0.0114 0.0369,-0.0114 0.0483,0 0.0114,0.0114 0,0.0322 0,0.0483 0,0.0805 0,0.16095 0,0.24143 0,0.0161 0.0144,0.0411 0,0.0483 -0.0288,0.0144 -0.0738,-0.0227 -0.0966,0 -0.0241,0.0241 0.0241,0.12071 0,0.14486 -0.0114,0.0114 -0.0369,-0.0114 -0.0483,0 -0.0114,0.0114 0.0114,0.0369 0,0.0483 -0.0114,0.0114 -0.0369,-0.0114 -0.0483,0 -0.0114,0.0114 0.0114,0.0369 0,0.0483 -0.0114,0.0114 -0.0369,-0.0114 -0.0483,0 -0.0114,0.0114 0.0114,0.0369 0,0.0483 -0.0114,0.0114 -0.0369,-0.0114 -0.0483,0 -0.0114,0.0114 0.0114,0.0369 0,0.0483 -0.0114,0.0114 -0.0369,-0.0114 -0.0483,0 -0.0227,0.0227 0.0227,0.0738 0,0.0966 -0.0114,0.0114 -0.0322,0 -0.0483,0 0,0.0161 0.0114,0.0369 0,0.0483 -0.0114,0.0114 -0.0369,-0.0114 -0.0483,0 -0.0114,0.0114 0.0114,0.0369 0,0.0483 -0.0227,0.0227 -0.0738,-0.0227 -0.0966,0 -0.0114,0.0114 0.0114,0.0369 0,0.0483 -0.0227,0.0227 -0.0678,-0.0144 -0.0966,0 -0.0203,0.0101 -0.0279,0.0381 -0.0483,0.0483 -0.0144,0.007 -0.0339,-0.007 -0.0483,0 -0.0203,0.0101 -0.028,0.0381 -0.0483,0.0483 -0.0144,0.007 -0.0369,-0.0114 -0.0483,0 -0.0114,0.0114 0.0114,0.0369 0,0.0483 -0.0227,0.0227 -0.0738,-0.0227 -0.0966,0 -0.0114,0.0114 0.0114,0.0369 0,0.0483 -0.0116,0.0116 -0.18152,-0.0116 -0.19314,0 -0.0114,0.0114 0.0114,0.0369 0,0.0483 -0.0114,0.0114 -0.0322,0 -0.0483,0 -0.0161,0 -0.0322,0 -0.0483,0 -0.14486,0 -0.28971,0 -0.43457,0 -0.0128,0 -0.14087,0.008 -0.14485,0 -0.0144,-0.0288 0.0144,-0.0678 0,-0.0966 -0.004,-0.008 -0.13202,0 -0.14486,0 -0.12877,0 0.0161,0.0161 -0.0483,-0.0483 -0.0116,-0.0116 -0.19313,0.011 -0.19313,0 0,-0.0161 0.0644,0 0.0483,0 -0.0322,0 -0.0678,0.0144 -0.0966,0 -0.0144,-0.007 0.0114,-0.0369 0,-0.0483 -0.002,-0.002 -0.21867,0 -0.24143,0 -0.0161,0 -0.0322,0 -0.0483,0 -0.0161,0 -0.0411,-0.0144 -0.0483,0 -0.0216,0.0432 0,0.0966 0,0.14486 0,0.0161 -0.0144,0.0411 0,0.0483 0.0288,0.0144 0.0643,0 0.0966,0 0.0161,0 0.0369,-0.0114 0.0483,0 0.0322,0.0322 -0.0322,0.0644 0,0.0966 0.0114,0.0114 0.0369,-0.0114 0.0483,0 0.0114,0.0114 -0.0114,0.0369 0,0.0483 0.0114,0.0114 0.0369,-0.0114 0.0483,0 0.0114,0.0114 0,0.0322 0,0.0483 0,0.0161 0,0.0322 0,0.0483 0,0.23284 0,0.52349 0,0.86913 0,0.0966 0,0.19314 0,0.28971 0,0.0161 0.0144,0.0411 0,0.0483 -0.0288,0.0144 -0.0678,-0.0144 -0.0966,0 -0.0144,0.007 0,0.0322 0,0.0483 0,0.0643 0,0.12876 0,0.19313"
         id="path10365"
         inkscape:connector-curvature="0"
         inkscape:export-filename="/home/igorbb/docker/data/keras/course/regression/resources/mse.png"
         inkscape:export-xdpi="200"
         inkscape:export-ydpi="200" />
      <path
         style="fill:none;fill-rule:evenodd;stroke:#ff0000;stroke-width:0.25005534px;stroke-linecap:butt;stroke-linejoin:miter;stroke-opacity:1"
         d="m 169.95561,339.60329 c 0,0.11015 0.0126,0.22237 0,0.33036 -0.005,0.0381 -0.0381,0.0477 -0.0483,0.0826 -0.006,0.0217 0,0.28716 0,0.33035 0,0.16522 0,0.33036 0,0.49551 0,0.0275 0.0114,0.0631 0,0.0826 -0.0114,0.0195 -0.0369,-0.0195 -0.0483,0 -0.0114,0.0195 0,0.0551 0,0.0826 0,0.0275 0,0.0551 0,0.0826 0,0.22024 0,0.44047 0,0.66068 0,0.13769 0,0.27531 0,0.41294 0,0.0275 -0.0144,0.0703 0,0.0826 0.0288,0.0246 0.0738,-0.0388 0.0966,0 0.0115,0.0197 0,0.27698 0,0.33034 0,0.0275 0,0.10998 0,0.0826 0,-0.0551 -0.0144,-0.11597 0,-0.16523 0.0144,-0.0493 0.0678,0.0246 0.0966,0 0.0204,-0.0173 0.028,-0.0652 0.0483,-0.0826 0.0283,-0.0241 0.20585,0.0154 0.24143,0 0.22193,-0.0949 0.011,-0.0826 0.14485,-0.0826 0.0177,0 0.19121,0.003 0.19315,0 0.0114,-0.0195 -0.0114,-0.0631 0,-0.0826 0.0114,-0.0195 0.0322,0 0.0483,0 0.0966,0 0.19315,0 0.28972,0 0.0161,0 0.0322,0 0.0483,0 0.0161,0 0.0411,-0.0246 0.0483,0 0.0144,0.0493 -0.0144,0.11579 0,0.16522 0.007,0.0246 0.0322,0 0.0483,0 0.0805,0 0.16096,0 0.24143,0 0.11324,0 -0.0227,-0.0195 0.0966,0.0826 0.0288,0.0246 0.0738,-0.0388 0.0966,0 0.0114,0.0195 -0.0114,0.0631 0,0.0826 0.017,0.0291 0.20807,-0.0286 0.24142,0 0.0204,0.0173 0.028,0.0652 0.0483,0.0826 0.0144,0.012 0.0369,-0.0195 0.0483,0 0.0114,0.0195 -0.0114,0.0631 0,0.0826 0.0114,0.0195 0.0322,0 0.0483,0 0.0322,0 0.0677,-0.0246 0.0966,0 0.0144,0.012 -0.0114,0.0631 0,0.0826 0.0227,0.0388 0.0738,-0.0388 0.0966,0 0.0114,0.0195 -0.0114,0.0631 0,0.0826 0.0114,0.0195 0.0369,-0.0195 0.0483,0 0.01,0.0171 -0.005,0.32595 0,0.33036 0.0288,0.0246 0.0644,0 0.0966,0 0.0161,0 0.0369,-0.0195 0.0483,0 0.0241,0.0412 -0.0241,0.20646 0,0.24775 0.0114,0.0195 0.0369,-0.0195 0.0483,0 0.0322,0.0551 -0.0322,0.11015 0,0.16522 0.12876,0 -0.0161,-0.0275 0.0483,0.0826 0.0114,0.0195 0.0369,-0.0195 0.0483,0 0.0227,0.0388 -0.0227,0.12622 0,0.16522 0.0114,0.0195 0.0369,-0.0195 0.0483,0 0.0322,0.0551 -0.0322,0.11015 0,0.16522 0.0114,0.0195 0.0369,-0.0195 0.0483,0 0.0227,0.0388 -0.0227,0.12623 0,0.16522 0.0114,0.0195 0.0369,-0.0195 0.0483,0 0.0241,0.0412 -0.0241,0.20648 0,0.24777 0.0114,0.0195 0.0369,-0.0195 0.0483,0 0.0114,0.0195 0,0.0551 0,0.0826 0,0.0388 -0.002,0.40919 0,0.41294 0.0114,0.0195 0.0369,-0.0195 0.0483,0 0.002,0.003 0,0.22774 0,0.24777 0,0.02 -0.002,0.24509 0,0.24774 0.0114,0.0195 0.0369,-0.0195 0.0483,0 0.0114,0.0195 0,0.0551 0,0.0826 0,0.0275 0,0.0551 0,0.0826 0,0.0275 0,0.0551 0,0.0826 0,0.0275 0.0144,0.0703 0,0.0826 -0.0288,0.0246 -0.0738,-0.0388 -0.0966,0 -0.0227,0.0388 0.0227,0.12623 0,0.16522 -0.0227,0.0388 -0.0678,-0.0246 -0.0966,0 -0.0144,0.012 0.0114,0.0631 0,0.0826 -0.0114,0.0195 -0.0369,-0.0195 -0.0483,0 -0.0114,0.0195 0.0114,0.0631 0,0.0826 -0.0114,0.0195 -0.0339,-0.012 -0.0483,0 -0.0203,0.0173 -0.028,0.0652 -0.0483,0.0826 -0.0144,0.012 -0.0369,-0.0195 -0.0483,0 -0.0114,0.0195 0.0114,0.0631 0,0.0826 -0.0114,0.0195 -0.0369,-0.0195 -0.0483,0 -0.0114,0.0195 0.0114,0.0631 0,0.0826 -0.0114,0.0195 -0.0369,-0.0195 -0.0483,0 -0.0114,0.0195 0.0114,0.0631 0,0.0826 -0.0114,0.0195 -0.0369,-0.0195 -0.0483,0 -0.0114,0.0195 0,0.0551 0,0.0826 -0.0161,0 -0.0369,-0.0195 -0.0483,0 -0.0114,0.0195 0.0114,0.0631 0,0.0826 -0.0241,0.0412 -0.12071,-0.0412 -0.14486,0 -0.0114,0.0195 0.0114,0.0631 0,0.0826 -0.0161,0 -0.0322,0 -0.0483,0 -0.0161,0 -0.0369,-0.0195 -0.0483,0 -0.0114,0.0195 0.0114,0.0631 0,0.0826 -0.0114,0.0195 -0.0369,-0.0195 -0.0483,0 -0.0114,0.0195 0,0.0551 0,0.0826 -0.0161,0 -0.0369,-0.0195 -0.0483,0 -0.0114,0.0195 0.0114,0.0631 0,0.0826 -0.0227,0.0388 -0.0738,-0.0388 -0.0966,0 -0.0114,0.0195 0.0114,0.0631 0,0.0826 -0.002,0.003 -0.13315,0 -0.14486,0 -0.24143,0 -0.48286,0 -0.72428,0 -0.14485,0 -0.28972,0 -0.43457,0 -0.012,0 -0.18917,0.003 -0.19314,0 -0.0379,-0.0433 -0.0587,-0.12195 -0.0966,-0.16522 -0.0223,-0.0253 -0.17919,0.024 -0.19314,0 -0.0227,-0.0388 0.0227,-0.12623 0,-0.16522 -0.0114,-0.0195 -0.0369,0.0195 -0.0483,0 -0.0241,-0.0412 0.0241,-0.20646 0,-0.24777 -0.0114,-0.0195 -0.0369,0.0195 -0.0483,0 -0.002,-0.003 0,-0.37399 0,-0.41294 0,-0.0219 -0.008,-0.24094 0,-0.24775 0.0288,-0.0246 0.0678,0.0246 0.0966,0 0.0144,-0.012 -0.0114,-0.0631 0,-0.0826 0.12876,0 -0.0161,0.0275 0.0483,-0.0826 0.0114,-0.0195 0.0322,0 0.0483,0 0.0161,0 0.0322,0 0.0483,0 0.14485,0 0.28971,0 0.43456,0 0.0128,0 0.14087,-0.0137 0.14486,0 0,0.468 -0.0322,0.0275 0.0483,0.16522 0.0114,0.0195 -0.0114,0.0631 0,0.0826 0.015,0.0256 0.22646,-0.0257 0.24142,0 0.0114,0.0195 -0.0114,0.0631 0,0.0826 0.0227,0.0388 0.0738,-0.0388 0.0966,0 0.0114,0.0195 -0.0114,0.0631 0,0.0826 0.0227,0.0388 0.0738,-0.0388 0.0966,0 0.0114,0.0195 -0.0114,0.0631 0,0.0826 0.0116,0.0198 0.18152,-0.0198 0.19314,0 0.0114,0.0195 -0.0114,0.0631 0,0.0826 0.0227,0.0388 0.0738,-0.0388 0.0966,0 0.0114,0.0195 -0.0114,0.0631 0,0.0826 0.12876,0 -0.0161,-0.0275 0.0483,0.0826 0.0227,0.0388 0.0738,-0.0388 0.0966,0 0.0999,0.17086 -0.15266,-0.007 0.0483,0.16522 0.0191,0.0171 0.13499,-0.0171 0.14485,0 0.0114,0.0195 -0.0114,0.0631 0,0.0826 0.0241,0.0412 0.12072,-0.0412 0.14487,0 0.0114,0.0195 -0.0144,0.0703 0,0.0826 0.0312,0.0267 0.1758,-0.0298 0.19314,0 0.0114,0.0195 -0.0114,0.0631 0,0.0826 0.0114,0.0195 0.0369,-0.0195 0.0483,0 0.0114,0.0195 -0.0114,0.0631 0,0.0826 0.0241,0.0412 0.12072,-0.0412 0.14486,0 0.0114,0.0195 -0.0114,0.0631 0,0.0826 0.0114,0.0195 0.0369,-0.0195 0.0483,0 0.0114,0.0195 -0.0114,0.0631 0,0.0826 0.0114,0.0195 0.0322,0 0.0483,0 0,0.0275 -0.0114,0.0631 0,0.0826 0.0114,0.0195 0.0369,-0.0195 0.0483,0 0.0227,0.0388 -0.0227,0.12623 0,0.16522 0.12876,0 -0.0161,-0.0275 0.0483,0.0826 0.0114,0.0195 0.0369,-0.0195 0.0483,0 0.0241,0.0412 -0.0241,0.20646 0,0.24777 0.0114,0.0195 0.0369,-0.0195 0.0483,0 0.0114,0.0195 0,0.0551 0,0.0826 0.0161,0 0.0369,-0.0195 0.0483,0 0.0114,0.0195 -0.0114,0.0631 0,0.0826 0.0114,0.0195 0.0369,-0.0195 0.0483,0 0.0114,0.0195 -0.0114,0.0631 0,0.0826 0.0114,0.0195 0.0369,-0.0195 0.0483,0 0.0227,0.0388 -0.0227,0.12623 0,0.16523 0.0114,0.0195 0.0369,-0.0195 0.0483,0 0.0227,0.0388 -0.0227,0.12622 0,0.16522 0.0644,0.10998 0.0483,-0.13769 0.0483,0.0826 0,0.27529 0,0.55059 0,0.82586 0,0.0275 0,0.0551 0,0.0826 0,0.0275 0.0144,0.0703 0,0.0826 -0.0288,0.0246 -0.0644,0 -0.0966,0 -0.0161,0 -0.0369,-0.0195 -0.0483,0 -0.0114,0.0195 0.0114,0.0631 0,0.0826 -0.0241,0.0412 -0.12071,-0.0412 -0.14486,0 -0.0114,0.0195 0.0114,0.0631 0,0.0826 -0.0114,0.0195 -0.0369,-0.0195 -0.0483,0 -0.0114,0.0195 0.0114,0.0631 0,0.0826 -0.0241,0.0412 -0.12072,-0.0412 -0.14486,0 -0.0114,0.0195 0.0114,0.0631 0,0.0826 -0.0114,0.0195 -0.0339,-0.012 -0.0483,0 -0.0204,0.0173 -0.028,0.0652 -0.0483,0.0826 -0.0288,0.0246 -0.0738,-0.0388 -0.0966,0 -0.0114,0.0195 0.0114,0.0631 0,0.0826 -0.0116,0.0198 -0.18152,-0.0198 -0.19314,0 -0.0114,0.0195 0.0114,0.0631 0,0.0826 -0.0227,0.0388 -0.0738,-0.0388 -0.0966,0 -0.0114,0.0195 0.0114,0.0631 0,0.0826 -0.0241,0.0412 -0.12071,-0.0412 -0.14486,0 -0.0114,0.0195 0,0.0551 0,0.0826 -0.0161,0 -0.0369,-0.0195 -0.0483,0 -0.0114,0.0195 0.0114,0.0631 0,0.0826 -0.0241,0.0412 -0.12071,-0.0412 -0.14485,0 -0.0114,0.0195 0.0114,0.0631 0,0.0826 -0.0241,0.0412 -0.12072,-0.0412 -0.14486,0 -0.0114,0.0195 0.0114,0.0631 0,0.0826 -0.0114,0.0195 -0.0369,-0.0195 -0.0483,0 -0.0114,0.0195 0.0114,0.0631 0,0.0826 -0.0227,0.0388 -0.0738,-0.0388 -0.0966,0 -0.0114,0.0195 0.0114,0.0631 0,0.0826 -0.0114,0.0195 -0.0322,0 -0.0483,0 -0.0161,0 -0.0322,0 -0.0483,0 -0.12876,0 0.0161,-0.0275 -0.0483,0.0826 -0.0114,0.0195 -0.0322,0 -0.0483,0 -0.0161,0 -0.0369,-0.0195 -0.0483,0 -0.0114,0.0195 0.0114,0.0631 0,0.0826 -0.0116,0.0198 -0.18153,-0.0198 -0.19315,0 -0.0644,0.11015 0.0805,0.0826 -0.0483,0.0826 -0.0128,0 -0.14087,0.0137 -0.14485,0 0,-0.46798 0.0322,-0.0275 -0.0483,-0.16522 -0.0114,-0.0195 0,-0.0551 0,-0.0826 0,-0.0551 0.0144,-0.11596 0,-0.16522 -0.007,-0.0246 -0.0369,0.0195 -0.0483,0 -0.0114,-0.0195 0.0114,-0.0631 0,-0.0826 -0.0116,-0.0198 -0.18152,0.0198 -0.19314,0 -0.002,-0.003 0,-0.37399 0,-0.41294 0,-0.0275 -0.0144,-0.0703 0,-0.0826 0.0205,-0.0176 0.20095,0 0.24142,0 0.20924,0 0.41848,0 0.62771,0 0.0128,0 0.14087,-0.0137 0.14486,0 0.0144,0.0493 -0.0144,0.11596 0,0.16522 0.0144,0.0493 0.0738,-0.0388 0.0966,0 0.0114,0.0195 -0.0114,0.0631 0,0.0826 0.0241,0.0412 0.12071,-0.0412 0.14486,0 0.0114,0.0195 -0.0114,0.0631 0,0.0826 0.0241,0.0412 0.12071,-0.0412 0.14485,0 0.0114,0.0195 -0.0114,0.0631 0,0.0826 0.0227,0.0388 0.0678,-0.0246 0.0966,0 0.0203,0.0173 0.028,0.0652 0.0483,0.0826 0.0288,0.0246 0.0738,-0.0388 0.0966,0 0.0114,0.0195 -0.0114,0.0631 0,0.0826 0.0116,0.0198 0.18152,-0.0198 0.19314,0 0.0114,0.0195 -0.0114,0.0631 0,0.0826 0.0114,0.0195 0.0369,-0.0195 0.0483,0 0.0114,0.0195 -0.0114,0.0631 0,0.0826 0.0227,0.0388 0.0738,-0.0388 0.0966,0 0.0114,0.0195 -0.0114,0.0631 0,0.0826 0.0227,0.0388 0.0738,-0.0388 0.0966,0 0.0114,0.0195 -0.0114,0.0631 0,0.0826 0.0227,0.0388 0.0738,-0.0388 0.0966,0 0.0114,0.0195 -0.0114,0.0631 0,0.0826 0.12876,0 -0.0161,-0.0275 0.0483,0.0826 0.0227,0.0388 0.0738,-0.0388 0.0966,0 0.0114,0.0195 -0.0114,0.0631 0,0.0826 0.0114,0.0195 0.0369,-0.0195 0.0483,0 0.0114,0.0195 0,0.0551 0,0.0826 0.0161,0 0.0369,-0.0195 0.0483,0 0.0114,0.0195 -0.0114,0.0631 0,0.0826 0.0114,0.0195 0.0369,-0.0195 0.0483,0 0.0114,0.0195 -0.0114,0.0631 0,0.0826 0.0114,0.0195 0.0369,-0.0195 0.0483,0 0.0227,0.0388 -0.0227,0.12622 0,0.16522 0.0114,0.0195 0.0369,-0.0195 0.0483,0 0.0241,0.0412 -0.0241,0.20646 0,0.24775 0.0114,0.0195 0.0369,-0.0195 0.0483,0 0.0114,0.0195 0,0.0551 0,0.0826 0,0.13769 0,0.27529 0,0.41294 0,0.0275 0.0144,0.0703 0,0.0826 -0.0288,0.0246 -0.0738,-0.0388 -0.0966,0 -0.0241,0.0412 0.0241,0.20646 0,0.24777 -0.0114,0.0195 -0.0369,-0.0195 -0.0483,0 -0.0114,0.0195 0.0114,0.0631 0,0.0826 -0.0114,0.0195 -0.0369,-0.0195 -0.0483,0 -0.0114,0.0195 0.0114,0.0631 0,0.0826 -0.0114,0.0195 -0.0369,-0.0195 -0.0483,0 -0.0114,0.0195 0.0114,0.0631 0,0.0826 -0.0114,0.0195 -0.0369,-0.0195 -0.0483,0 -0.0114,0.0195 0.0114,0.0631 0,0.0826 -0.0114,0.0195 -0.0369,-0.0195 -0.0483,0 -0.0227,0.0388 0.0227,0.12623 0,0.16522 -0.0114,0.0195 -0.0322,0 -0.0483,0 0,0.0275 0.0114,0.0631 0,0.0826 -0.0114,0.0195 -0.0369,-0.0195 -0.0483,0 -0.0114,0.0195 0.0114,0.0631 0,0.0826 -0.0227,0.0388 -0.0738,-0.0388 -0.0966,0 -0.0114,0.0195 0.0114,0.0631 0,0.0826 -0.0227,0.0388 -0.0678,-0.0246 -0.0966,0 -0.0203,0.0173 -0.0279,0.0652 -0.0483,0.0826 -0.0144,0.012 -0.0339,-0.012 -0.0483,0 -0.0203,0.0173 -0.028,0.0652 -0.0483,0.0826 -0.0144,0.012 -0.0369,-0.0195 -0.0483,0 -0.0114,0.0195 0.0114,0.0631 0,0.0826 -0.0227,0.0388 -0.0738,-0.0388 -0.0966,0 -0.0114,0.0195 0.0114,0.0631 0,0.0826 -0.0116,0.0198 -0.18152,-0.0198 -0.19314,0 -0.0114,0.0195 0.0114,0.0631 0,0.0826 -0.0114,0.0195 -0.0322,0 -0.0483,0 -0.0161,0 -0.0322,0 -0.0483,0 -0.14486,0 -0.28971,0 -0.43457,0 -0.0128,0 -0.14087,0.0137 -0.14485,0 -0.0144,-0.0493 0.0144,-0.11597 0,-0.16523 -0.004,-0.0137 -0.13202,0 -0.14486,0 -0.12877,0 0.0161,0.0275 -0.0483,-0.0826 -0.0116,-0.0198 -0.19313,0.0188 -0.19313,0 0,-0.0275 0.0644,0 0.0483,0 -0.0322,0 -0.0678,0.0246 -0.0966,0 -0.0144,-0.012 0.0114,-0.0631 0,-0.0826 -0.002,-0.003 -0.21867,0 -0.24143,0 -0.0161,0 -0.0322,0 -0.0483,0 -0.0161,0 -0.0411,-0.0246 -0.0483,0 -0.0216,0.0739 0,0.16522 0,0.24777 0,0.0275 -0.0144,0.0703 0,0.0826 0.0288,0.0246 0.0643,0 0.0966,0 0.0161,0 0.0369,-0.0195 0.0483,0 0.0322,0.0551 -0.0322,0.11015 0,0.16522 0.0114,0.0195 0.0369,-0.0195 0.0483,0 0.0114,0.0195 -0.0114,0.0631 0,0.0826 0.0114,0.0195 0.0369,-0.0195 0.0483,0 0.0114,0.0195 0,0.0551 0,0.0826 0,0.0275 0,0.0551 0,0.0826 0,0.39824 0,0.89536 0,1.48654 0,0.16522 0,0.33034 0,0.49552 0,0.0275 0.0144,0.0703 0,0.0826 -0.0288,0.0246 -0.0678,-0.0246 -0.0966,0 -0.0144,0.012 0,0.0551 0,0.0826 0,0.10998 0,0.22023 0,0.33033"
         id="path10365-2"
         inkscape:connector-curvature="0"
         inkscape:export-filename="/home/igorbb/docker/data/keras/course/regression/resources/mse.png"
         inkscape:export-xdpi="200"
         inkscape:export-ydpi="200" />
      <path
         style="fill:none;fill-rule:evenodd;stroke:#ff0000;stroke-width:0.19120067px;stroke-linecap:butt;stroke-linejoin:miter;stroke-opacity:1"
         d="m 122.27704,373.88899 c 0,0.0644 0.0126,0.13001 0,0.19315 -0.005,0.0223 -0.0381,0.0279 -0.0483,0.0483 -0.006,0.0127 0,0.16789 0,0.19314 0,0.0966 0,0.19315 0,0.28971 0,0.0161 0.0114,0.0369 0,0.0483 -0.0114,0.0114 -0.0369,-0.0114 -0.0483,0 -0.0114,0.0114 0,0.0322 0,0.0483 0,0.0161 0,0.0322 0,0.0483 0,0.12877 0,0.25753 0,0.38628 0,0.0805 0,0.16096 0,0.24143 0,0.0161 -0.0144,0.0411 0,0.0483 0.0288,0.0144 0.0738,-0.0227 0.0966,0 0.0115,0.0115 0,0.16194 0,0.19314 0,0.0161 0,0.0643 0,0.0483 0,-0.0322 -0.0144,-0.0678 0,-0.0966 0.0144,-0.0288 0.0678,0.0144 0.0966,0 0.0204,-0.0101 0.028,-0.0381 0.0483,-0.0483 0.0283,-0.0141 0.20585,0.009 0.24143,0 0.22193,-0.0555 0.011,-0.0483 0.14485,-0.0483 0.0177,0 0.19121,0.002 0.19315,0 0.0114,-0.0114 -0.0114,-0.0369 0,-0.0483 0.0114,-0.0114 0.0322,0 0.0483,0 0.0966,0 0.19315,0 0.28972,0 0.0161,0 0.0322,0 0.0483,0 0.0161,0 0.0411,-0.0144 0.0483,0 0.0144,0.0288 -0.0144,0.0677 0,0.0966 0.007,0.0144 0.0322,0 0.0483,0 0.0805,0 0.16096,0 0.24143,0 0.11324,0 -0.0227,-0.0114 0.0966,0.0483 0.0288,0.0144 0.0738,-0.0227 0.0966,0 0.0114,0.0114 -0.0114,0.0369 0,0.0483 0.017,0.017 0.20807,-0.0167 0.24142,0 0.0204,0.0101 0.028,0.0381 0.0483,0.0483 0.0144,0.007 0.0369,-0.0114 0.0483,0 0.0114,0.0114 -0.0114,0.0369 0,0.0483 0.0114,0.0114 0.0322,0 0.0483,0 0.0322,0 0.0677,-0.0144 0.0966,0 0.0144,0.007 -0.0114,0.0369 0,0.0483 0.0227,0.0227 0.0738,-0.0227 0.0966,0 0.0114,0.0114 -0.0114,0.0369 0,0.0483 0.0114,0.0114 0.0369,-0.0114 0.0483,0 0.01,0.01 -0.005,0.19057 0,0.19315 0.0288,0.0144 0.0644,0 0.0966,0 0.0161,0 0.0369,-0.0114 0.0483,0 0.0241,0.0241 -0.0241,0.12071 0,0.14485 0.0114,0.0114 0.0369,-0.0114 0.0483,0 0.0322,0.0322 -0.0322,0.0644 0,0.0966 0.12876,0 -0.0161,-0.0161 0.0483,0.0483 0.0114,0.0114 0.0369,-0.0114 0.0483,0 0.0227,0.0227 -0.0227,0.0738 0,0.0966 0.0114,0.0114 0.0369,-0.0114 0.0483,0 0.0322,0.0322 -0.0322,0.0644 0,0.0966 0.0114,0.0114 0.0369,-0.0114 0.0483,0 0.0227,0.0227 -0.0227,0.0738 0,0.0966 0.0114,0.0114 0.0369,-0.0114 0.0483,0 0.0241,0.0241 -0.0241,0.12072 0,0.14486 0.0114,0.0114 0.0369,-0.0114 0.0483,0 0.0114,0.0114 0,0.0322 0,0.0483 0,0.0227 -0.002,0.23924 0,0.24143 0.0114,0.0114 0.0369,-0.0114 0.0483,0 0.002,0.002 0,0.13315 0,0.14486 0,0.0117 -0.002,0.1433 0,0.14485 0.0114,0.0114 0.0369,-0.0114 0.0483,0 0.0114,0.0114 0,0.0322 0,0.0483 0,0.0161 0,0.0322 0,0.0483 0,0.0161 0,0.0322 0,0.0483 0,0.0161 0.0144,0.0411 0,0.0483 -0.0288,0.0144 -0.0738,-0.0227 -0.0966,0 -0.0227,0.0227 0.0227,0.0738 0,0.0966 -0.0227,0.0227 -0.0678,-0.0144 -0.0966,0 -0.0144,0.007 0.0114,0.0369 0,0.0483 -0.0114,0.0114 -0.0369,-0.0114 -0.0483,0 -0.0114,0.0114 0.0114,0.0369 0,0.0483 -0.0114,0.0114 -0.0339,-0.007 -0.0483,0 -0.0203,0.0101 -0.028,0.0381 -0.0483,0.0483 -0.0144,0.007 -0.0369,-0.0114 -0.0483,0 -0.0114,0.0114 0.0114,0.0369 0,0.0483 -0.0114,0.0114 -0.0369,-0.0114 -0.0483,0 -0.0114,0.0114 0.0114,0.0369 0,0.0483 -0.0114,0.0114 -0.0369,-0.0114 -0.0483,0 -0.0114,0.0114 0.0114,0.0369 0,0.0483 -0.0114,0.0114 -0.0369,-0.0114 -0.0483,0 -0.0114,0.0114 0,0.0322 0,0.0483 -0.0161,0 -0.0369,-0.0114 -0.0483,0 -0.0114,0.0114 0.0114,0.0369 0,0.0483 -0.0241,0.0241 -0.12071,-0.0241 -0.14486,0 -0.0114,0.0114 0.0114,0.0369 0,0.0483 -0.0161,0 -0.0322,0 -0.0483,0 -0.0161,0 -0.0369,-0.0114 -0.0483,0 -0.0114,0.0114 0.0114,0.0369 0,0.0483 -0.0114,0.0114 -0.0369,-0.0114 -0.0483,0 -0.0114,0.0114 0,0.0322 0,0.0483 -0.0161,0 -0.0369,-0.0114 -0.0483,0 -0.0114,0.0114 0.0114,0.0369 0,0.0483 -0.0227,0.0227 -0.0738,-0.0227 -0.0966,0 -0.0114,0.0114 0.0114,0.0369 0,0.0483 -0.002,0.002 -0.13315,0 -0.14486,0 -0.24143,0 -0.48286,0 -0.72428,0 -0.14485,0 -0.28972,0 -0.43457,0 -0.012,0 -0.18917,0.002 -0.19314,0 -0.0379,-0.0253 -0.0587,-0.0713 -0.0966,-0.0966 -0.0223,-0.0148 -0.17919,0.014 -0.19314,0 -0.0227,-0.0227 0.0227,-0.0738 0,-0.0966 -0.0114,-0.0114 -0.0369,0.0114 -0.0483,0 -0.0241,-0.0241 0.0241,-0.12071 0,-0.14486 -0.0114,-0.0114 -0.0369,0.0114 -0.0483,0 -0.002,-0.002 0,-0.21866 0,-0.24143 0,-0.0128 -0.008,-0.14087 0,-0.14485 0.0288,-0.0144 0.0678,0.0144 0.0966,0 0.0144,-0.007 -0.0114,-0.0369 0,-0.0483 0.12876,0 -0.0161,0.0161 0.0483,-0.0483 0.0114,-0.0114 0.0322,0 0.0483,0 0.0161,0 0.0322,0 0.0483,0 0.14485,0 0.28971,0 0.43456,0 0.0128,0 0.14087,-0.008 0.14486,0 0,0.27362 -0.0322,0.0161 0.0483,0.0966 0.0114,0.0114 -0.0114,0.0369 0,0.0483 0.015,0.015 0.22646,-0.015 0.24142,0 0.0114,0.0114 -0.0114,0.0369 0,0.0483 0.0227,0.0227 0.0738,-0.0227 0.0966,0 0.0114,0.0114 -0.0114,0.0369 0,0.0483 0.0227,0.0227 0.0738,-0.0227 0.0966,0 0.0114,0.0114 -0.0114,0.0369 0,0.0483 0.0116,0.0116 0.18152,-0.0116 0.19314,0 0.0114,0.0114 -0.0114,0.0369 0,0.0483 0.0227,0.0227 0.0738,-0.0227 0.0966,0 0.0114,0.0114 -0.0114,0.0369 0,0.0483 0.12876,0 -0.0161,-0.0161 0.0483,0.0483 0.0227,0.0227 0.0738,-0.0227 0.0966,0 0.0999,0.0999 -0.15266,-0.004 0.0483,0.0966 0.0191,0.01 0.13499,-0.01 0.14485,0 0.0114,0.0114 -0.0114,0.0369 0,0.0483 0.0241,0.0241 0.12072,-0.0241 0.14487,0 0.0114,0.0114 -0.0144,0.0411 0,0.0483 0.0312,0.0156 0.1758,-0.0174 0.19314,0 0.0114,0.0114 -0.0114,0.0369 0,0.0483 0.0114,0.0114 0.0369,-0.0114 0.0483,0 0.0114,0.0114 -0.0114,0.0369 0,0.0483 0.0241,0.0241 0.12072,-0.0241 0.14486,0 0.0114,0.0114 -0.0114,0.0369 0,0.0483 0.0114,0.0114 0.0369,-0.0114 0.0483,0 0.0114,0.0114 -0.0114,0.0369 0,0.0483 0.0114,0.0114 0.0322,0 0.0483,0 0,0.0161 -0.0114,0.0369 0,0.0483 0.0114,0.0114 0.0369,-0.0114 0.0483,0 0.0227,0.0227 -0.0227,0.0738 0,0.0966 0.12876,0 -0.0161,-0.0161 0.0483,0.0483 0.0114,0.0114 0.0369,-0.0114 0.0483,0 0.0241,0.0241 -0.0241,0.12071 0,0.14486 0.0114,0.0114 0.0369,-0.0114 0.0483,0 0.0114,0.0114 0,0.0322 0,0.0483 0.0161,0 0.0369,-0.0114 0.0483,0 0.0114,0.0114 -0.0114,0.0369 0,0.0483 0.0114,0.0114 0.0369,-0.0114 0.0483,0 0.0114,0.0114 -0.0114,0.0369 0,0.0483 0.0114,0.0114 0.0369,-0.0114 0.0483,0 0.0227,0.0227 -0.0227,0.0738 0,0.0966 0.0114,0.0114 0.0369,-0.0114 0.0483,0 0.0227,0.0227 -0.0227,0.0738 0,0.0966 0.0644,0.0643 0.0483,-0.0805 0.0483,0.0483 0,0.16095 0,0.32191 0,0.48285 0,0.0161 0,0.0322 0,0.0483 0,0.0161 0.0144,0.0411 0,0.0483 -0.0288,0.0144 -0.0644,0 -0.0966,0 -0.0161,0 -0.0369,-0.0114 -0.0483,0 -0.0114,0.0114 0.0114,0.0369 0,0.0483 -0.0241,0.0241 -0.12071,-0.0241 -0.14486,0 -0.0114,0.0114 0.0114,0.0369 0,0.0483 -0.0114,0.0114 -0.0369,-0.0114 -0.0483,0 -0.0114,0.0114 0.0114,0.0369 0,0.0483 -0.0241,0.0241 -0.12072,-0.0241 -0.14486,0 -0.0114,0.0114 0.0114,0.0369 0,0.0483 -0.0114,0.0114 -0.0339,-0.007 -0.0483,0 -0.0204,0.0101 -0.028,0.0381 -0.0483,0.0483 -0.0288,0.0144 -0.0738,-0.0227 -0.0966,0 -0.0114,0.0114 0.0114,0.0369 0,0.0483 -0.0116,0.0116 -0.18152,-0.0116 -0.19314,0 -0.0114,0.0114 0.0114,0.0369 0,0.0483 -0.0227,0.0227 -0.0738,-0.0227 -0.0966,0 -0.0114,0.0114 0.0114,0.0369 0,0.0483 -0.0241,0.0241 -0.12071,-0.0241 -0.14486,0 -0.0114,0.0114 0,0.0322 0,0.0483 -0.0161,0 -0.0369,-0.0114 -0.0483,0 -0.0114,0.0114 0.0114,0.0369 0,0.0483 -0.0241,0.0241 -0.12071,-0.0241 -0.14485,0 -0.0114,0.0114 0.0114,0.0369 0,0.0483 -0.0241,0.0241 -0.12072,-0.0241 -0.14486,0 -0.0114,0.0114 0.0114,0.0369 0,0.0483 -0.0114,0.0114 -0.0369,-0.0114 -0.0483,0 -0.0114,0.0114 0.0114,0.0369 0,0.0483 -0.0227,0.0227 -0.0738,-0.0227 -0.0966,0 -0.0114,0.0114 0.0114,0.0369 0,0.0483 -0.0114,0.0114 -0.0322,0 -0.0483,0 -0.0161,0 -0.0322,0 -0.0483,0 -0.12876,0 0.0161,-0.0161 -0.0483,0.0483 -0.0114,0.0114 -0.0322,0 -0.0483,0 -0.0161,0 -0.0369,-0.0114 -0.0483,0 -0.0114,0.0114 0.0114,0.0369 0,0.0483 -0.0116,0.0116 -0.18153,-0.0116 -0.19315,0 -0.0644,0.0644 0.0805,0.0483 -0.0483,0.0483 -0.0128,0 -0.14087,0.008 -0.14485,0 0,-0.27361 0.0322,-0.0161 -0.0483,-0.0966 -0.0114,-0.0114 0,-0.0322 0,-0.0483 0,-0.0322 0.0144,-0.0678 0,-0.0966 -0.007,-0.0144 -0.0369,0.0114 -0.0483,0 -0.0114,-0.0114 0.0114,-0.0369 0,-0.0483 -0.0116,-0.0116 -0.18152,0.0116 -0.19314,0 -0.002,-0.002 0,-0.21866 0,-0.24143 0,-0.0161 -0.0144,-0.0411 0,-0.0483 0.0205,-0.0103 0.20095,0 0.24142,0 0.20924,0 0.41848,0 0.62771,0 0.0128,0 0.14087,-0.008 0.14486,0 0.0144,0.0288 -0.0144,0.0678 0,0.0966 0.0144,0.0288 0.0738,-0.0227 0.0966,0 0.0114,0.0114 -0.0114,0.0369 0,0.0483 0.0241,0.0241 0.12071,-0.0241 0.14486,0 0.0114,0.0114 -0.0114,0.0369 0,0.0483 0.0241,0.0241 0.12071,-0.0241 0.14485,0 0.0114,0.0114 -0.0114,0.0369 0,0.0483 0.0227,0.0227 0.0678,-0.0144 0.0966,0 0.0203,0.0101 0.028,0.0381 0.0483,0.0483 0.0288,0.0144 0.0738,-0.0227 0.0966,0 0.0114,0.0114 -0.0114,0.0369 0,0.0483 0.0116,0.0116 0.18152,-0.0116 0.19314,0 0.0114,0.0114 -0.0114,0.0369 0,0.0483 0.0114,0.0114 0.0369,-0.0114 0.0483,0 0.0114,0.0114 -0.0114,0.0369 0,0.0483 0.0227,0.0227 0.0738,-0.0227 0.0966,0 0.0114,0.0114 -0.0114,0.0369 0,0.0483 0.0227,0.0227 0.0738,-0.0227 0.0966,0 0.0114,0.0114 -0.0114,0.0369 0,0.0483 0.0227,0.0227 0.0738,-0.0227 0.0966,0 0.0114,0.0114 -0.0114,0.0369 0,0.0483 0.12876,0 -0.0161,-0.0161 0.0483,0.0483 0.0227,0.0227 0.0738,-0.0227 0.0966,0 0.0114,0.0114 -0.0114,0.0369 0,0.0483 0.0114,0.0114 0.0369,-0.0114 0.0483,0 0.0114,0.0114 0,0.0322 0,0.0483 0.0161,0 0.0369,-0.0114 0.0483,0 0.0114,0.0114 -0.0114,0.0369 0,0.0483 0.0114,0.0114 0.0369,-0.0114 0.0483,0 0.0114,0.0114 -0.0114,0.0369 0,0.0483 0.0114,0.0114 0.0369,-0.0114 0.0483,0 0.0227,0.0227 -0.0227,0.0738 0,0.0966 0.0114,0.0114 0.0369,-0.0114 0.0483,0 0.0241,0.0241 -0.0241,0.12071 0,0.14485 0.0114,0.0114 0.0369,-0.0114 0.0483,0 0.0114,0.0114 0,0.0322 0,0.0483 0,0.0805 0,0.16095 0,0.24143 0,0.0161 0.0144,0.0411 0,0.0483 -0.0288,0.0144 -0.0738,-0.0227 -0.0966,0 -0.0241,0.0241 0.0241,0.12071 0,0.14486 -0.0114,0.0114 -0.0369,-0.0114 -0.0483,0 -0.0114,0.0114 0.0114,0.0369 0,0.0483 -0.0114,0.0114 -0.0369,-0.0114 -0.0483,0 -0.0114,0.0114 0.0114,0.0369 0,0.0483 -0.0114,0.0114 -0.0369,-0.0114 -0.0483,0 -0.0114,0.0114 0.0114,0.0369 0,0.0483 -0.0114,0.0114 -0.0369,-0.0114 -0.0483,0 -0.0114,0.0114 0.0114,0.0369 0,0.0483 -0.0114,0.0114 -0.0369,-0.0114 -0.0483,0 -0.0227,0.0227 0.0227,0.0738 0,0.0966 -0.0114,0.0114 -0.0322,0 -0.0483,0 0,0.0161 0.0114,0.0369 0,0.0483 -0.0114,0.0114 -0.0369,-0.0114 -0.0483,0 -0.0114,0.0114 0.0114,0.0369 0,0.0483 -0.0227,0.0227 -0.0738,-0.0227 -0.0966,0 -0.0114,0.0114 0.0114,0.0369 0,0.0483 -0.0227,0.0227 -0.0678,-0.0144 -0.0966,0 -0.0203,0.0101 -0.0279,0.0381 -0.0483,0.0483 -0.0144,0.007 -0.0339,-0.007 -0.0483,0 -0.0203,0.0101 -0.028,0.0381 -0.0483,0.0483 -0.0144,0.007 -0.0369,-0.0114 -0.0483,0 -0.0114,0.0114 0.0114,0.0369 0,0.0483 -0.0227,0.0227 -0.0738,-0.0227 -0.0966,0 -0.0114,0.0114 0.0114,0.0369 0,0.0483 -0.0116,0.0116 -0.18152,-0.0116 -0.19314,0 -0.0114,0.0114 0.0114,0.0369 0,0.0483 -0.0114,0.0114 -0.0322,0 -0.0483,0 -0.0161,0 -0.0322,0 -0.0483,0 -0.14486,0 -0.28971,0 -0.43457,0 -0.0128,0 -0.14087,0.008 -0.14485,0 -0.0144,-0.0288 0.0144,-0.0678 0,-0.0966 -0.004,-0.008 -0.13202,0 -0.14486,0 -0.12877,0 0.0161,0.0161 -0.0483,-0.0483 -0.0116,-0.0116 -0.19313,0.011 -0.19313,0 0,-0.0161 0.0644,0 0.0483,0 -0.0322,0 -0.0678,0.0144 -0.0966,0 -0.0144,-0.007 0.0114,-0.0369 0,-0.0483 -0.002,-0.002 -0.21867,0 -0.24143,0 -0.0161,0 -0.0322,0 -0.0483,0 -0.0161,0 -0.0411,-0.0144 -0.0483,0 -0.0216,0.0432 0,0.0966 0,0.14486 0,0.0161 -0.0144,0.0411 0,0.0483 0.0288,0.0144 0.0643,0 0.0966,0 0.0161,0 0.0369,-0.0114 0.0483,0 0.0322,0.0322 -0.0322,0.0644 0,0.0966 0.0114,0.0114 0.0369,-0.0114 0.0483,0 0.0114,0.0114 -0.0114,0.0369 0,0.0483 0.0114,0.0114 0.0369,-0.0114 0.0483,0 0.0114,0.0114 0,0.0322 0,0.0483 0,0.0161 0,0.0322 0,0.0483 0,0.23284 0,0.52349 0,0.86913 0,0.0966 0,0.19314 0,0.28971 0,0.0161 0.0144,0.0411 0,0.0483 -0.0288,0.0144 -0.0678,-0.0144 -0.0966,0 -0.0144,0.007 0,0.0322 0,0.0483 0,0.0643 0,0.12876 0,0.19313"
         id="path10365-7"
         inkscape:connector-curvature="0"
         inkscape:export-filename="/home/igorbb/docker/data/keras/course/regression/resources/mse.png"
         inkscape:export-xdpi="200"
         inkscape:export-ydpi="200" />
      <path
         style="fill:none;fill-rule:evenodd;stroke:#ff0000;stroke-width:0.1045829px;stroke-linecap:butt;stroke-linejoin:miter;stroke-opacity:1"
         d="m 106.66166,393.35327 c 0,0.0321 0.008,0.0649 0,0.0964 -0.003,0.0111 -0.0228,0.0139 -0.029,0.0241 -0.004,0.006 0,0.0838 0,0.0964 0,0.0482 0,0.0964 0,0.14459 0,0.008 0.007,0.0184 0,0.0241 -0.007,0.006 -0.0221,-0.006 -0.0289,0 -0.007,0.006 0,0.0161 0,0.0241 0,0.008 0,0.0161 0,0.0241 0,0.0643 0,0.12853 0,0.19279 0,0.0402 0,0.0803 0,0.12049 0,0.008 -0.009,0.0205 0,0.0241 0.0173,0.007 0.0442,-0.0113 0.0579,0 0.007,0.006 0,0.0808 0,0.0964 0,0.008 0,0.0321 0,0.0241 0,-0.0161 -0.009,-0.0338 0,-0.0482 0.009,-0.0144 0.0406,0.007 0.0579,0 0.0122,-0.005 0.0168,-0.019 0.0289,-0.0241 0.017,-0.007 0.1234,0.004 0.14473,0 0.13304,-0.0277 0.007,-0.0241 0.0868,-0.0241 0.0106,0 0.11463,9.9e-4 0.11579,0 0.007,-0.006 -0.007,-0.0184 0,-0.0241 0.007,-0.006 0.0193,0 0.0289,0 0.0579,0 0.11579,0 0.17368,0 0.01,0 0.0193,0 0.0289,0 0.01,0 0.0246,-0.007 0.029,0 0.009,0.0144 -0.009,0.0338 0,0.0482 0.004,0.007 0.0193,0 0.029,0 0.0483,0 0.0965,0 0.14473,0 0.0679,0 -0.0136,-0.006 0.0579,0.0241 0.0173,0.007 0.0442,-0.0113 0.0579,0 0.007,0.006 -0.007,0.0184 0,0.0241 0.0102,0.008 0.12473,-0.008 0.14472,0 0.0122,0.005 0.0168,0.019 0.029,0.0241 0.009,0.003 0.0221,-0.006 0.0289,0 0.007,0.006 -0.007,0.0184 0,0.0241 0.007,0.006 0.0193,0 0.0289,0 0.0193,0 0.0406,-0.007 0.0579,0 0.009,0.003 -0.007,0.0184 0,0.0241 0.0136,0.0113 0.0442,-0.0113 0.0579,0 0.007,0.006 -0.007,0.0184 0,0.0241 0.007,0.006 0.0221,-0.006 0.029,0 0.006,0.005 -0.003,0.0951 0,0.0964 0.0173,0.007 0.0386,0 0.0579,0 0.01,0 0.0221,-0.006 0.029,0 0.0145,0.012 -0.0144,0.0602 0,0.0723 0.007,0.006 0.0221,-0.006 0.029,0 0.0193,0.0161 -0.0193,0.0321 0,0.0482 0.0772,0 -0.01,-0.008 0.029,0.0241 0.007,0.006 0.0221,-0.006 0.0289,0 0.0136,0.0113 -0.0136,0.0368 0,0.0482 0.007,0.006 0.0221,-0.006 0.029,0 0.0193,0.0161 -0.0193,0.0321 0,0.0482 0.007,0.006 0.0221,-0.006 0.029,0 0.0136,0.0113 -0.0136,0.0368 0,0.0482 0.007,0.006 0.0221,-0.006 0.0289,0 0.0144,0.012 -0.0144,0.0602 0,0.0723 0.007,0.006 0.0221,-0.006 0.029,0 0.007,0.006 0,0.0161 0,0.0241 0,0.0113 -10e-4,0.1194 0,0.12049 0.007,0.006 0.0221,-0.006 0.029,0 10e-4,10e-4 0,0.0665 0,0.0723 0,0.006 -0.001,0.0715 0,0.0723 0.007,0.006 0.0221,-0.006 0.029,0 0.007,0.006 0,0.0161 0,0.0241 0,0.008 0,0.0161 0,0.0241 0,0.008 0,0.0161 0,0.0241 0,0.008 0.009,0.0205 0,0.0241 -0.0173,0.007 -0.0442,-0.0113 -0.0579,0 -0.0136,0.0113 0.0136,0.0368 0,0.0482 -0.0136,0.0113 -0.0406,-0.007 -0.0579,0 -0.009,0.003 0.007,0.0184 0,0.0241 -0.007,0.006 -0.0221,-0.006 -0.029,0 -0.007,0.006 0.007,0.0184 0,0.0241 -0.007,0.006 -0.0203,-0.003 -0.029,0 -0.0122,0.005 -0.0168,0.019 -0.0289,0.0241 -0.009,0.003 -0.0221,-0.006 -0.029,0 -0.007,0.006 0.007,0.0184 0,0.0241 -0.007,0.006 -0.0221,-0.006 -0.029,0 -0.007,0.006 0.007,0.0184 0,0.0241 -0.007,0.006 -0.0221,-0.006 -0.029,0 -0.007,0.006 0.007,0.0184 0,0.0241 -0.007,0.006 -0.0221,-0.006 -0.0289,0 -0.007,0.006 0,0.0161 0,0.0241 -0.01,0 -0.0221,-0.006 -0.029,0 -0.007,0.006 0.007,0.0184 0,0.0241 -0.0144,0.012 -0.0724,-0.012 -0.0868,0 -0.007,0.006 0.007,0.0184 0,0.0241 -0.01,0 -0.0193,0 -0.029,0 -0.01,0 -0.0221,-0.006 -0.0289,0 -0.007,0.006 0.007,0.0184 0,0.0241 -0.007,0.006 -0.0221,-0.006 -0.029,0 -0.007,0.006 0,0.0161 0,0.0241 -0.01,0 -0.0221,-0.006 -0.0289,0 -0.007,0.006 0.007,0.0184 0,0.0241 -0.0136,0.0113 -0.0442,-0.0113 -0.0579,0 -0.007,0.006 0.007,0.0184 0,0.0241 -10e-4,0.001 -0.0798,0 -0.0868,0 -0.14473,0 -0.28946,0 -0.43418,0 -0.0868,0 -0.17368,0 -0.26051,0 -0.007,0 -0.1134,0.001 -0.11578,0 -0.0227,-0.0126 -0.0352,-0.0356 -0.0579,-0.0482 -0.0134,-0.007 -0.10742,0.007 -0.11578,0 -0.0136,-0.0113 0.0136,-0.0368 0,-0.0482 -0.007,-0.006 -0.0221,0.006 -0.0289,0 -0.0144,-0.012 0.0144,-0.0602 0,-0.0723 -0.007,-0.006 -0.0221,0.006 -0.029,0 -10e-4,-10e-4 0,-0.10914 0,-0.1205 0,-0.006 -0.005,-0.0703 0,-0.0723 0.0173,-0.007 0.0406,0.007 0.0579,0 0.009,-0.003 -0.007,-0.0184 0,-0.0241 0.0772,0 -0.01,0.008 0.029,-0.0241 0.007,-0.006 0.0193,0 0.0289,0 0.01,0 0.0193,0 0.0289,0 0.0868,0 0.17368,0 0.26051,0 0.008,0 0.0844,-0.004 0.0868,0 0,0.13656 -0.0193,0.008 0.0289,0.0482 0.007,0.006 -0.007,0.0184 0,0.0241 0.009,0.007 0.13576,-0.007 0.14472,0 0.007,0.006 -0.007,0.0184 0,0.0241 0.0136,0.0113 0.0442,-0.0113 0.0579,0 0.007,0.006 -0.007,0.0184 0,0.0241 0.0136,0.0113 0.0442,-0.0113 0.0579,0 0.007,0.006 -0.007,0.0184 0,0.0241 0.007,0.006 0.10882,-0.006 0.11578,0 0.007,0.006 -0.007,0.0184 0,0.0241 0.0136,0.0113 0.0442,-0.0113 0.0579,0 0.007,0.006 -0.007,0.0184 0,0.0241 0.0772,0 -0.01,-0.008 0.029,0.0241 0.0136,0.0113 0.0442,-0.0113 0.0579,0 0.0599,0.0499 -0.0915,-0.002 0.029,0.0482 0.0115,0.005 0.0809,-0.005 0.0868,0 0.007,0.006 -0.007,0.0184 0,0.0241 0.0144,0.012 0.0724,-0.012 0.0868,0 0.007,0.006 -0.009,0.0205 0,0.0241 0.0187,0.008 0.10539,-0.009 0.11579,0 0.007,0.006 -0.007,0.0184 0,0.0241 0.007,0.006 0.0221,-0.006 0.0289,0 0.007,0.006 -0.007,0.0184 0,0.0241 0.0145,0.012 0.0724,-0.012 0.0868,0 0.007,0.006 -0.007,0.0184 0,0.0241 0.007,0.006 0.0221,-0.006 0.0289,0 0.007,0.006 -0.007,0.0184 0,0.0241 0.007,0.006 0.0193,0 0.029,0 0,0.008 -0.007,0.0184 0,0.0241 0.007,0.006 0.0221,-0.006 0.029,0 0.0136,0.0113 -0.0136,0.0368 0,0.0482 0.0772,0 -0.01,-0.008 0.029,0.0241 0.007,0.006 0.0221,-0.006 0.0289,0 0.0144,0.012 -0.0144,0.0602 0,0.0723 0.007,0.006 0.0221,-0.006 0.029,0 0.007,0.006 0,0.0161 0,0.0241 0.01,0 0.0221,-0.006 0.029,0 0.007,0.006 -0.007,0.0184 0,0.0241 0.007,0.006 0.0221,-0.006 0.0289,0 0.007,0.006 -0.007,0.0184 0,0.0241 0.007,0.006 0.0221,-0.006 0.029,0 0.0136,0.0113 -0.0136,0.0368 0,0.0482 0.007,0.006 0.0221,-0.006 0.029,0 0.0136,0.0113 -0.0136,0.0368 0,0.0482 0.0386,0.0321 0.029,-0.0402 0.029,0.0241 0,0.0803 0,0.16066 0,0.24098 0,0.008 0,0.0161 0,0.0241 0,0.008 0.009,0.0205 0,0.0241 -0.0173,0.007 -0.0386,0 -0.0579,0 -0.01,0 -0.0221,-0.006 -0.029,0 -0.007,0.006 0.007,0.0184 0,0.0241 -0.0144,0.012 -0.0724,-0.012 -0.0868,0 -0.007,0.006 0.007,0.0184 0,0.0241 -0.007,0.006 -0.0221,-0.006 -0.029,0 -0.007,0.006 0.007,0.0184 0,0.0241 -0.0144,0.012 -0.0724,-0.012 -0.0868,0 -0.007,0.006 0.007,0.0184 0,0.0241 -0.007,0.006 -0.0203,-0.004 -0.0289,0 -0.0122,0.005 -0.0168,0.019 -0.029,0.0241 -0.0173,0.007 -0.0442,-0.0113 -0.0579,0 -0.007,0.006 0.007,0.0184 0,0.0241 -0.007,0.006 -0.10881,-0.006 -0.11578,0 -0.007,0.006 0.007,0.0184 0,0.0241 -0.0136,0.0113 -0.0442,-0.0113 -0.0579,0 -0.007,0.006 0.007,0.0184 0,0.0241 -0.0144,0.012 -0.0724,-0.012 -0.0868,0 -0.007,0.006 0,0.0161 0,0.0241 -0.01,0 -0.0221,-0.006 -0.029,0 -0.007,0.006 0.007,0.0184 0,0.0241 -0.0144,0.012 -0.0724,-0.012 -0.0868,0 -0.007,0.006 0.007,0.0184 0,0.0241 -0.0144,0.012 -0.0724,-0.012 -0.0868,0 -0.007,0.006 0.007,0.0184 0,0.0241 -0.007,0.006 -0.0221,-0.006 -0.029,0 -0.007,0.006 0.007,0.0184 0,0.0241 -0.0136,0.0113 -0.0442,-0.0113 -0.0579,0 -0.007,0.006 0.007,0.0184 0,0.0241 -0.007,0.006 -0.0193,0 -0.029,0 -0.01,0 -0.0193,0 -0.029,0 -0.0772,0 0.01,-0.008 -0.029,0.0241 -0.007,0.006 -0.0193,0 -0.0289,0 -0.01,0 -0.0221,-0.006 -0.0289,0 -0.007,0.006 0.007,0.0184 0,0.0241 -0.007,0.006 -0.10882,-0.006 -0.11579,0 -0.0386,0.0321 0.0483,0.0241 -0.029,0.0241 -0.008,0 -0.0844,0.004 -0.0868,0 0,-0.13656 0.0193,-0.008 -0.0289,-0.0482 -0.007,-0.006 0,-0.0161 0,-0.0241 0,-0.0161 0.009,-0.0338 0,-0.0482 -0.004,-0.007 -0.0221,0.006 -0.029,0 -0.007,-0.006 0.007,-0.0184 0,-0.0241 -0.007,-0.006 -0.10881,0.006 -0.11578,0 -10e-4,-0.001 0,-0.10913 0,-0.1205 0,-0.008 -0.009,-0.0205 0,-0.0241 0.0123,-0.005 0.12047,0 0.14473,0 0.12543,0 0.25086,0 0.37629,0 0.008,0 0.0844,-0.004 0.0868,0 0.009,0.0144 -0.009,0.0338 0,0.0482 0.009,0.0144 0.0442,-0.0113 0.0579,0 0.007,0.006 -0.007,0.0184 0,0.0241 0.0144,0.012 0.0724,-0.012 0.0868,0 0.007,0.006 -0.007,0.0184 0,0.0241 0.0144,0.012 0.0724,-0.012 0.0868,0 0.007,0.006 -0.007,0.0184 0,0.0241 0.0136,0.0113 0.0406,-0.007 0.0579,0 0.0122,0.005 0.0168,0.019 0.029,0.0241 0.0173,0.007 0.0442,-0.0113 0.0579,0 0.007,0.006 -0.007,0.0184 0,0.0241 0.007,0.006 0.10881,-0.006 0.11578,0 0.007,0.006 -0.007,0.0184 0,0.0241 0.007,0.006 0.0221,-0.006 0.029,0 0.007,0.006 -0.007,0.0184 0,0.0241 0.0136,0.0113 0.0442,-0.0113 0.0579,0 0.007,0.006 -0.007,0.0184 0,0.0241 0.0136,0.0113 0.0442,-0.0113 0.0579,0 0.007,0.006 -0.007,0.0184 0,0.0241 0.0136,0.0113 0.0442,-0.0113 0.0579,0 0.007,0.006 -0.007,0.0184 0,0.0241 0.0772,0 -0.01,-0.008 0.029,0.0241 0.0136,0.0113 0.0442,-0.0113 0.0579,0 0.007,0.006 -0.007,0.0184 0,0.0241 0.007,0.006 0.0221,-0.006 0.0289,0 0.007,0.006 0,0.0161 0,0.0241 0.01,0 0.0221,-0.006 0.029,0 0.007,0.006 -0.007,0.0184 0,0.0241 0.007,0.006 0.0221,-0.006 0.0289,0 0.007,0.006 -0.007,0.0184 0,0.0241 0.007,0.006 0.0221,-0.006 0.029,0 0.0136,0.0113 -0.0136,0.0368 0,0.0482 0.007,0.006 0.0221,-0.006 0.029,0 0.0144,0.012 -0.0145,0.0602 0,0.0723 0.007,0.006 0.0221,-0.006 0.029,0 0.007,0.006 0,0.0161 0,0.0241 0,0.0402 0,0.0803 0,0.1205 0,0.008 0.009,0.0205 0,0.0241 -0.0173,0.007 -0.0443,-0.0113 -0.0579,0 -0.0144,0.012 0.0144,0.0602 0,0.0723 -0.007,0.006 -0.0221,-0.006 -0.029,0 -0.007,0.006 0.007,0.0184 0,0.0241 -0.007,0.006 -0.0221,-0.006 -0.0289,0 -0.007,0.006 0.007,0.0184 0,0.0241 -0.007,0.006 -0.0221,-0.006 -0.029,0 -0.007,0.006 0.007,0.0184 0,0.0241 -0.007,0.006 -0.0221,-0.006 -0.0289,0 -0.007,0.006 0.007,0.0184 0,0.0241 -0.007,0.006 -0.0221,-0.006 -0.0289,0 -0.0136,0.0113 0.0136,0.0368 0,0.0482 -0.007,0.006 -0.0193,0 -0.029,0 0,0.008 0.007,0.0184 0,0.0241 -0.007,0.006 -0.0221,-0.006 -0.029,0 -0.007,0.006 0.007,0.0184 0,0.0241 -0.0136,0.0113 -0.0442,-0.0113 -0.0579,0 -0.007,0.006 0.007,0.0184 0,0.0241 -0.0136,0.0113 -0.0406,-0.007 -0.0579,0 -0.0122,0.005 -0.0167,0.019 -0.0289,0.0241 -0.009,0.003 -0.0203,-0.003 -0.029,0 -0.0122,0.005 -0.0168,0.019 -0.029,0.0241 -0.009,0.003 -0.0221,-0.006 -0.029,0 -0.007,0.006 0.007,0.0184 0,0.0241 -0.0136,0.0113 -0.0442,-0.0113 -0.0579,0 -0.007,0.006 0.007,0.0184 0,0.0241 -0.007,0.006 -0.10882,-0.006 -0.11579,0 -0.007,0.006 0.007,0.0184 0,0.0241 -0.007,0.006 -0.0193,0 -0.029,0 -0.01,0 -0.0193,0 -0.0289,0 -0.0868,0 -0.17368,0 -0.26051,0 -0.008,0 -0.0845,0.004 -0.0868,0 -0.009,-0.0144 0.009,-0.0338 0,-0.0482 -0.002,-0.004 -0.0791,0 -0.0868,0 -0.0772,0 0.01,0.008 -0.0289,-0.0241 -0.007,-0.006 -0.11577,0.005 -0.11577,0 0,-0.008 0.0386,0 0.029,0 -0.0193,0 -0.0406,0.007 -0.0579,0 -0.009,-0.003 0.007,-0.0184 0,-0.0241 -10e-4,-10e-4 -0.13108,0 -0.14473,0 -0.01,0 -0.0193,0 -0.0289,0 -0.01,0 -0.0246,-0.007 -0.029,0 -0.0129,0.0216 0,0.0482 0,0.0723 0,0.008 -0.009,0.0205 0,0.0241 0.0173,0.007 0.0386,0 0.0579,0 0.01,0 0.0221,-0.006 0.029,0 0.0193,0.0161 -0.0193,0.0322 0,0.0482 0.007,0.006 0.0221,-0.006 0.029,0 0.007,0.006 -0.007,0.0184 0,0.0241 0.007,0.006 0.0221,-0.006 0.0289,0 0.007,0.006 0,0.0161 0,0.0241 0,0.008 0,0.0161 0,0.0241 0,0.11621 0,0.26127 0,0.43378 0,0.0482 0,0.0964 0,0.14459 0,0.008 0.009,0.0205 0,0.0241 -0.0173,0.007 -0.0406,-0.007 -0.0579,0 -0.009,0.003 0,0.0161 0,0.0241 0,0.0321 0,0.0643 0,0.0964"
         id="path10365-0"
         inkscape:connector-curvature="0"
         inkscape:export-filename="/home/igorbb/docker/data/keras/course/regression/resources/mse.png"
         inkscape:export-xdpi="200"
         inkscape:export-ydpi="200" />
      <path
         inkscape:connector-curvature="0"
         id="path10403"
         d="m 112.37595,384.06756 c 0,0.0321 0.008,0.0649 0,0.0964 -0.003,0.0111 -0.0228,0.0139 -0.029,0.0241 -0.004,0.006 0,0.0838 0,0.0964 0,0.0482 0,0.0964 0,0.14459 0,0.008 0.007,0.0184 0,0.0241 -0.007,0.006 -0.0221,-0.006 -0.0289,0 -0.007,0.006 0,0.0161 0,0.0241 0,0.008 0,0.0161 0,0.0241 0,0.0643 0,0.12853 0,0.19279 0,0.0402 0,0.0803 0,0.12049 0,0.008 -0.009,0.0205 0,0.0241 0.0173,0.007 0.0442,-0.0113 0.0579,0 0.007,0.006 0,0.0808 0,0.0964 0,0.008 0,0.0321 0,0.0241 0,-0.0161 -0.009,-0.0338 0,-0.0482 0.009,-0.0144 0.0406,0.007 0.0579,0 0.0122,-0.005 0.0168,-0.019 0.0289,-0.0241 0.017,-0.007 0.1234,0.004 0.14473,0 0.13304,-0.0277 0.007,-0.0241 0.0868,-0.0241 0.0106,0 0.11463,9.9e-4 0.11579,0 0.007,-0.006 -0.007,-0.0184 0,-0.0241 0.007,-0.006 0.0193,0 0.0289,0 0.0579,0 0.11579,0 0.17368,0 0.01,0 0.0193,0 0.0289,0 0.01,0 0.0246,-0.007 0.029,0 0.009,0.0144 -0.009,0.0338 0,0.0482 0.004,0.007 0.0193,0 0.029,0 0.0483,0 0.0965,0 0.14473,0 0.0679,0 -0.0136,-0.006 0.0579,0.0241 0.0173,0.007 0.0442,-0.0113 0.0579,0 0.007,0.006 -0.007,0.0184 0,0.0241 0.0102,0.008 0.12473,-0.008 0.14472,0 0.0122,0.005 0.0168,0.019 0.029,0.0241 0.009,0.003 0.0221,-0.006 0.0289,0 0.007,0.006 -0.007,0.0184 0,0.0241 0.007,0.006 0.0193,0 0.0289,0 0.0193,0 0.0406,-0.007 0.0579,0 0.009,0.003 -0.007,0.0184 0,0.0241 0.0136,0.0113 0.0442,-0.0113 0.0579,0 0.007,0.006 -0.007,0.0184 0,0.0241 0.007,0.006 0.0221,-0.006 0.029,0 0.006,0.005 -0.003,0.0951 0,0.0964 0.0173,0.007 0.0386,0 0.0579,0 0.01,0 0.0221,-0.006 0.029,0 0.0145,0.012 -0.0144,0.0602 0,0.0723 0.007,0.006 0.0221,-0.006 0.029,0 0.0193,0.0161 -0.0193,0.0321 0,0.0482 0.0772,0 -0.01,-0.008 0.029,0.0241 0.007,0.006 0.0221,-0.006 0.0289,0 0.0136,0.0113 -0.0136,0.0368 0,0.0482 0.007,0.006 0.0221,-0.006 0.029,0 0.0193,0.0161 -0.0193,0.0321 0,0.0482 0.007,0.006 0.0221,-0.006 0.029,0 0.0136,0.0113 -0.0136,0.0368 0,0.0482 0.007,0.006 0.0221,-0.006 0.0289,0 0.0144,0.012 -0.0144,0.0602 0,0.0723 0.007,0.006 0.0221,-0.006 0.029,0 0.007,0.006 0,0.0161 0,0.0241 0,0.0113 -0.001,0.1194 0,0.12049 0.007,0.006 0.0221,-0.006 0.029,0 0.001,10e-4 0,0.0665 0,0.0723 0,0.006 -10e-4,0.0715 0,0.0723 0.007,0.006 0.0221,-0.006 0.029,0 0.007,0.006 0,0.0161 0,0.0241 0,0.008 0,0.0161 0,0.0241 0,0.008 0,0.0161 0,0.0241 0,0.008 0.009,0.0205 0,0.0241 -0.0173,0.007 -0.0442,-0.0113 -0.0579,0 -0.0136,0.0113 0.0136,0.0368 0,0.0482 -0.0136,0.0113 -0.0406,-0.007 -0.0579,0 -0.009,0.003 0.007,0.0184 0,0.0241 -0.007,0.006 -0.0221,-0.006 -0.029,0 -0.007,0.006 0.007,0.0184 0,0.0241 -0.007,0.006 -0.0203,-0.003 -0.029,0 -0.0122,0.005 -0.0168,0.019 -0.0289,0.0241 -0.009,0.003 -0.0221,-0.006 -0.029,0 -0.007,0.006 0.007,0.0184 0,0.0241 -0.007,0.006 -0.0221,-0.006 -0.029,0 -0.007,0.006 0.007,0.0184 0,0.0241 -0.007,0.006 -0.0221,-0.006 -0.029,0 -0.007,0.006 0.007,0.0184 0,0.0241 -0.007,0.006 -0.0221,-0.006 -0.0289,0 -0.007,0.006 0,0.0161 0,0.0241 -0.01,0 -0.0221,-0.006 -0.029,0 -0.007,0.006 0.007,0.0184 0,0.0241 -0.0144,0.012 -0.0724,-0.012 -0.0868,0 -0.007,0.006 0.007,0.0184 0,0.0241 -0.01,0 -0.0193,0 -0.029,0 -0.01,0 -0.0221,-0.006 -0.0289,0 -0.007,0.006 0.007,0.0184 0,0.0241 -0.007,0.006 -0.0221,-0.006 -0.029,0 -0.007,0.006 0,0.0161 0,0.0241 -0.01,0 -0.0221,-0.006 -0.0289,0 -0.007,0.006 0.007,0.0184 0,0.0241 -0.0136,0.0113 -0.0442,-0.0113 -0.0579,0 -0.007,0.006 0.007,0.0184 0,0.0241 -0.001,0.001 -0.0798,0 -0.0868,0 -0.14473,0 -0.28946,0 -0.43418,0 -0.0868,0 -0.17368,0 -0.26051,0 -0.007,0 -0.1134,0.001 -0.11578,0 -0.0227,-0.0126 -0.0352,-0.0356 -0.0579,-0.0482 -0.0134,-0.007 -0.10742,0.007 -0.11578,0 -0.0136,-0.0113 0.0136,-0.0368 0,-0.0482 -0.007,-0.006 -0.0221,0.006 -0.0289,0 -0.0144,-0.012 0.0144,-0.0602 0,-0.0723 -0.007,-0.006 -0.0221,0.006 -0.029,0 -0.001,-10e-4 0,-0.10914 0,-0.1205 0,-0.006 -0.005,-0.0703 0,-0.0723 0.0173,-0.007 0.0406,0.007 0.0579,0 0.009,-0.003 -0.007,-0.0184 0,-0.0241 0.0772,0 -0.01,0.008 0.029,-0.0241 0.007,-0.006 0.0193,0 0.0289,0 0.01,0 0.0193,0 0.0289,0 0.0868,0 0.17368,0 0.26051,0 0.008,0 0.0844,-0.004 0.0868,0 0,0.13656 -0.0193,0.008 0.0289,0.0482 0.007,0.006 -0.007,0.0184 0,0.0241 0.009,0.007 0.13576,-0.007 0.14472,0 0.007,0.006 -0.007,0.0184 0,0.0241 0.0136,0.0113 0.0442,-0.0113 0.0579,0 0.007,0.006 -0.007,0.0184 0,0.0241 0.0136,0.0113 0.0442,-0.0113 0.0579,0 0.007,0.006 -0.007,0.0184 0,0.0241 0.007,0.006 0.10882,-0.006 0.11578,0 0.007,0.006 -0.007,0.0184 0,0.0241 0.0136,0.0113 0.0442,-0.0113 0.0579,0 0.007,0.006 -0.007,0.0184 0,0.0241 0.0772,0 -0.01,-0.008 0.029,0.0241 0.0136,0.0113 0.0442,-0.0113 0.0579,0 0.0599,0.0499 -0.0915,-0.002 0.029,0.0482 0.0115,0.005 0.0809,-0.005 0.0868,0 0.007,0.006 -0.007,0.0184 0,0.0241 0.0144,0.012 0.0724,-0.012 0.0868,0 0.007,0.006 -0.009,0.0205 0,0.0241 0.0187,0.008 0.10539,-0.009 0.11579,0 0.007,0.006 -0.007,0.0184 0,0.0241 0.007,0.006 0.0221,-0.006 0.0289,0 0.007,0.006 -0.007,0.0184 0,0.0241 0.0145,0.012 0.0724,-0.012 0.0868,0 0.007,0.006 -0.007,0.0184 0,0.0241 0.007,0.006 0.0221,-0.006 0.0289,0 0.007,0.006 -0.007,0.0184 0,0.0241 0.007,0.006 0.0193,0 0.029,0 0,0.008 -0.007,0.0184 0,0.0241 0.007,0.006 0.0221,-0.006 0.029,0 0.0136,0.0113 -0.0136,0.0368 0,0.0482 0.0772,0 -0.01,-0.008 0.029,0.0241 0.007,0.006 0.0221,-0.006 0.0289,0 0.0144,0.012 -0.0144,0.0602 0,0.0723 0.007,0.006 0.0221,-0.006 0.029,0 0.007,0.006 0,0.0161 0,0.0241 0.01,0 0.0221,-0.006 0.029,0 0.007,0.006 -0.007,0.0184 0,0.0241 0.007,0.006 0.0221,-0.006 0.0289,0 0.007,0.006 -0.007,0.0184 0,0.0241 0.007,0.006 0.0221,-0.006 0.029,0 0.0136,0.0113 -0.0136,0.0368 0,0.0482 0.007,0.006 0.0221,-0.006 0.029,0 0.0136,0.0113 -0.0136,0.0368 0,0.0482 0.0386,0.0321 0.029,-0.0402 0.029,0.0241 0,0.0803 0,0.16066 0,0.24098 0,0.008 0,0.0161 0,0.0241 0,0.008 0.009,0.0205 0,0.0241 -0.0173,0.007 -0.0386,0 -0.0579,0 -0.01,0 -0.0221,-0.006 -0.029,0 -0.007,0.006 0.007,0.0184 0,0.0241 -0.0144,0.012 -0.0724,-0.012 -0.0868,0 -0.007,0.006 0.007,0.0184 0,0.0241 -0.007,0.006 -0.0221,-0.006 -0.029,0 -0.007,0.006 0.007,0.0184 0,0.0241 -0.0144,0.012 -0.0724,-0.012 -0.0868,0 -0.007,0.006 0.007,0.0184 0,0.0241 -0.007,0.006 -0.0203,-0.004 -0.0289,0 -0.0122,0.005 -0.0168,0.019 -0.029,0.0241 -0.0173,0.007 -0.0442,-0.0113 -0.0579,0 -0.007,0.006 0.007,0.0184 0,0.0241 -0.007,0.006 -0.10881,-0.006 -0.11578,0 -0.007,0.006 0.007,0.0184 0,0.0241 -0.0136,0.0113 -0.0442,-0.0113 -0.0579,0 -0.007,0.006 0.007,0.0184 0,0.0241 -0.0144,0.012 -0.0724,-0.012 -0.0868,0 -0.007,0.006 0,0.0161 0,0.0241 -0.01,0 -0.0221,-0.006 -0.029,0 -0.007,0.006 0.007,0.0184 0,0.0241 -0.0144,0.012 -0.0724,-0.012 -0.0868,0 -0.007,0.006 0.007,0.0184 0,0.0241 -0.0144,0.012 -0.0724,-0.012 -0.0868,0 -0.007,0.006 0.007,0.0184 0,0.0241 -0.007,0.006 -0.0221,-0.006 -0.029,0 -0.007,0.006 0.007,0.0184 0,0.0241 -0.0136,0.0113 -0.0442,-0.0113 -0.0579,0 -0.007,0.006 0.007,0.0184 0,0.0241 -0.007,0.006 -0.0193,0 -0.029,0 -0.01,0 -0.0193,0 -0.029,0 -0.0772,0 0.01,-0.008 -0.029,0.0241 -0.007,0.006 -0.0193,0 -0.0289,0 -0.01,0 -0.0221,-0.006 -0.0289,0 -0.007,0.006 0.007,0.0184 0,0.0241 -0.007,0.006 -0.10882,-0.006 -0.11579,0 -0.0386,0.0321 0.0483,0.0241 -0.029,0.0241 -0.008,0 -0.0844,0.004 -0.0868,0 0,-0.13656 0.0193,-0.008 -0.0289,-0.0482 -0.007,-0.006 0,-0.0161 0,-0.0241 0,-0.0161 0.009,-0.0338 0,-0.0482 -0.004,-0.007 -0.0221,0.006 -0.029,0 -0.007,-0.006 0.007,-0.0184 0,-0.0241 -0.007,-0.006 -0.10881,0.006 -0.11578,0 -0.001,-0.001 0,-0.10913 0,-0.1205 0,-0.008 -0.009,-0.0205 0,-0.0241 0.0123,-0.005 0.12047,0 0.14473,0 0.12543,0 0.25086,0 0.37629,0 0.008,0 0.0844,-0.004 0.0868,0 0.009,0.0144 -0.009,0.0338 0,0.0482 0.009,0.0144 0.0442,-0.0113 0.0579,0 0.007,0.006 -0.007,0.0184 0,0.0241 0.0144,0.012 0.0724,-0.012 0.0868,0 0.007,0.006 -0.007,0.0184 0,0.0241 0.0144,0.012 0.0724,-0.012 0.0868,0 0.007,0.006 -0.007,0.0184 0,0.0241 0.0136,0.0113 0.0406,-0.007 0.0579,0 0.0122,0.005 0.0168,0.019 0.029,0.0241 0.0173,0.007 0.0442,-0.0113 0.0579,0 0.007,0.006 -0.007,0.0184 0,0.0241 0.007,0.006 0.10881,-0.006 0.11578,0 0.007,0.006 -0.007,0.0184 0,0.0241 0.007,0.006 0.0221,-0.006 0.029,0 0.007,0.006 -0.007,0.0184 0,0.0241 0.0136,0.0113 0.0442,-0.0113 0.0579,0 0.007,0.006 -0.007,0.0184 0,0.0241 0.0136,0.0113 0.0442,-0.0113 0.0579,0 0.007,0.006 -0.007,0.0184 0,0.0241 0.0136,0.0113 0.0442,-0.0113 0.0579,0 0.007,0.006 -0.007,0.0184 0,0.0241 0.0772,0 -0.01,-0.008 0.029,0.0241 0.0136,0.0113 0.0442,-0.0113 0.0579,0 0.007,0.006 -0.007,0.0184 0,0.0241 0.007,0.006 0.0221,-0.006 0.0289,0 0.007,0.006 0,0.0161 0,0.0241 0.01,0 0.0221,-0.006 0.029,0 0.007,0.006 -0.007,0.0184 0,0.0241 0.007,0.006 0.0221,-0.006 0.0289,0 0.007,0.006 -0.007,0.0184 0,0.0241 0.007,0.006 0.0221,-0.006 0.029,0 0.0136,0.0113 -0.0136,0.0368 0,0.0482 0.007,0.006 0.0221,-0.006 0.029,0 0.0144,0.012 -0.0145,0.0602 0,0.0723 0.007,0.006 0.0221,-0.006 0.029,0 0.007,0.006 0,0.0161 0,0.0241 0,0.0402 0,0.0803 0,0.1205 0,0.008 0.009,0.0205 0,0.0241 -0.0173,0.007 -0.0443,-0.0113 -0.0579,0 -0.0144,0.012 0.0144,0.0602 0,0.0723 -0.007,0.006 -0.0221,-0.006 -0.029,0 -0.007,0.006 0.007,0.0184 0,0.0241 -0.007,0.006 -0.0221,-0.006 -0.0289,0 -0.007,0.006 0.007,0.0184 0,0.0241 -0.007,0.006 -0.0221,-0.006 -0.029,0 -0.007,0.006 0.007,0.0184 0,0.0241 -0.007,0.006 -0.0221,-0.006 -0.0289,0 -0.007,0.006 0.007,0.0184 0,0.0241 -0.007,0.006 -0.0221,-0.006 -0.0289,0 -0.0136,0.0113 0.0136,0.0368 0,0.0482 -0.007,0.006 -0.0193,0 -0.029,0 0,0.008 0.007,0.0184 0,0.0241 -0.007,0.006 -0.0221,-0.006 -0.029,0 -0.007,0.006 0.007,0.0184 0,0.0241 -0.0136,0.0113 -0.0442,-0.0113 -0.0579,0 -0.007,0.006 0.007,0.0184 0,0.0241 -0.0136,0.0113 -0.0406,-0.007 -0.0579,0 -0.0122,0.005 -0.0167,0.019 -0.0289,0.0241 -0.009,0.003 -0.0203,-0.003 -0.029,0 -0.0122,0.005 -0.0168,0.019 -0.029,0.0241 -0.009,0.003 -0.0221,-0.006 -0.029,0 -0.007,0.006 0.007,0.0184 0,0.0241 -0.0136,0.0113 -0.0442,-0.0113 -0.0579,0 -0.007,0.006 0.007,0.0184 0,0.0241 -0.007,0.006 -0.10882,-0.006 -0.11579,0 -0.007,0.006 0.007,0.0184 0,0.0241 -0.007,0.006 -0.0193,0 -0.029,0 -0.01,0 -0.0193,0 -0.0289,0 -0.0868,0 -0.17368,0 -0.26051,0 -0.008,0 -0.0845,0.004 -0.0868,0 -0.009,-0.0144 0.009,-0.0338 0,-0.0482 -0.002,-0.004 -0.0791,0 -0.0868,0 -0.0772,0 0.01,0.008 -0.0289,-0.0241 -0.007,-0.006 -0.11577,0.005 -0.11577,0 0,-0.008 0.0386,0 0.029,0 -0.0193,0 -0.0406,0.007 -0.0579,0 -0.009,-0.003 0.007,-0.0184 0,-0.0241 -0.001,-0.001 -0.13108,0 -0.14473,0 -0.01,0 -0.0193,0 -0.0289,0 -0.01,0 -0.0246,-0.007 -0.029,0 -0.0129,0.0216 0,0.0482 0,0.0723 0,0.008 -0.009,0.0205 0,0.0241 0.0173,0.007 0.0386,0 0.0579,0 0.01,0 0.0221,-0.006 0.029,0 0.0193,0.0161 -0.0193,0.0322 0,0.0482 0.007,0.006 0.0221,-0.006 0.029,0 0.007,0.006 -0.007,0.0184 0,0.0241 0.007,0.006 0.0221,-0.006 0.0289,0 0.007,0.006 0,0.0161 0,0.0241 0,0.008 0,0.0161 0,0.0241 0,0.11621 0,0.26127 0,0.43378 0,0.0482 0,0.0964 0,0.14459 0,0.008 0.009,0.0205 0,0.0241 -0.0173,0.007 -0.0406,-0.007 -0.0579,0 -0.009,0.003 0,0.0161 0,0.0241 0,0.0321 0,0.0643 0,0.0964"
         style="fill:none;fill-rule:evenodd;stroke:#ff0000;stroke-width:0.1045829px;stroke-linecap:butt;stroke-linejoin:miter;stroke-opacity:1"
         inkscape:export-filename="/home/igorbb/docker/data/keras/course/regression/resources/mse.png"
         inkscape:export-xdpi="200"
         inkscape:export-ydpi="200" />
      <g
         ns0:preamble="/home/igorbb/preamble.ini"
         ns0:text="$y$"
         word-spacing="normal"
         letter-spacing="normal"
         font-size-adjust="none"
         font-stretch="normal"
         font-weight="normal"
         font-variant="normal"
         font-style="normal"
         stroke-miterlimit="10.433"
         xml:space="preserve"
         transform="matrix(1,0,0,-1,-169.19035,1046.4798)"
         id="g10580"
         style="font-style:normal;font-variant:normal;font-weight:normal;font-stretch:normal;letter-spacing:normal;word-spacing:normal;text-anchor:start;fill:none;fill-opacity:1;fill-rule:evenodd;stroke:#000000;stroke-linecap:butt;stroke-linejoin:miter;stroke-miterlimit:10.43299961;stroke-dasharray:none;stroke-dashoffset:0;stroke-opacity:1"
         inkscape:export-filename="/home/igorbb/docker/data/keras/course/regression/resources/mse.png"
         inkscape:export-xdpi="200"
         inkscape:export-ydpi="200"><path
           id="path10582"
           d="m 228.27,710.92 0.01,0 0,0.01 0,0.01 0,0 0,0.01 0.01,0.02 0,0.01 0,0.01 0,0 0.01,0.01 0,0.01 0,0.01 0,0.01 0,0 0.01,0.01 0,0.01 0,0 0,0.01 0,0 0,0.01 0,0.01 0,0 0,0.01 0,0.01 0,0.01 0,0.01 0,0.01 0,0 0,0.01 0,0.01 c 0,0.18 -0.13,0.27 -0.29,0.27 -0.09,0 -0.25,-0.06 -0.34,-0.21 -0.02,-0.05 -0.1,-0.36 -0.14,-0.54 -0.07,-0.26 -0.14,-0.53 -0.2,-0.8 l -0.45,-1.79 c -0.04,-0.15 -0.47,-0.85 -1.13,-0.85 -0.5,0 -0.61,0.44 -0.61,0.81 0,0.46 0.17,1.07 0.5,1.95 0.16,0.41 0.2,0.52 0.2,0.72 0,0.45 -0.31,0.82 -0.81,0.82 -0.95,0 -1.32,-1.45 -1.32,-1.54 0,-0.1 0.1,-0.1 0.12,-0.1 0.1,0 0.11,0.02 0.16,0.18 0.27,0.94 0.67,1.24 1.01,1.24 0.08,0 0.25,0 0.25,-0.32 0,-0.25 -0.1,-0.51 -0.17,-0.7 -0.4,-1.06 -0.58,-1.62 -0.58,-2.09 0,-0.89 0.63,-1.19 1.21,-1.19 0.39,0 0.73,0.17 1.01,0.45 -0.13,-0.52 -0.25,-1 -0.65,-1.53 -0.26,-0.34 -0.63,-0.63 -1.09,-0.63 -0.14,0 -0.59,0.03 -0.76,0.42 0.16,0 0.29,0 0.43,0.12 0.1,0.09 0.2,0.22 0.2,0.41 0,0.3 -0.27,0.34 -0.37,0.34 -0.23,0 -0.56,-0.16 -0.56,-0.64 0,-0.5 0.44,-0.87 1.06,-0.87 1.02,0 2.05,0.91 2.33,2.03 z"
           inkscape:connector-curvature="0"
           style="fill:#000000;stroke-width:0" /></g>      <g
         id="g5822"
         transform="matrix(1,0,0,-1,-21.708076,1152.5458)"
         xml:space="preserve"
         stroke-miterlimit="10.433"
         font-style="normal"
         font-variant="normal"
         font-weight="normal"
         font-stretch="normal"
         font-size-adjust="none"
         letter-spacing="normal"
         word-spacing="normal"
         ns0:text="$x_1$"
         ns0:preamble="/home/igorbb/preamble.ini"
         style="font-style:normal;font-variant:normal;font-weight:normal;font-stretch:normal;letter-spacing:normal;word-spacing:normal;text-anchor:start;fill:none;fill-opacity:1;fill-rule:evenodd;stroke:#000000;stroke-linecap:butt;stroke-linejoin:miter;stroke-miterlimit:10.43299961;stroke-dasharray:none;stroke-dashoffset:0;stroke-opacity:1"><path
           d="m 226.76,710.13 0.01,0.03 0,0.03 0.01,0.03 0.01,0.04 0.01,0.03 0.01,0.05 0.02,0.04 0.01,0.04 0.02,0.05 0.01,0.05 0.02,0.05 0.02,0.05 0.03,0.05 0.02,0.05 0.03,0.05 0.02,0.05 0.03,0.04 0.03,0.05 0.04,0.05 0.03,0.04 0.04,0.05 0.04,0.04 0.04,0.03 0.05,0.04 0.04,0.03 0.05,0.03 0.03,0.01 0.02,0.02 0.03,0.01 0.03,0.01 0.02,0.01 0.03,0 0.03,0.01 0.03,0.01 0.03,0 0.03,0 0.03,0.01 0.04,0 c 0.05,0 0.29,0 0.49,-0.13 -0.28,-0.05 -0.47,-0.3 -0.47,-0.54 0,-0.16 0.11,-0.35 0.38,-0.35 0.21,0 0.53,0.18 0.53,0.58 0,0.52 -0.58,0.66 -0.92,0.66 -0.58,0 -0.93,-0.53 -1.05,-0.76 -0.25,0.66 -0.79,0.76 -1.08,0.76 -1.03,0 -1.6,-1.29 -1.6,-1.54 0,-0.1 0.1,-0.1 0.12,-0.1 0.08,0 0.11,0.02 0.13,0.11 0.34,1.06 1,1.31 1.33,1.31 0.19,0 0.54,-0.09 0.54,-0.67 0,-0.31 -0.17,-0.98 -0.54,-2.37 -0.15,-0.62 -0.5,-1.04 -0.94,-1.04 -0.06,0 -0.29,0 -0.5,0.13 0.25,0.05 0.47,0.26 0.47,0.54 0,0.27 -0.22,0.35 -0.37,0.35 -0.3,0 -0.55,-0.26 -0.55,-0.58 0,-0.46 0.5,-0.66 0.94,-0.66 0.66,0 1.01,0.7 1.04,0.76 0.12,-0.37 0.48,-0.76 1.08,-0.76 1.03,0 1.59,1.29 1.59,1.54 0,0.1 -0.09,0.1 -0.12,0.1 -0.09,0 -0.1,-0.04 -0.13,-0.11 -0.32,-1.07 -1,-1.31 -1.32,-1.31 -0.39,0 -0.55,0.32 -0.55,0.66 0,0.22 0.06,0.44 0.17,0.88 z"
           id="path5824"
           inkscape:connector-curvature="0"
           style="fill:#000000;stroke-width:0" /></g>    </g>
  </g>
</svg>
