<?xml version="1.0" encoding="UTF-8" standalone="no"?>
<!-- Created with Inkscape (http://www.inkscape.org/) -->

<svg
   xmlns:dc="http://purl.org/dc/elements/1.1/"
   xmlns:cc="http://creativecommons.org/ns#"
   xmlns:rdf="http://www.w3.org/1999/02/22-rdf-syntax-ns#"
   xmlns:svg="http://www.w3.org/2000/svg"
   xmlns="http://www.w3.org/2000/svg"
   xmlns:sodipodi="http://sodipodi.sourceforge.net/DTD/sodipodi-0.dtd"
   xmlns:inkscape="http://www.inkscape.org/namespaces/inkscape"
   id="svg4136"
   version="1.1"
   inkscape:version="0.91 r13725"
   xml:space="preserve"
   width="525.44885"
   height="361.10764"
   viewBox="0 0 525.44885 361.10764"
   sodipodi:docname="feedforward-nn.svg"><metadata
     id="metadata4142"><rdf:RDF><cc:Work
         rdf:about=""><dc:format>image/svg+xml</dc:format><dc:type
           rdf:resource="http://purl.org/dc/dcmitype/StillImage" /><dc:title></dc:title></cc:Work></rdf:RDF></metadata><defs
     id="defs4140"><clipPath
       clipPathUnits="userSpaceOnUse"
       id="clipPath4154"><path
         d="m 0,14 421,0 0,275 L 0,289 0,14 Z"
         id="path4156"
         inkscape:connector-curvature="0" /></clipPath></defs><sodipodi:namedview
     pagecolor="#ffffff"
     bordercolor="#666666"
     borderopacity="1"
     objecttolerance="10"
     gridtolerance="10"
     guidetolerance="10"
     inkscape:pageopacity="1"
     inkscape:pageshadow="2"
     inkscape:window-width="2560"
     inkscape:window-height="1417"
     id="namedview4138"
     showgrid="false"
     inkscape:zoom="2.4477009"
     inkscape:cx="296.88027"
     inkscape:cy="153.74986"
     inkscape:window-x="-8"
     inkscape:window-y="-8"
     inkscape:window-maximized="1"
     inkscape:current-layer="g4144" /><g
     id="g4144"
     inkscape:groupmode="layer"
     inkscape:label="feedforward-nn"
     transform="matrix(1.25,0,0,-1.25,0,361.10763)"><g
       id="g4146"><g
         id="g4148"
         transform="translate(0,-0.113892)"><g
           id="g4150"><g
             id="g4152"
             clip-path="url(#clipPath4154)"><g
               id="g4158"><g
                 id="g4160"
                 transform="matrix(1,0,0,-1,0,289)"><path
                   d="m 0.398,24.777 c 0,-13.464 10.915,-24.379 24.379,-24.379 6.465,0 12.668,2.571 17.239,7.141 4.57,4.574 7.14,10.774 7.14,17.238 0,13.465 -10.914,24.379 -24.379,24.379 -13.464,0 -24.379,-10.914 -24.379,-24.379 z"
                   style="fill:none;stroke:#000000;stroke-width:0.80000001;stroke-linecap:butt;stroke-linejoin:round;stroke-miterlimit:10;stroke-dasharray:none;stroke-opacity:1"
                   id="path4162"
                   inkscape:connector-curvature="0" /></g><path
                 d="m 19.773,265.266 c 0.024,0.125 0.047,0.211 0.075,0.261 1.207,-0.058 1.832,-0.086 1.875,-0.086 0.023,0 0.679,0.028 1.961,0.086 0.015,-0.05 0.027,-0.125 0.027,-0.226 0,-0.207 -0.023,-0.313 -0.063,-0.313 -0.5,0 -0.75,-0.105 -0.75,-0.324 0,-0.051 0.032,-0.125 0.098,-0.223 l 1.215,-1.89 c 0.09,0.137 0.223,0.332 0.398,0.59 0.176,0.257 0.313,0.461 0.414,0.613 0.106,0.156 0.204,0.324 0.286,0.5 0.093,0.172 0.136,0.309 0.136,0.398 0,0.11 -0.07,0.184 -0.211,0.227 -0.14,0.047 -0.304,0.074 -0.488,0.074 -0.183,0.008 -0.285,0.02 -0.312,0.035 -0.032,0.012 -0.051,0.11 -0.051,0.301 0,0.109 0.019,0.188 0.051,0.238 1.277,-0.058 1.929,-0.086 1.964,-0.086 0.04,0 0.61,0.028 1.711,0.086 0.024,-0.125 0.039,-0.211 0.039,-0.261 0,-0.184 -0.019,-0.278 -0.05,-0.278 -0.825,-0.097 -1.371,-0.312 -1.637,-0.636 l -1.801,-2.348 c -0.027,-0.035 -0.039,-0.078 -0.039,-0.125 0,-0.066 0.02,-0.141 0.063,-0.215 l 2,-2.961 c 0.343,-0.5 0.867,-0.777 1.574,-0.824 0.043,0 0.062,-0.09 0.062,-0.266 0,-0.125 -0.023,-0.218 -0.074,-0.285 -1.168,0.067 -1.754,0.098 -1.762,0.098 -0.043,0 -0.738,-0.031 -2.086,-0.098 -0.027,0.133 -0.039,0.215 -0.039,0.25 0,0.199 0.02,0.301 0.063,0.301 0.523,0.039 0.789,0.152 0.789,0.336 0,0.023 -0.016,0.062 -0.039,0.113 l -1.426,2.25 -1.301,-1.926 c -0.082,-0.14 -0.125,-0.261 -0.125,-0.363 0,-0.223 0.313,-0.363 0.938,-0.41 l 0.09,0 c 0.039,0 0.062,-0.094 0.062,-0.277 0,-0.125 -0.027,-0.215 -0.074,-0.274 -1.219,0.067 -1.844,0.098 -1.875,0.098 -0.027,0 -0.637,-0.031 -1.828,-0.098 -0.024,0.11 -0.035,0.199 -0.035,0.274 0,0.183 0.023,0.277 0.074,0.277 0.84,0.125 1.402,0.387 1.687,0.785 l 1.95,2.613 c 0,0.008 0.004,0.024 0.011,0.051 0.008,0.024 0.012,0.047 0.012,0.063 0,0.023 -0.012,0.062 -0.035,0.113 l -1.938,2.824 c -0.109,0.168 -0.339,0.317 -0.687,0.449 -0.352,0.141 -0.633,0.211 -0.852,0.211 l -0.05,0.278 0.003,0 z"
                 style="fill:#000000;fill-opacity:1;fill-rule:nonzero;stroke:none"
                 id="path4164"
                 inkscape:connector-curvature="0" /><path
                 d="m 29.914,256.391 c -0.047,0.023 -0.098,0.07 -0.148,0.136 -0.051,0.075 -0.075,0.133 -0.075,0.176 0,0.031 0.008,0.059 0.024,0.074 1.41,0.957 2.129,1.438 2.164,1.438 l 0.023,0 c 0.067,0 0.118,-0.078 0.153,-0.238 -0.086,-0.274 -0.125,-0.664 -0.125,-1.176 l 0,-4.922 c 0,-0.484 0.031,-0.856 0.097,-1.113 0.016,-0.059 0.137,-0.118 0.364,-0.176 0.234,-0.051 0.39,-0.074 0.476,-0.074 0.031,0 0.047,-0.075 0.047,-0.227 0,-0.074 -0.004,-0.121 -0.012,-0.137 -0.832,0.043 -1.336,0.063 -1.511,0.063 -0.133,0 -0.618,-0.02 -1.45,-0.063 -0.035,0.036 -0.05,0.102 -0.05,0.2 0,0.109 0.015,0.164 0.05,0.164 0.106,0 0.274,0.023 0.5,0.074 0.231,0.058 0.356,0.117 0.375,0.176 0.051,0.199 0.075,0.437 0.075,0.711 l 0,4.5 c 0,0.242 -0.008,0.425 -0.024,0.55 -0.019,0.125 -0.039,0.2 -0.062,0.227 -0.02,0.031 -0.047,0.047 -0.09,0.047 -0.051,0 -0.125,-0.024 -0.223,-0.074 -0.094,-0.051 -0.203,-0.114 -0.328,-0.188 l -0.25,-0.148 z"
                 style="fill:#000000;fill-opacity:1;fill-rule:nonzero;stroke:none"
                 id="path4166"
                 inkscape:connector-curvature="0" /><g
                 id="g4168"
                 transform="matrix(1,0,0,-1,0,289)"><path
                   d="m 0.398,92.66 c 0,-13.465 10.915,-24.379 24.379,-24.379 6.465,0 12.668,2.571 17.239,7.141 4.57,4.574 7.14,10.773 7.14,17.238 0,13.465 -10.914,24.379 -24.379,24.379 -13.464,0 -24.379,-10.914 -24.379,-24.379 z"
                   style="fill:none;stroke:#000000;stroke-width:0.80000001;stroke-linecap:butt;stroke-linejoin:round;stroke-miterlimit:10;stroke-dasharray:none;stroke-opacity:1"
                   id="path4170"
                   inkscape:connector-curvature="0" /></g><path
                 d="m 19.773,197.383 c 0.024,0.125 0.047,0.211 0.075,0.262 1.207,-0.059 1.832,-0.086 1.875,-0.086 0.023,0 0.679,0.027 1.961,0.086 0.015,-0.051 0.027,-0.125 0.027,-0.223 0,-0.211 -0.023,-0.313 -0.063,-0.313 -0.5,0 -0.75,-0.109 -0.75,-0.328 0,-0.047 0.032,-0.125 0.098,-0.222 l 1.215,-1.887 c 0.09,0.133 0.223,0.328 0.398,0.586 0.176,0.258 0.313,0.461 0.414,0.613 0.106,0.156 0.204,0.324 0.286,0.5 0.093,0.176 0.136,0.309 0.136,0.399 0,0.109 -0.07,0.183 -0.211,0.226 -0.14,0.051 -0.304,0.074 -0.488,0.074 -0.183,0.008 -0.285,0.02 -0.312,0.039 -0.032,0.008 -0.051,0.106 -0.051,0.297 0,0.11 0.019,0.188 0.051,0.239 1.277,-0.059 1.929,-0.086 1.964,-0.086 0.04,0 0.61,0.027 1.711,0.086 0.024,-0.125 0.039,-0.211 0.039,-0.262 0,-0.184 -0.019,-0.274 -0.05,-0.274 -0.825,-0.101 -1.371,-0.312 -1.637,-0.64 l -1.801,-2.348 c -0.027,-0.035 -0.039,-0.074 -0.039,-0.125 0,-0.066 0.02,-0.137 0.063,-0.215 l 2,-2.961 c 0.343,-0.5 0.867,-0.773 1.574,-0.824 0.043,0 0.062,-0.09 0.062,-0.262 0,-0.125 -0.023,-0.222 -0.074,-0.289 -1.168,0.067 -1.754,0.102 -1.762,0.102 -0.043,0 -0.738,-0.035 -2.086,-0.102 -0.027,0.133 -0.039,0.215 -0.039,0.25 0,0.2 0.02,0.301 0.063,0.301 0.523,0.039 0.789,0.152 0.789,0.336 0,0.027 -0.016,0.063 -0.039,0.113 l -1.426,2.25 -1.301,-1.925 c -0.082,-0.141 -0.125,-0.262 -0.125,-0.364 0,-0.222 0.313,-0.359 0.938,-0.41 l 0.09,0 c 0.039,0 0.062,-0.094 0.062,-0.277 0,-0.125 -0.027,-0.215 -0.074,-0.274 -1.219,0.067 -1.844,0.102 -1.875,0.102 -0.027,0 -0.637,-0.035 -1.828,-0.102 -0.024,0.11 -0.035,0.2 -0.035,0.274 0,0.183 0.023,0.277 0.074,0.277 0.84,0.125 1.402,0.387 1.687,0.785 l 1.95,2.614 c 0,0.007 0.004,0.027 0.011,0.05 0.008,0.024 0.012,0.047 0.012,0.063 0,0.023 -0.012,0.062 -0.035,0.113 l -1.938,2.824 c -0.109,0.168 -0.339,0.317 -0.687,0.45 -0.352,0.14 -0.633,0.214 -0.852,0.214 l -0.05,0.274 0.003,0 z"
                 style="fill:#000000;fill-opacity:1;fill-rule:nonzero;stroke:none"
                 id="path4172"
                 inkscape:connector-curvature="0" /><path
                 d="m 31.477,190.332 c 0.558,0 0.996,-0.207 1.312,-0.625 0.328,-0.418 0.488,-0.887 0.488,-1.41 0,-0.309 -0.054,-0.633 -0.16,-0.965 -0.101,-0.324 -0.265,-0.656 -0.488,-1 -0.219,-0.34 -0.418,-0.641 -0.602,-0.898 -0.175,-0.25 -0.422,-0.543 -0.738,-0.875 -0.316,-0.336 -0.535,-0.563 -0.66,-0.688 -0.117,-0.125 -0.309,-0.316 -0.574,-0.574 -0.028,-0.043 -0.02,-0.074 0.023,-0.09 l 2.414,0 c 0.231,0 0.399,0.066 0.5,0.199 0.106,0.133 0.215,0.391 0.324,0.766 0.032,0.09 0.09,0.137 0.176,0.137 0.106,0 0.18,-0.02 0.223,-0.051 -0.199,-1 -0.313,-1.582 -0.336,-1.75 -0.02,-0.133 -0.102,-0.199 -0.25,-0.199 l -4.102,0 c -0.031,0 -0.066,0.043 -0.097,0.136 -0.028,0.102 -0.039,0.18 -0.039,0.239 0.906,0.914 1.687,1.867 2.336,2.847 0.652,0.992 0.976,1.832 0.976,2.516 0,0.449 -0.113,0.793 -0.336,1.035 -0.226,0.25 -0.523,0.375 -0.89,0.375 -0.692,0 -1.247,-0.344 -1.661,-1.035 -0.05,0 -0.105,0.023 -0.164,0.074 -0.05,0.059 -0.074,0.098 -0.074,0.125 0.024,0.098 0.09,0.231 0.199,0.399 0.118,0.175 0.266,0.363 0.45,0.562 0.191,0.207 0.441,0.383 0.75,0.527 0.316,0.149 0.652,0.223 1,0.223 z"
                 style="fill:#000000;fill-opacity:1;fill-rule:nonzero;stroke:none"
                 id="path4174"
                 inkscape:connector-curvature="0" /><g
                 id="g4176"
                 transform="matrix(1,0,0,-1,0,289)"><path
                   d="m 0.398,160.543 c 0,-13.465 10.915,-24.379 24.379,-24.379 6.465,0 12.668,2.57 17.239,7.141 4.57,4.57 7.14,10.773 7.14,17.238 0,13.465 -10.914,24.379 -24.379,24.379 -13.464,0 -24.379,-10.914 -24.379,-24.379 z"
                   style="fill:none;stroke:#000000;stroke-width:0.80000001;stroke-linecap:butt;stroke-linejoin:round;stroke-miterlimit:10;stroke-dasharray:none;stroke-opacity:1"
                   id="path4178"
                   inkscape:connector-curvature="0" /></g><path
                 d="m 19.766,129.5 c 0.023,0.125 0.05,0.211 0.074,0.262 1.207,-0.059 1.832,-0.086 1.875,-0.086 0.027,0 0.68,0.027 1.965,0.086 0.015,-0.051 0.023,-0.125 0.023,-0.223 0,-0.211 -0.019,-0.312 -0.062,-0.312 -0.5,0 -0.75,-0.11 -0.75,-0.329 0,-0.046 0.031,-0.125 0.101,-0.222 l 1.211,-1.887 c 0.09,0.133 0.227,0.328 0.399,0.586 0.175,0.258 0.312,0.461 0.414,0.613 0.109,0.157 0.203,0.325 0.289,0.5 0.09,0.176 0.136,0.309 0.136,0.399 0,0.109 -0.07,0.183 -0.214,0.226 -0.141,0.051 -0.305,0.075 -0.485,0.075 -0.183,0.007 -0.289,0.019 -0.312,0.039 -0.035,0.007 -0.051,0.105 -0.051,0.296 0,0.11 0.016,0.188 0.051,0.239 1.273,-0.059 1.925,-0.086 1.961,-0.086 0.043,0 0.613,0.027 1.711,0.086 0.027,-0.125 0.039,-0.211 0.039,-0.262 0,-0.184 -0.016,-0.273 -0.051,-0.273 -0.824,-0.102 -1.371,-0.313 -1.637,-0.641 l -1.801,-2.348 c -0.023,-0.035 -0.035,-0.074 -0.035,-0.125 0,-0.066 0.02,-0.136 0.063,-0.215 l 2,-2.96 c 0.34,-0.5 0.863,-0.774 1.574,-0.825 0.039,0 0.062,-0.09 0.062,-0.261 0,-0.125 -0.027,-0.223 -0.074,-0.289 -1.168,0.066 -1.758,0.101 -1.765,0.101 -0.039,0 -0.735,-0.035 -2.086,-0.101 -0.024,0.132 -0.039,0.218 -0.039,0.25 0,0.199 0.023,0.3 0.062,0.3 0.527,0.043 0.789,0.153 0.789,0.336 0,0.028 -0.012,0.063 -0.039,0.114 l -1.422,2.25 -1.301,-1.926 c -0.086,-0.141 -0.125,-0.262 -0.125,-0.364 0,-0.222 0.313,-0.359 0.938,-0.41 l 0.086,0 c 0.043,0 0.062,-0.093 0.062,-0.277 0,-0.125 -0.023,-0.215 -0.074,-0.273 -1.219,0.066 -1.844,0.101 -1.875,0.101 -0.023,0 -0.633,-0.035 -1.824,-0.101 -0.027,0.109 -0.039,0.199 -0.039,0.273 0,0.184 0.027,0.277 0.074,0.277 0.844,0.125 1.406,0.387 1.688,0.785 l 1.953,2.614 c 0,0.008 0.004,0.027 0.011,0.051 0.008,0.023 0.012,0.046 0.012,0.062 0,0.023 -0.012,0.063 -0.039,0.113 l -1.937,2.825 c -0.106,0.167 -0.336,0.316 -0.688,0.449 -0.348,0.144 -0.633,0.215 -0.848,0.215 l -0.05,0.273 z"
                 style="fill:#000000;fill-opacity:1;fill-rule:nonzero;stroke:none"
                 id="path4180"
                 inkscape:connector-curvature="0" /><path
                 d="m 31.398,122.449 c 0.356,0 0.7,-0.148 1.024,-0.449 0.332,-0.293 0.5,-0.676 0.5,-1.148 0,-0.368 -0.094,-0.68 -0.274,-0.938 -0.175,-0.25 -0.429,-0.5 -0.765,-0.75 0.441,-0.16 0.844,-0.422 1.203,-0.789 0.363,-0.367 0.547,-0.824 0.547,-1.375 0,-0.793 -0.278,-1.43 -0.836,-1.914 -0.559,-0.481 -1.25,-0.723 -2.074,-0.723 -0.711,0 -1.25,0.125 -1.625,0.375 -0.086,0.059 -0.125,0.18 -0.125,0.364 0,0.39 0.152,0.586 0.461,0.586 0.074,0 0.152,-0.032 0.226,-0.102 0.082,-0.055 0.168,-0.137 0.262,-0.234 0.101,-0.102 0.183,-0.176 0.25,-0.227 0.242,-0.176 0.558,-0.262 0.949,-0.262 0.367,0 0.695,0.141 0.988,0.426 0.301,0.289 0.45,0.754 0.45,1.387 0,0.492 -0.157,0.906 -0.473,1.25 -0.32,0.34 -0.688,0.512 -1.113,0.512 -0.309,0 -0.582,-0.028 -0.813,-0.086 -0.058,0.074 -0.09,0.183 -0.09,0.324 0,0.058 0.008,0.097 0.028,0.125 0.574,0.097 1.031,0.301 1.375,0.597 0.34,0.301 0.511,0.711 0.511,1.227 0,0.285 -0.113,0.535 -0.336,0.75 -0.218,0.227 -0.468,0.336 -0.75,0.336 -0.183,0 -0.355,-0.031 -0.515,-0.098 -0.149,-0.058 -0.266,-0.121 -0.348,-0.187 -0.074,-0.067 -0.152,-0.141 -0.226,-0.227 l -0.125,-0.125 c -0.032,0 -0.067,0.039 -0.098,0.114 -0.035,0.082 -0.051,0.156 -0.051,0.21 0.223,0.336 0.477,0.594 0.762,0.778 0.281,0.183 0.648,0.273 1.101,0.273 z"
                 style="fill:#000000;fill-opacity:1;fill-rule:nonzero;stroke:none"
                 id="path4182"
                 inkscape:connector-curvature="0" /><g
                 id="g4184"
                 transform="matrix(1,0,0,-1,0,289)"><path
                   d="m 0.398,228.426 c 0,-13.465 10.915,-24.379 24.379,-24.379 6.465,0 12.668,2.57 17.239,7.141 4.57,4.57 7.14,10.773 7.14,17.238 0,13.465 -10.914,24.379 -24.379,24.379 -13.464,0 -24.379,-10.914 -24.379,-24.379 z"
                   style="fill:none;stroke:#000000;stroke-width:0.80000001;stroke-linecap:butt;stroke-linejoin:round;stroke-miterlimit:10;stroke-dasharray:none;stroke-opacity:1"
                   id="path4186"
                   inkscape:connector-curvature="0" /></g><path
                 d="m 19.785,61.617 c 0.024,0.125 0.051,0.215 0.074,0.262 1.207,-0.059 1.832,-0.086 1.875,-0.086 0.024,0 0.68,0.027 1.961,0.086 0.02,-0.047 0.028,-0.125 0.028,-0.223 0,-0.211 -0.024,-0.312 -0.063,-0.312 -0.5,0 -0.75,-0.11 -0.75,-0.324 0,-0.051 0.031,-0.125 0.098,-0.227 l 1.215,-1.887 c 0.09,0.133 0.222,0.328 0.398,0.586 0.176,0.258 0.313,0.465 0.414,0.613 0.106,0.157 0.203,0.325 0.285,0.5 0.094,0.176 0.141,0.309 0.141,0.399 0,0.109 -0.074,0.184 -0.215,0.226 -0.141,0.051 -0.305,0.075 -0.488,0.075 -0.184,0.008 -0.285,0.019 -0.313,0.039 -0.031,0.008 -0.047,0.105 -0.047,0.301 0,0.105 0.016,0.187 0.047,0.234 1.278,-0.059 1.93,-0.086 1.965,-0.086 0.039,0 0.613,0.027 1.711,0.086 0.027,-0.125 0.039,-0.211 0.039,-0.262 0,-0.183 -0.019,-0.273 -0.051,-0.273 -0.824,-0.102 -1.371,-0.313 -1.636,-0.637 l -1.801,-2.352 c -0.024,-0.035 -0.039,-0.074 -0.039,-0.125 0,-0.066 0.023,-0.136 0.062,-0.21 l 2,-2.965 c 0.344,-0.5 0.868,-0.774 1.578,-0.825 0.04,0 0.063,-0.085 0.063,-0.261 0,-0.125 -0.027,-0.223 -0.078,-0.289 -1.164,0.066 -1.754,0.101 -1.762,0.101 -0.043,0 -0.738,-0.035 -2.086,-0.101 -0.027,0.133 -0.039,0.218 -0.039,0.25 0,0.199 0.02,0.3 0.063,0.3 0.527,0.043 0.789,0.153 0.789,0.336 0,0.028 -0.012,0.063 -0.039,0.114 l -1.426,2.25 -1.297,-1.926 c -0.086,-0.141 -0.125,-0.262 -0.125,-0.359 0,-0.227 0.312,-0.364 0.937,-0.415 l 0.086,0 c 0.043,0 0.063,-0.093 0.063,-0.273 0,-0.125 -0.024,-0.219 -0.074,-0.277 -1.219,0.066 -1.844,0.101 -1.875,0.101 -0.028,0 -0.633,-0.035 -1.825,-0.101 -0.027,0.109 -0.039,0.199 -0.039,0.277 0,0.18 0.024,0.273 0.075,0.273 0.843,0.125 1.406,0.387 1.687,0.79 l 1.949,2.609 c 0,0.008 0.004,0.027 0.016,0.051 0.008,0.027 0.012,0.047 0.012,0.062 0,0.028 -0.016,0.063 -0.039,0.113 l -1.938,2.825 c -0.109,0.168 -0.336,0.316 -0.687,0.449 -0.352,0.144 -0.633,0.215 -0.852,0.215 l -0.047,0.273 z"
                 style="fill:#000000;fill-opacity:1;fill-rule:nonzero;stroke:none"
                 id="path4188"
                 inkscape:connector-curvature="0" /><path
                 d="m 32.777,54.605 c 0.11,0 0.164,-0.042 0.164,-0.125 l 0,-5.039 0.774,0 c 0.133,0 0.199,-0.199 0.199,-0.597 0,-0.051 -0.023,-0.094 -0.074,-0.125 l -0.899,0 0,-2.188 c -0.027,-0.043 -0.199,-0.062 -0.527,-0.062 -0.309,0 -0.461,0.031 -0.461,0.097 l 0,2.153 -3.164,0 c -0.059,0.074 -0.086,0.203 -0.086,0.386 l 3.789,5.352 c 0.074,0.098 0.168,0.148 0.285,0.148 z m -0.824,-5.164 0,3.329 c 0,0.074 -0.019,0.109 -0.062,0.109 0,-0.008 -0.004,-0.016 -0.012,-0.024 L 29.602,49.594 C 29.594,49.586 29.59,49.57 29.59,49.555 c 0,-0.075 0.031,-0.114 0.09,-0.114 l 2.273,0 z"
                 style="fill:#000000;fill-opacity:1;fill-rule:nonzero;stroke:none"
                 id="path4190"
                 inkscape:connector-curvature="0" /><g
                 id="g4192"
                 transform="matrix(1,0,0,-1,0,289)"><path
                   d="m 124,56.57 c 0,-13.461 10.914,-24.375 24.379,-24.375 6.465,0 12.668,2.567 17.238,7.141 4.571,4.57 7.141,10.769 7.141,17.234 0,13.465 -10.914,24.379 -24.379,24.379 C 134.914,80.949 124,70.035 124,56.57 Z"
                   style="fill:none;stroke:#000000;stroke-width:0.80000001;stroke-linecap:butt;stroke-linejoin:round;stroke-miterlimit:10;stroke-dasharray:none;stroke-opacity:1"
                   id="path4194"
                   inkscape:connector-curvature="0" /></g><path
                 d="m 150.816,231.996 0,-3.75 c 0,-0.543 0.043,-1.016 0.125,-1.426 0.024,-0.09 0.09,-0.16 0.2,-0.211 0.117,-0.05 0.238,-0.086 0.363,-0.101 0.125,-0.008 0.25,-0.012 0.375,-0.012 l 0.176,-0.012 c 0.031,-0.019 0.05,-0.089 0.05,-0.214 0,-0.032 -0.019,-0.09 -0.05,-0.172 -0.028,-0.086 -0.059,-0.125 -0.102,-0.125 -0.183,-0.012 -0.39,-0.035 -0.625,-0.078 -0.234,-0.032 -0.449,-0.075 -0.648,-0.125 -0.2,-0.047 -0.387,-0.102 -0.563,-0.161 -0.176,-0.05 -0.312,-0.093 -0.414,-0.125 l -0.16,-0.039 c -0.102,0 -0.152,0.102 -0.152,0.301 l 0,0.961 -0.036,0.09 c -0.828,-0.895 -1.648,-1.34 -2.464,-1.34 -0.457,0 -0.852,0.117 -1.188,0.352 -0.332,0.234 -0.578,0.543 -0.738,0.925 -0.149,0.383 -0.258,0.75 -0.324,1.098 -0.059,0.359 -0.086,0.734 -0.086,1.125 l 0,2.363 c 0,0.485 -0.09,0.821 -0.262,1.012 -0.125,0.152 -0.281,0.25 -0.465,0.301 -0.183,0.058 -0.332,0.09 -0.449,0.09 -0.117,0 -0.176,0.011 -0.176,0.035 0,0.301 0.039,0.457 0.113,0.476 1.325,0.2 2.188,0.364 2.586,0.489 l 0.051,0 0.039,0.011 c 0.051,0 0.078,-0.054 0.086,-0.164 0.016,-0.097 0.024,-0.175 0.012,-0.222 -0.074,-0.602 -0.11,-1.063 -0.11,-1.391 l 0,-2.535 c 0,-0.961 0.141,-1.668 0.422,-2.125 0.293,-0.461 0.766,-0.688 1.414,-0.688 0.375,0 0.731,0.145 1.063,0.438 0.34,0.301 0.512,0.555 0.512,0.762 l 0,3.511 c 0,0.485 -0.086,0.821 -0.262,1.012 -0.125,0.152 -0.277,0.25 -0.461,0.301 -0.184,0.058 -0.336,0.09 -0.453,0.09 -0.113,0 -0.172,0.011 -0.172,0.035 0,0.301 0.035,0.457 0.109,0.476 1.328,0.2 2.188,0.364 2.59,0.489 l 0.051,0 0.035,0.011 c 0.051,0 0.078,-0.054 0.09,-0.164 0.016,-0.097 0.02,-0.175 0.012,-0.222 -0.075,-0.602 -0.114,-1.051 -0.114,-1.352 z"
                 style="fill:#000000;fill-opacity:1;fill-rule:nonzero;stroke:none"
                 id="path4196"
                 inkscape:connector-curvature="0" /><path
                 d="m 153.984,224.598 c -0.05,0.023 -0.097,0.07 -0.148,0.136 -0.051,0.075 -0.074,0.133 -0.074,0.176 0,0.031 0.008,0.055 0.023,0.074 1.41,0.957 2.129,1.438 2.164,1.438 l 0.024,0 c 0.066,0 0.117,-0.082 0.148,-0.238 -0.082,-0.274 -0.125,-0.668 -0.125,-1.176 l 0,-4.926 c 0,-0.48 0.035,-0.852 0.102,-1.109 0.015,-0.059 0.136,-0.118 0.363,-0.176 0.234,-0.051 0.391,-0.074 0.473,-0.074 0.035,0 0.05,-0.078 0.05,-0.227 0,-0.074 -0.004,-0.121 -0.011,-0.137 -0.832,0.039 -1.336,0.063 -1.512,0.063 -0.133,0 -0.617,-0.024 -1.449,-0.063 -0.035,0.032 -0.051,0.098 -0.051,0.2 0,0.109 0.016,0.164 0.051,0.164 0.105,0 0.273,0.023 0.5,0.074 0.23,0.058 0.355,0.117 0.375,0.176 0.047,0.199 0.074,0.437 0.074,0.711 l 0,4.5 c 0,0.242 -0.008,0.425 -0.027,0.55 -0.016,0.125 -0.036,0.2 -0.063,0.223 -0.016,0.035 -0.043,0.051 -0.086,0.051 -0.051,0 -0.125,-0.024 -0.226,-0.074 -0.09,-0.051 -0.2,-0.114 -0.325,-0.188 l -0.25,-0.148 z"
                 style="fill:#000000;fill-opacity:1;fill-rule:nonzero;stroke:none"
                 id="path4198"
                 inkscape:connector-curvature="0" /><g
                 id="g4200"
                 transform="matrix(1,0,0,-1,0,289)"><path
                   d="m 124,124.453 c 0,-13.461 10.914,-24.375 24.379,-24.375 6.465,0 12.668,2.567 17.238,7.137 4.571,4.574 7.141,10.773 7.141,17.238 0,13.465 -10.914,24.379 -24.379,24.379 -13.465,0 -24.379,-10.914 -24.379,-24.379 z"
                   style="fill:none;stroke:#000000;stroke-width:0.80000001;stroke-linecap:butt;stroke-linejoin:round;stroke-miterlimit:10;stroke-dasharray:none;stroke-opacity:1"
                   id="path4202"
                   inkscape:connector-curvature="0" /></g><path
                 d="m 150.816,164.113 0,-3.75 c 0,-0.543 0.043,-1.015 0.125,-1.425 0.024,-0.09 0.09,-0.161 0.2,-0.211 0.117,-0.051 0.238,-0.082 0.363,-0.102 0.125,-0.008 0.25,-0.012 0.375,-0.012 l 0.176,-0.011 c 0.031,-0.016 0.05,-0.09 0.05,-0.215 0,-0.032 -0.019,-0.09 -0.05,-0.172 -0.028,-0.086 -0.059,-0.125 -0.102,-0.125 -0.183,-0.008 -0.39,-0.035 -0.625,-0.078 -0.234,-0.032 -0.449,-0.074 -0.648,-0.125 -0.2,-0.047 -0.387,-0.102 -0.563,-0.16 -0.176,-0.051 -0.312,-0.094 -0.414,-0.125 l -0.16,-0.039 c -0.102,0 -0.152,0.101 -0.152,0.3 l 0,0.961 -0.036,0.09 c -0.828,-0.891 -1.648,-1.34 -2.464,-1.34 -0.457,0 -0.852,0.117 -1.188,0.352 -0.332,0.234 -0.578,0.543 -0.738,0.926 -0.149,0.382 -0.258,0.75 -0.324,1.097 -0.059,0.36 -0.086,0.735 -0.086,1.125 l 0,2.364 c 0,0.484 -0.09,0.82 -0.262,1.011 -0.125,0.153 -0.281,0.25 -0.465,0.301 -0.183,0.059 -0.332,0.09 -0.449,0.09 -0.117,0 -0.176,0.012 -0.176,0.035 0,0.301 0.039,0.461 0.113,0.477 1.325,0.199 2.188,0.363 2.586,0.488 l 0.051,0 0.039,0.012 c 0.051,0 0.078,-0.055 0.086,-0.164 0.016,-0.098 0.024,-0.176 0.012,-0.223 -0.074,-0.602 -0.11,-1.063 -0.11,-1.391 l 0,-2.535 c 0,-0.957 0.141,-1.668 0.422,-2.125 0.293,-0.457 0.766,-0.687 1.414,-0.687 0.375,0 0.731,0.144 1.063,0.437 0.34,0.301 0.512,0.555 0.512,0.762 l 0,3.512 c 0,0.484 -0.086,0.82 -0.262,1.011 -0.125,0.153 -0.277,0.25 -0.461,0.301 -0.184,0.059 -0.336,0.09 -0.453,0.09 -0.113,0 -0.172,0.012 -0.172,0.035 0,0.301 0.035,0.461 0.109,0.477 1.328,0.199 2.188,0.363 2.59,0.488 l 0.051,0 0.035,0.012 c 0.051,0 0.078,-0.055 0.09,-0.164 0.016,-0.098 0.02,-0.176 0.012,-0.223 -0.075,-0.602 -0.114,-1.051 -0.114,-1.352 z"
                 style="fill:#000000;fill-opacity:1;fill-rule:nonzero;stroke:none"
                 id="path4204"
                 inkscape:connector-curvature="0" /><path
                 d="m 155.547,158.539 c 0.558,0 0.996,-0.207 1.312,-0.625 0.325,-0.418 0.489,-0.887 0.489,-1.414 0,-0.309 -0.055,-0.629 -0.164,-0.961 -0.098,-0.324 -0.262,-0.66 -0.485,-1 -0.219,-0.344 -0.418,-0.641 -0.601,-0.902 -0.176,-0.25 -0.422,-0.539 -0.739,-0.875 -0.316,-0.332 -0.535,-0.563 -0.66,-0.688 -0.117,-0.125 -0.308,-0.316 -0.578,-0.574 -0.023,-0.039 -0.016,-0.07 0.027,-0.086 l 2.411,0 c 0.234,0 0.402,0.066 0.5,0.199 0.109,0.133 0.218,0.387 0.328,0.762 0.031,0.094 0.09,0.137 0.172,0.137 0.109,0 0.183,-0.016 0.226,-0.047 -0.199,-1 -0.312,-1.586 -0.336,-1.75 -0.019,-0.133 -0.101,-0.203 -0.25,-0.203 l -4.101,0 c -0.035,0 -0.067,0.047 -0.102,0.14 -0.023,0.098 -0.035,0.18 -0.035,0.235 0.906,0.918 1.687,1.867 2.336,2.851 0.652,0.992 0.976,1.828 0.976,2.512 0,0.449 -0.113,0.797 -0.339,1.039 -0.223,0.25 -0.52,0.375 -0.887,0.375 -0.692,0 -1.246,-0.348 -1.66,-1.039 -0.051,0 -0.106,0.027 -0.164,0.074 -0.051,0.059 -0.075,0.102 -0.075,0.125 0.024,0.102 0.09,0.235 0.2,0.403 0.117,0.175 0.265,0.363 0.449,0.562 0.191,0.207 0.441,0.383 0.75,0.524 0.316,0.152 0.652,0.226 1,0.226 z"
                 style="fill:#000000;fill-opacity:1;fill-rule:nonzero;stroke:none"
                 id="path4206"
                 inkscape:connector-curvature="0" /><g
                 id="g4208"
                 transform="matrix(1,0,0,-1,0,289)"><path
                   d="m 124,192.336 c 0,-13.461 10.914,-24.375 24.379,-24.375 6.465,0 12.668,2.566 17.238,7.137 4.571,4.574 7.141,10.773 7.141,17.238 0,13.465 -10.914,24.379 -24.379,24.379 -13.465,0 -24.379,-10.914 -24.379,-24.379 z"
                   style="fill:none;stroke:#000000;stroke-width:0.80000001;stroke-linecap:butt;stroke-linejoin:round;stroke-miterlimit:10;stroke-dasharray:none;stroke-opacity:1"
                   id="path4210"
                   inkscape:connector-curvature="0" /></g><path
                 d="m 150.809,96.23 0,-3.75 c 0,-0.542 0.043,-1.015 0.125,-1.425 0.027,-0.09 0.093,-0.16 0.203,-0.211 0.113,-0.051 0.234,-0.082 0.359,-0.102 0.125,-0.008 0.25,-0.012 0.375,-0.012 l 0.176,-0.011 c 0.035,-0.016 0.051,-0.086 0.051,-0.211 0,-0.035 -0.016,-0.094 -0.051,-0.176 -0.024,-0.086 -0.059,-0.125 -0.098,-0.125 -0.183,-0.008 -0.394,-0.035 -0.625,-0.074 -0.234,-0.035 -0.453,-0.078 -0.652,-0.125 -0.199,-0.051 -0.387,-0.106 -0.563,-0.164 -0.175,-0.051 -0.312,-0.094 -0.41,-0.125 l -0.164,-0.039 c -0.101,0 -0.148,0.101 -0.148,0.3 l 0,0.965 -0.039,0.086 c -0.825,-0.89 -1.645,-1.336 -2.461,-1.336 -0.461,0 -0.856,0.114 -1.188,0.348 -0.336,0.234 -0.582,0.543 -0.738,0.926 -0.152,0.383 -0.258,0.75 -0.324,1.101 -0.059,0.356 -0.09,0.731 -0.09,1.125 l 0,2.36 c 0,0.484 -0.086,0.82 -0.262,1.015 -0.125,0.149 -0.277,0.25 -0.461,0.297 -0.183,0.059 -0.336,0.09 -0.453,0.09 -0.113,0 -0.172,0.012 -0.172,0.035 0,0.301 0.035,0.461 0.11,0.477 1.328,0.199 2.187,0.363 2.589,0.488 l 0.051,0 0.035,0.012 c 0.051,0 0.079,-0.055 0.09,-0.164 0.016,-0.098 0.02,-0.172 0.012,-0.223 -0.074,-0.602 -0.113,-1.062 -0.113,-1.387 l 0,-2.539 c 0,-0.957 0.14,-1.668 0.425,-2.125 0.29,-0.457 0.762,-0.687 1.411,-0.687 0.375,0 0.73,0.144 1.062,0.437 0.344,0.301 0.516,0.555 0.516,0.762 l 0,3.512 c 0,0.484 -0.09,0.82 -0.266,1.015 -0.125,0.149 -0.277,0.25 -0.461,0.297 -0.183,0.059 -0.332,0.09 -0.449,0.09 -0.117,0 -0.176,0.012 -0.176,0.035 0,0.301 0.039,0.461 0.113,0.477 1.325,0.199 2.188,0.363 2.586,0.488 l 0.051,0 0.039,0.012 c 0.047,0 0.078,-0.055 0.086,-0.164 0.016,-0.098 0.02,-0.172 0.012,-0.223 -0.074,-0.602 -0.113,-1.051 -0.113,-1.352 z"
                 style="fill:#000000;fill-opacity:1;fill-rule:nonzero;stroke:none"
                 id="path4212"
                 inkscape:connector-curvature="0" /><path
                 d="m 155.465,90.656 c 0.359,0 0.703,-0.148 1.027,-0.449 0.332,-0.293 0.5,-0.676 0.5,-1.152 0,-0.367 -0.094,-0.68 -0.277,-0.938 -0.172,-0.25 -0.426,-0.5 -0.762,-0.75 0.442,-0.156 0.844,-0.418 1.199,-0.785 0.368,-0.367 0.551,-0.824 0.551,-1.375 0,-0.793 -0.277,-1.43 -0.836,-1.914 -0.558,-0.484 -1.25,-0.723 -2.074,-0.723 -0.711,0 -1.25,0.125 -1.625,0.375 -0.086,0.055 -0.125,0.176 -0.125,0.36 0,0.394 0.152,0.59 0.461,0.59 0.074,0 0.148,-0.036 0.226,-0.102 0.083,-0.059 0.168,-0.137 0.262,-0.238 0.098,-0.098 0.184,-0.172 0.25,-0.223 0.242,-0.176 0.559,-0.262 0.949,-0.262 0.368,0 0.696,0.141 0.989,0.422 0.3,0.293 0.449,0.754 0.449,1.391 0,0.488 -0.16,0.906 -0.477,1.25 -0.316,0.34 -0.687,0.512 -1.109,0.512 -0.309,0 -0.582,-0.032 -0.813,-0.09 -0.058,0.078 -0.089,0.183 -0.089,0.328 0,0.055 0.007,0.097 0.027,0.125 0.574,0.097 1.031,0.297 1.375,0.597 0.34,0.301 0.512,0.708 0.512,1.227 0,0.281 -0.114,0.531 -0.34,0.75 -0.215,0.223 -0.465,0.336 -0.75,0.336 -0.184,0 -0.352,-0.031 -0.512,-0.098 -0.148,-0.058 -0.265,-0.121 -0.348,-0.187 -0.078,-0.07 -0.152,-0.145 -0.226,-0.227 l -0.125,-0.125 c -0.035,0 -0.066,0.039 -0.102,0.114 -0.031,0.082 -0.047,0.152 -0.047,0.21 0.223,0.333 0.477,0.594 0.762,0.778 0.281,0.18 0.649,0.273 1.098,0.273 z"
                 style="fill:#000000;fill-opacity:1;fill-rule:nonzero;stroke:none"
                 id="path4214"
                 inkscape:connector-curvature="0" /><g
                 id="g4216"
                 transform="matrix(1,0,0,-1,0,289)"><path
                   d="m 247.602,24.777 c 0,-13.464 10.914,-24.379 24.378,-24.379 6.465,0 12.665,2.571 17.239,7.141 4.57,4.574 7.14,10.774 7.14,17.238 0,13.465 -10.914,24.379 -24.379,24.379 -13.464,0 -24.378,-10.914 -24.378,-24.379 z"
                   style="fill:none;stroke:#000000;stroke-width:0.80000001;stroke-linecap:butt;stroke-linejoin:round;stroke-miterlimit:10;stroke-dasharray:none;stroke-opacity:1"
                   id="path4218"
                   inkscape:connector-curvature="0" /></g><path
                 d="m 273.668,264.391 c 0,0.398 -0.449,0.597 -1.352,0.597 -0.046,0 -0.074,0.078 -0.074,0.227 0,0.16 0.028,0.262 0.074,0.312 0.133,-0.007 0.387,-0.023 0.762,-0.05 0.375,-0.024 0.715,-0.036 1.016,-0.036 l 1.875,0.086 c 0.023,-0.074 0.035,-0.168 0.035,-0.273 0,-0.176 -0.039,-0.266 -0.125,-0.266 -0.172,0 -0.406,-0.047 -0.699,-0.148 -0.282,-0.102 -0.473,-0.262 -0.575,-0.488 l -2.988,-6.739 c -0.023,-0.082 -0.097,-0.172 -0.222,-0.273 -0.125,-0.11 -0.235,-0.164 -0.329,-0.164 -0.082,0 -0.136,0.027 -0.16,0.078 -0.211,0.465 -0.676,1.539 -1.402,3.223 -0.715,1.691 -1.34,3.07 -1.875,4.136 -0.125,0.25 -0.496,0.375 -1.109,0.375 -0.051,0 -0.079,0.082 -0.079,0.239 0,0.152 0.028,0.25 0.079,0.3 1.289,-0.058 1.941,-0.086 1.949,-0.086 l 1.875,0.086 c 0.023,-0.05 0.027,-0.152 0.011,-0.312 -0.015,-0.149 -0.046,-0.227 -0.089,-0.227 -0.606,0 -0.911,-0.105 -0.911,-0.324 0,-0.023 0.004,-0.051 0.012,-0.074 l 2.25,-5.074 1.899,4.312 c 0.101,0.235 0.152,0.422 0.152,0.563 z"
                 style="fill:#000000;fill-opacity:1;fill-rule:nonzero;stroke:none"
                 id="path4220"
                 inkscape:connector-curvature="0" /><path
                 d="m 277.359,256.391 c -0.046,0.023 -0.097,0.07 -0.148,0.136 -0.051,0.075 -0.074,0.133 -0.074,0.176 0,0.031 0.008,0.059 0.023,0.074 1.41,0.957 2.129,1.438 2.164,1.438 l 0.024,0 c 0.066,0 0.117,-0.078 0.152,-0.238 -0.086,-0.274 -0.125,-0.664 -0.125,-1.176 l 0,-4.922 c 0,-0.484 0.031,-0.856 0.098,-1.113 0.019,-0.059 0.136,-0.118 0.363,-0.176 0.234,-0.051 0.391,-0.074 0.477,-0.074 0.031,0 0.046,-0.075 0.046,-0.227 0,-0.074 -0.004,-0.121 -0.011,-0.137 -0.832,0.043 -1.336,0.063 -1.512,0.063 -0.133,0 -0.617,-0.02 -1.449,-0.063 -0.035,0.036 -0.051,0.102 -0.051,0.2 0,0.109 0.016,0.164 0.051,0.164 0.109,0 0.273,0.023 0.5,0.074 0.234,0.058 0.359,0.117 0.375,0.176 0.051,0.199 0.074,0.437 0.074,0.711 l 0,4.5 c 0,0.242 -0.008,0.425 -0.023,0.55 -0.02,0.125 -0.04,0.2 -0.063,0.227 -0.02,0.031 -0.047,0.047 -0.09,0.047 -0.047,0 -0.125,-0.024 -0.222,-0.074 -0.094,-0.051 -0.204,-0.114 -0.329,-0.188 l -0.25,-0.148 z"
                 style="fill:#000000;fill-opacity:1;fill-rule:nonzero;stroke:none"
                 id="path4222"
                 inkscape:connector-curvature="0" /><g
                 id="g4224"
                 transform="matrix(1,0,0,-1,0,289)"><path
                   d="m 247.602,92.66 c 0,-13.465 10.914,-24.379 24.378,-24.379 6.465,0 12.665,2.571 17.239,7.141 4.57,4.574 7.14,10.773 7.14,17.238 0,13.465 -10.914,24.379 -24.379,24.379 -13.464,0 -24.378,-10.914 -24.378,-24.379 z"
                   style="fill:none;stroke:#000000;stroke-width:0.80000001;stroke-linecap:butt;stroke-linejoin:round;stroke-miterlimit:10;stroke-dasharray:none;stroke-opacity:1"
                   id="path4226"
                   inkscape:connector-curvature="0" /></g><path
                 d="m 273.668,196.508 c 0,0.398 -0.449,0.601 -1.352,0.601 -0.046,0 -0.074,0.075 -0.074,0.223 0,0.16 0.028,0.262 0.074,0.313 0.133,-0.008 0.387,-0.024 0.762,-0.051 0.375,-0.024 0.715,-0.035 1.016,-0.035 l 1.875,0.086 c 0.023,-0.075 0.035,-0.168 0.035,-0.274 0,-0.176 -0.039,-0.262 -0.125,-0.262 -0.172,0 -0.406,-0.05 -0.699,-0.152 -0.282,-0.098 -0.473,-0.262 -0.575,-0.488 l -2.988,-6.735 c -0.023,-0.086 -0.097,-0.175 -0.222,-0.277 -0.125,-0.109 -0.235,-0.16 -0.329,-0.16 -0.082,0 -0.136,0.023 -0.16,0.074 -0.211,0.465 -0.676,1.539 -1.402,3.223 -0.715,1.691 -1.34,3.07 -1.875,4.14 -0.125,0.25 -0.496,0.375 -1.109,0.375 -0.051,0 -0.079,0.079 -0.079,0.235 0,0.152 0.028,0.25 0.079,0.301 1.289,-0.059 1.941,-0.086 1.949,-0.086 l 1.875,0.086 c 0.023,-0.051 0.027,-0.153 0.011,-0.313 -0.015,-0.148 -0.046,-0.223 -0.089,-0.223 -0.606,0 -0.911,-0.109 -0.911,-0.328 0,-0.023 0.004,-0.047 0.012,-0.074 l 2.25,-5.074 1.899,4.312 c 0.101,0.235 0.152,0.422 0.152,0.563 z"
                 style="fill:#000000;fill-opacity:1;fill-rule:nonzero;stroke:none"
                 id="path4228"
                 inkscape:connector-curvature="0" /><path
                 d="m 278.922,190.332 c 0.558,0 0.996,-0.207 1.312,-0.625 0.329,-0.418 0.489,-0.887 0.489,-1.41 0,-0.309 -0.055,-0.633 -0.16,-0.965 -0.102,-0.324 -0.266,-0.656 -0.489,-1 -0.219,-0.34 -0.418,-0.641 -0.601,-0.898 -0.176,-0.25 -0.418,-0.543 -0.739,-0.875 -0.316,-0.336 -0.535,-0.563 -0.66,-0.688 -0.117,-0.125 -0.308,-0.316 -0.574,-0.574 -0.027,-0.043 -0.02,-0.074 0.023,-0.09 l 2.415,0 c 0.23,0 0.398,0.066 0.5,0.199 0.105,0.133 0.214,0.391 0.324,0.766 0.031,0.09 0.09,0.137 0.176,0.137 0.105,0 0.183,-0.02 0.222,-0.051 -0.199,-1 -0.312,-1.582 -0.336,-1.75 -0.015,-0.133 -0.101,-0.199 -0.25,-0.199 l -4.101,0 c -0.032,0 -0.067,0.043 -0.098,0.136 -0.027,0.102 -0.039,0.18 -0.039,0.239 0.91,0.914 1.687,1.867 2.336,2.847 0.652,0.992 0.976,1.832 0.976,2.516 0,0.449 -0.113,0.793 -0.335,1.035 -0.227,0.25 -0.524,0.375 -0.891,0.375 -0.692,0 -1.242,-0.344 -1.66,-1.035 -0.051,0 -0.106,0.023 -0.164,0.074 -0.051,0.059 -0.075,0.098 -0.075,0.125 0.024,0.098 0.094,0.231 0.2,0.399 0.117,0.175 0.269,0.363 0.449,0.562 0.195,0.207 0.445,0.383 0.75,0.527 0.32,0.149 0.652,0.223 1,0.223 z"
                 style="fill:#000000;fill-opacity:1;fill-rule:nonzero;stroke:none"
                 id="path4230"
                 inkscape:connector-curvature="0" /><g
                 id="g4232"
                 transform="matrix(1,0,0,-1,0,289)"><path
                   d="m 247.602,160.543 c 0,-13.465 10.914,-24.379 24.378,-24.379 6.465,0 12.665,2.57 17.239,7.141 4.57,4.57 7.14,10.773 7.14,17.238 0,13.465 -10.914,24.379 -24.379,24.379 -13.464,0 -24.378,-10.914 -24.378,-24.379 z"
                   style="fill:none;stroke:#000000;stroke-width:0.80000001;stroke-linecap:butt;stroke-linejoin:round;stroke-miterlimit:10;stroke-dasharray:none;stroke-opacity:1"
                   id="path4234"
                   inkscape:connector-curvature="0" /></g><path
                 d="m 273.66,128.625 c 0,0.398 -0.449,0.602 -1.347,0.602 -0.051,0 -0.075,0.074 -0.075,0.222 0,0.16 0.024,0.262 0.075,0.313 0.132,-0.008 0.386,-0.024 0.761,-0.051 0.375,-0.023 0.711,-0.035 1.012,-0.035 l 1.875,0.086 c 0.023,-0.074 0.039,-0.164 0.039,-0.274 0,-0.175 -0.043,-0.261 -0.125,-0.261 -0.176,0 -0.41,-0.051 -0.699,-0.153 -0.285,-0.097 -0.477,-0.261 -0.578,-0.488 l -2.985,-6.734 c -0.027,-0.086 -0.101,-0.176 -0.226,-0.278 -0.125,-0.105 -0.235,-0.16 -0.324,-0.16 -0.086,0 -0.137,0.024 -0.165,0.074 -0.207,0.465 -0.675,1.543 -1.398,3.223 -0.719,1.695 -1.344,3.074 -1.875,4.141 -0.125,0.25 -0.496,0.375 -1.113,0.375 -0.051,0 -0.074,0.078 -0.074,0.234 0,0.152 0.023,0.25 0.074,0.301 1.293,-0.059 1.941,-0.086 1.949,-0.086 l 1.875,0.086 c 0.027,-0.051 0.031,-0.153 0.012,-0.313 -0.016,-0.148 -0.043,-0.222 -0.086,-0.222 -0.61,0 -0.914,-0.11 -0.914,-0.329 0,-0.023 0.004,-0.046 0.011,-0.074 l 2.25,-5.074 1.903,4.313 c 0.097,0.234 0.148,0.421 0.148,0.562 z"
                 style="fill:#000000;fill-opacity:1;fill-rule:nonzero;stroke:none"
                 id="path4236"
                 inkscape:connector-curvature="0" /><path
                 d="m 278.844,122.449 c 0.355,0 0.699,-0.148 1.023,-0.449 0.332,-0.293 0.5,-0.676 0.5,-1.148 0,-0.368 -0.09,-0.68 -0.273,-0.938 -0.176,-0.25 -0.43,-0.5 -0.766,-0.75 0.445,-0.16 0.844,-0.422 1.203,-0.789 0.367,-0.367 0.547,-0.824 0.547,-1.375 0,-0.793 -0.277,-1.43 -0.836,-1.914 -0.558,-0.481 -1.25,-0.723 -2.074,-0.723 -0.707,0 -1.25,0.125 -1.625,0.375 -0.082,0.059 -0.125,0.18 -0.125,0.364 0,0.39 0.152,0.586 0.461,0.586 0.074,0 0.152,-0.032 0.226,-0.102 0.083,-0.055 0.172,-0.137 0.262,-0.234 0.102,-0.102 0.184,-0.176 0.25,-0.227 0.242,-0.176 0.559,-0.262 0.949,-0.262 0.368,0 0.696,0.141 0.989,0.426 0.3,0.289 0.449,0.754 0.449,1.387 0,0.492 -0.156,0.906 -0.473,1.25 -0.316,0.34 -0.687,0.512 -1.113,0.512 -0.309,0 -0.578,-0.028 -0.813,-0.086 -0.058,0.074 -0.089,0.183 -0.089,0.324 0,0.058 0.011,0.097 0.027,0.125 0.574,0.097 1.031,0.301 1.375,0.597 0.34,0.301 0.512,0.711 0.512,1.227 0,0.285 -0.114,0.535 -0.336,0.75 -0.219,0.227 -0.469,0.336 -0.75,0.336 -0.184,0 -0.356,-0.031 -0.516,-0.098 -0.148,-0.058 -0.265,-0.121 -0.348,-0.187 -0.074,-0.067 -0.152,-0.141 -0.226,-0.227 l -0.125,-0.125 c -0.031,0 -0.066,0.039 -0.098,0.114 -0.035,0.082 -0.051,0.156 -0.051,0.21 0.223,0.336 0.481,0.594 0.762,0.778 0.285,0.183 0.649,0.273 1.102,0.273 z"
                 style="fill:#000000;fill-opacity:1;fill-rule:nonzero;stroke:none"
                 id="path4238"
                 inkscape:connector-curvature="0" /><g
                 id="g4240"
                 transform="matrix(1,0,0,-1,0,289)"><path
                   d="m 247.602,228.426 c 0,-13.465 10.914,-24.379 24.378,-24.379 6.465,0 12.665,2.57 17.239,7.141 4.57,4.57 7.14,10.773 7.14,17.238 0,13.465 -10.914,24.379 -24.379,24.379 -13.464,0 -24.378,-10.914 -24.378,-24.379 z"
                   style="fill:none;stroke:#000000;stroke-width:0.80000001;stroke-linecap:butt;stroke-linejoin:round;stroke-miterlimit:10;stroke-dasharray:none;stroke-opacity:1"
                   id="path4242"
                   inkscape:connector-curvature="0" /></g><path
                 d="m 273.68,60.742 c 0,0.403 -0.45,0.602 -1.348,0.602 -0.051,0 -0.078,0.074 -0.078,0.222 0,0.161 0.027,0.266 0.078,0.313 0.133,-0.008 0.387,-0.024 0.762,-0.047 0.375,-0.027 0.711,-0.039 1.011,-0.039 l 1.875,0.086 c 0.024,-0.074 0.04,-0.164 0.04,-0.274 0,-0.175 -0.043,-0.261 -0.125,-0.261 -0.176,0 -0.411,-0.051 -0.704,-0.153 -0.281,-0.097 -0.472,-0.261 -0.574,-0.484 l -2.988,-6.738 c -0.024,-0.086 -0.098,-0.176 -0.223,-0.278 -0.125,-0.105 -0.234,-0.16 -0.324,-0.16 -0.086,0 -0.141,0.024 -0.164,0.074 -0.207,0.465 -0.676,1.543 -1.398,3.227 -0.719,1.691 -1.344,3.07 -1.875,4.137 -0.125,0.25 -0.497,0.375 -1.114,0.375 -0.051,0 -0.074,0.078 -0.074,0.238 0,0.148 0.023,0.25 0.074,0.297 1.289,-0.059 1.942,-0.086 1.949,-0.086 l 1.875,0.086 c 0.024,-0.047 0.028,-0.152 0.012,-0.313 -0.015,-0.148 -0.047,-0.222 -0.086,-0.222 -0.609,0 -0.914,-0.11 -0.914,-0.324 0,-0.028 0.004,-0.051 0.012,-0.079 l 2.25,-5.074 1.902,4.313 c 0.098,0.234 0.149,0.422 0.149,0.562 z"
                 style="fill:#000000;fill-opacity:1;fill-rule:nonzero;stroke:none"
                 id="path4244"
                 inkscape:connector-curvature="0" /><path
                 d="m 280.223,54.605 c 0.109,0 0.164,-0.042 0.164,-0.125 l 0,-5.039 0.773,0 c 0.133,0 0.199,-0.199 0.199,-0.597 0,-0.051 -0.023,-0.094 -0.074,-0.125 l -0.898,0 0,-2.188 c -0.024,-0.043 -0.199,-0.062 -0.524,-0.062 -0.308,0 -0.465,0.031 -0.465,0.097 l 0,2.153 -3.16,0 c -0.058,0.074 -0.09,0.203 -0.09,0.386 l 3.79,5.352 c 0.074,0.098 0.167,0.148 0.285,0.148 z m -0.825,-5.164 0,3.329 c 0,0.074 -0.019,0.109 -0.062,0.109 0,-0.008 -0.004,-0.016 -0.012,-0.024 l -2.273,-3.261 c -0.012,-0.008 -0.016,-0.024 -0.016,-0.039 0,-0.075 0.031,-0.114 0.09,-0.114 l 2.273,0 z"
                 style="fill:#000000;fill-opacity:1;fill-rule:nonzero;stroke:none"
                 id="path4246"
                 inkscape:connector-curvature="0" /><g
                 id="g4248"
                 transform="matrix(1,0,0,-1,0,289)"><path
                   d="m 371.203,124.453 c 0,-13.461 10.914,-24.375 24.379,-24.375 6.465,0 12.664,2.567 17.238,7.137 4.571,4.574 7.141,10.773 7.141,17.238 0,13.465 -10.918,24.379 -24.379,24.379 -13.465,0 -24.379,-10.914 -24.379,-24.379 z"
                   style="fill:none;stroke:#000000;stroke-width:0.80000001;stroke-linecap:butt;stroke-linejoin:round;stroke-miterlimit:10;stroke-dasharray:none;stroke-opacity:1"
                   id="path4250"
                   inkscape:connector-curvature="0" /></g><path
                 d="m 392.586,165.762 c 0.215,0 0.41,0.004 0.586,0.015 0.183,0.016 0.391,0.028 0.625,0.036 0.234,0.015 0.437,0.031 0.613,0.039 0.024,-0.075 0.035,-0.168 0.035,-0.278 0,-0.172 -0.023,-0.261 -0.074,-0.261 -0.098,0 -0.266,-0.043 -0.5,-0.137 -0.234,-0.082 -0.363,-0.172 -0.387,-0.262 l 0,-0.039 c 0,-0.223 0.672,-1.852 2.012,-4.887 l 1.426,4.102 c 0.082,0.265 0.125,0.461 0.125,0.586 0,0.183 -0.098,0.332 -0.289,0.449 -0.192,0.125 -0.449,0.188 -0.774,0.188 -0.05,0 -0.074,0.082 -0.074,0.238 0,0.148 0.024,0.25 0.074,0.301 0.161,-0.008 0.399,-0.028 0.727,-0.051 0.324,-0.024 0.637,-0.039 0.937,-0.039 0.274,0 0.575,0.015 0.899,0.039 0.324,0.023 0.57,0.043 0.738,0.051 0.024,-0.075 0.035,-0.168 0.035,-0.278 0,-0.172 -0.023,-0.261 -0.074,-0.261 -0.164,0 -0.391,-0.059 -0.676,-0.176 -0.273,-0.106 -0.457,-0.285 -0.547,-0.535 l -3.351,-9.063 c -0.293,-0.777 -0.621,-1.316 -0.988,-1.625 -0.36,-0.309 -0.688,-0.465 -0.989,-0.465 -0.257,0 -0.449,0.086 -0.574,0.25 -0.125,0.16 -0.187,0.324 -0.187,0.489 0,0.277 0.089,0.476 0.261,0.601 1.035,0 1.723,0.535 2.063,1.613 0.058,0.184 0.129,0.407 0.215,0.672 0.09,0.262 0.16,0.473 0.211,0.641 l -2.676,6.562 c -0.141,0.297 -0.266,0.512 -0.375,0.637 -0.113,0.117 -0.289,0.211 -0.524,0.285 -0.226,0.078 -0.41,0.114 -0.55,0.114 -0.051,0 -0.075,0.082 -0.075,0.238 0,0.148 0.024,0.25 0.075,0.301 1.293,-0.059 1.968,-0.09 2.027,-0.09 z"
                 style="fill:#000000;fill-opacity:1;fill-rule:nonzero;stroke:none"
                 id="path4252"
                 inkscape:connector-curvature="0" /><path
                 d="m 400.598,156.715 c -0.051,0.023 -0.102,0.07 -0.153,0.137 -0.047,0.074 -0.074,0.132 -0.074,0.175 0,0.032 0.008,0.059 0.027,0.075 1.407,0.957 2.129,1.437 2.161,1.437 l 0.027,0 c 0.066,0 0.113,-0.078 0.148,-0.238 -0.082,-0.274 -0.125,-0.668 -0.125,-1.176 l 0,-4.926 c 0,-0.48 0.032,-0.851 0.102,-1.109 0.016,-0.059 0.137,-0.117 0.359,-0.176 0.235,-0.051 0.395,-0.074 0.477,-0.074 0.031,0 0.051,-0.078 0.051,-0.227 0,-0.074 -0.004,-0.121 -0.012,-0.136 -0.836,0.039 -1.34,0.062 -1.516,0.062 -0.132,0 -0.617,-0.023 -1.449,-0.062 -0.031,0.031 -0.051,0.097 -0.051,0.199 0,0.109 0.02,0.164 0.051,0.164 0.109,0 0.277,0.023 0.5,0.074 0.234,0.059 0.359,0.117 0.375,0.176 0.051,0.199 0.074,0.437 0.074,0.711 l 0,4.5 c 0,0.242 -0.007,0.426 -0.023,0.551 -0.016,0.125 -0.039,0.199 -0.063,0.222 -0.015,0.035 -0.046,0.051 -0.086,0.051 -0.05,0 -0.125,-0.023 -0.226,-0.074 -0.094,-0.051 -0.199,-0.113 -0.324,-0.188 l -0.25,-0.148 z"
                 style="fill:#000000;fill-opacity:1;fill-rule:nonzero;stroke:none"
                 id="path4254"
                 inkscape:connector-curvature="0" /><g
                 id="g4256"
                 transform="matrix(1,0,0,-1,0,289)"><path
                   d="m 49.156,24.777 70.418,29.922"
                   style="fill:none;stroke:#000000;stroke-width:0.80000001;stroke-linecap:butt;stroke-linejoin:round;stroke-miterlimit:10;stroke-dasharray:none;stroke-opacity:1"
                   id="path4258"
                   inkscape:connector-curvature="0" /></g><g
                 id="g4260"
                 transform="matrix(1,0,0,-1,0,289)"><path
                   d="m 119.055,55.914 3.859,0.203 -2.824,-2.633 -1.035,2.43 z"
                   style="fill:#000000;fill-opacity:1;fill-rule:evenodd;stroke:#000000;stroke-width:0.80000001;stroke-linecap:butt;stroke-linejoin:miter;stroke-miterlimit:10;stroke-dasharray:none;stroke-opacity:1"
                   id="path4262"
                   inkscape:connector-curvature="0" /></g><g
                 id="g4264"
                 transform="matrix(1,0,0,-1,0,289)"><path
                   d="m 49.156,24.777 71.953,95.84"
                   style="fill:none;stroke:#000000;stroke-width:0.80000001;stroke-linecap:butt;stroke-linejoin:round;stroke-miterlimit:10;stroke-dasharray:none;stroke-opacity:1"
                   id="path4266"
                   inkscape:connector-curvature="0" /></g><g
                 id="g4268"
                 transform="matrix(1,0,0,-1,0,289)"><path
                   d="m 120.051,121.41 3.238,2.11 -1.125,-3.696 -2.113,1.586 z"
                   style="fill:#000000;fill-opacity:1;fill-rule:evenodd;stroke:#000000;stroke-width:0.80000001;stroke-linecap:butt;stroke-linejoin:miter;stroke-miterlimit:10;stroke-dasharray:none;stroke-opacity:1"
                   id="path4270"
                   inkscape:connector-curvature="0" /></g><g
                 id="g4272"
                 transform="matrix(1,0,0,-1,0,289)"><path
                   d="m 49.156,24.777 72.875,163.176"
                   style="fill:none;stroke:#000000;stroke-width:0.80000001;stroke-linecap:butt;stroke-linejoin:round;stroke-miterlimit:10;stroke-dasharray:none;stroke-opacity:1"
                   id="path4274"
                   inkscape:connector-curvature="0" /></g><g
                 id="g4276"
                 transform="matrix(1,0,0,-1,0,289)"><path
                   d="m 120.828,188.492 2.684,2.778 -0.274,-3.856 -2.41,1.078 z"
                   style="fill:#000000;fill-opacity:1;fill-rule:evenodd;stroke:#000000;stroke-width:0.80000001;stroke-linecap:butt;stroke-linejoin:miter;stroke-miterlimit:10;stroke-dasharray:none;stroke-opacity:1"
                   id="path4278"
                   inkscape:connector-curvature="0" /></g><g
                 id="g4280"
                 transform="matrix(1,0,0,-1,0,289)"><path
                   d="M 49.156,92.66 119.668,58.664"
                   style="fill:none;stroke:#000000;stroke-width:0.80000001;stroke-linecap:butt;stroke-linejoin:round;stroke-miterlimit:10;stroke-dasharray:none;stroke-opacity:1"
                   id="path4282"
                   inkscape:connector-curvature="0" /></g><g
                 id="g4284"
                 transform="matrix(1,0,0,-1,0,289)"><path
                   d="m 120.242,59.852 2.696,-2.766 -3.844,0.387 1.148,2.379 z"
                   style="fill:#000000;fill-opacity:1;fill-rule:evenodd;stroke:#000000;stroke-width:0.80000001;stroke-linecap:butt;stroke-linejoin:miter;stroke-miterlimit:10;stroke-dasharray:none;stroke-opacity:1"
                   id="path4286"
                   inkscape:connector-curvature="0" /></g><g
                 id="g4288"
                 transform="matrix(1,0,0,-1,0,289)"><path
                   d="m 49.156,92.66 70.418,29.922"
                   style="fill:none;stroke:#000000;stroke-width:0.80000001;stroke-linecap:butt;stroke-linejoin:round;stroke-miterlimit:10;stroke-dasharray:none;stroke-opacity:1"
                   id="path4290"
                   inkscape:connector-curvature="0" /></g><g
                 id="g4292"
                 transform="matrix(1,0,0,-1,0,289)"><path
                   d="m 119.055,123.797 3.859,0.203 -2.824,-2.633 -1.035,2.43 z"
                   style="fill:#000000;fill-opacity:1;fill-rule:evenodd;stroke:#000000;stroke-width:0.80000001;stroke-linecap:butt;stroke-linejoin:miter;stroke-miterlimit:10;stroke-dasharray:none;stroke-opacity:1"
                   id="path4294"
                   inkscape:connector-curvature="0" /></g><g
                 id="g4296"
                 transform="matrix(1,0,0,-1,0,289)"><path
                   d="m 49.156,92.66 71.953,95.84"
                   style="fill:none;stroke:#000000;stroke-width:0.80000001;stroke-linecap:butt;stroke-linejoin:round;stroke-miterlimit:10;stroke-dasharray:none;stroke-opacity:1"
                   id="path4298"
                   inkscape:connector-curvature="0" /></g><g
                 id="g4300"
                 transform="matrix(1,0,0,-1,0,289)"><path
                   d="m 120.051,189.293 3.238,2.109 -1.125,-3.695 -2.113,1.586 z"
                   style="fill:#000000;fill-opacity:1;fill-rule:evenodd;stroke:#000000;stroke-width:0.80000001;stroke-linecap:butt;stroke-linejoin:miter;stroke-miterlimit:10;stroke-dasharray:none;stroke-opacity:1"
                   id="path4302"
                   inkscape:connector-curvature="0" /></g><g
                 id="g4304"
                 transform="matrix(1,0,0,-1,0,289)"><path
                   d="M 49.156,160.543 121.188,60.477"
                   style="fill:none;stroke:#000000;stroke-width:0.80000001;stroke-linecap:butt;stroke-linejoin:round;stroke-miterlimit:10;stroke-dasharray:none;stroke-opacity:1"
                   id="path4306"
                   inkscape:connector-curvature="0" /></g><g
                 id="g4308"
                 transform="matrix(1,0,0,-1,0,289)"><path
                   d="m 122.258,61.25 1.051,-3.719 -3.196,2.172 2.145,1.547 z"
                   style="fill:#000000;fill-opacity:1;fill-rule:evenodd;stroke:#000000;stroke-width:0.80000001;stroke-linecap:butt;stroke-linejoin:miter;stroke-miterlimit:10;stroke-dasharray:none;stroke-opacity:1"
                   id="path4310"
                   inkscape:connector-curvature="0" /></g><g
                 id="g4312"
                 transform="matrix(1,0,0,-1,0,289)"><path
                   d="m 49.156,160.543 70.512,-33.996"
                   style="fill:none;stroke:#000000;stroke-width:0.80000001;stroke-linecap:butt;stroke-linejoin:round;stroke-miterlimit:10;stroke-dasharray:none;stroke-opacity:1"
                   id="path4314"
                   inkscape:connector-curvature="0" /></g><g
                 id="g4316"
                 transform="matrix(1,0,0,-1,0,289)"><path
                   d="m 120.242,127.734 2.696,-2.765 -3.844,0.386 1.148,2.379 z"
                   style="fill:#000000;fill-opacity:1;fill-rule:evenodd;stroke:#000000;stroke-width:0.80000001;stroke-linecap:butt;stroke-linejoin:miter;stroke-miterlimit:10;stroke-dasharray:none;stroke-opacity:1"
                   id="path4318"
                   inkscape:connector-curvature="0" /></g><g
                 id="g4320"
                 transform="matrix(1,0,0,-1,0,289)"><path
                   d="m 49.156,160.543 70.418,29.922"
                   style="fill:none;stroke:#000000;stroke-width:0.80000001;stroke-linecap:butt;stroke-linejoin:round;stroke-miterlimit:10;stroke-dasharray:none;stroke-opacity:1"
                   id="path4322"
                   inkscape:connector-curvature="0" /></g><g
                 id="g4324"
                 transform="matrix(1,0,0,-1,0,289)"><path
                   d="m 119.055,191.68 3.859,0.203 -2.824,-2.637 -1.035,2.434 z"
                   style="fill:#000000;fill-opacity:1;fill-rule:evenodd;stroke:#000000;stroke-width:0.80000001;stroke-linecap:butt;stroke-linejoin:miter;stroke-miterlimit:10;stroke-dasharray:none;stroke-opacity:1"
                   id="path4326"
                   inkscape:connector-curvature="0" /></g><g
                 id="g4328"
                 transform="matrix(1,0,0,-1,0,289)"><path
                   d="M 49.156,228.426 119.668,194.43"
                   style="fill:none;stroke:#000000;stroke-width:0.80000001;stroke-linecap:butt;stroke-linejoin:round;stroke-miterlimit:10;stroke-dasharray:none;stroke-opacity:1"
                   id="path4330"
                   inkscape:connector-curvature="0" /></g><g
                 id="g4332"
                 transform="matrix(1,0,0,-1,0,289)"><path
                   d="m 120.242,195.617 2.696,-2.765 -3.844,0.386 1.148,2.379 z"
                   style="fill:#000000;fill-opacity:1;fill-rule:evenodd;stroke:#000000;stroke-width:0.80000001;stroke-linecap:butt;stroke-linejoin:miter;stroke-miterlimit:10;stroke-dasharray:none;stroke-opacity:1"
                   id="path4334"
                   inkscape:connector-curvature="0" /></g><g
                 id="g4336"
                 transform="matrix(1,0,0,-1,0,289)"><path
                   d="M 49.156,228.426 122.074,60.984"
                   style="fill:none;stroke:#000000;stroke-width:0.80000001;stroke-linecap:butt;stroke-linejoin:round;stroke-miterlimit:10;stroke-dasharray:none;stroke-opacity:1"
                   id="path4338"
                   inkscape:connector-curvature="0" /></g><g
                 id="g4340"
                 transform="matrix(1,0,0,-1,0,289)"><path
                   d="m 123.285,61.512 0.238,-3.856 -2.66,2.801 2.422,1.055 z"
                   style="fill:#000000;fill-opacity:1;fill-rule:evenodd;stroke:#000000;stroke-width:0.80000001;stroke-linecap:butt;stroke-linejoin:miter;stroke-miterlimit:10;stroke-dasharray:none;stroke-opacity:1"
                   id="path4342"
                   inkscape:connector-curvature="0" /></g><g
                 id="g4344"
                 transform="matrix(1,0,0,-1,0,289)"><path
                   d="M 49.156,228.426 121.188,128.359"
                   style="fill:none;stroke:#000000;stroke-width:0.80000001;stroke-linecap:butt;stroke-linejoin:round;stroke-miterlimit:10;stroke-dasharray:none;stroke-opacity:1"
                   id="path4346"
                   inkscape:connector-curvature="0" /></g><g
                 id="g4348"
                 transform="matrix(1,0,0,-1,0,289)"><path
                   d="m 122.258,129.129 1.051,-3.715 -3.196,2.172 2.145,1.543 z"
                   style="fill:#000000;fill-opacity:1;fill-rule:evenodd;stroke:#000000;stroke-width:0.80000001;stroke-linecap:butt;stroke-linejoin:miter;stroke-miterlimit:10;stroke-dasharray:none;stroke-opacity:1"
                   id="path4350"
                   inkscape:connector-curvature="0" /></g><g
                 id="g4352"
                 transform="matrix(1,0,0,-1,0,289)"><path
                   d="M 172.758,56.57 243.176,26.652"
                   style="fill:none;stroke:#000000;stroke-width:0.80000001;stroke-linecap:butt;stroke-linejoin:round;stroke-miterlimit:10;stroke-dasharray:none;stroke-opacity:1"
                   id="path4354"
                   inkscape:connector-curvature="0" /></g><g
                 id="g4356"
                 transform="matrix(1,0,0,-1,0,289)"><path
                   d="m 243.691,27.867 2.825,-2.637 -3.86,0.204 1.035,2.433 z"
                   style="fill:#000000;fill-opacity:1;fill-rule:evenodd;stroke:#000000;stroke-width:0.80000001;stroke-linecap:butt;stroke-linejoin:miter;stroke-miterlimit:10;stroke-dasharray:none;stroke-opacity:1"
                   id="path4358"
                   inkscape:connector-curvature="0" /></g><g
                 id="g4360"
                 transform="matrix(1,0,0,-1,0,289)"><path
                   d="m 172.758,56.57 70.512,34"
                   style="fill:none;stroke:#000000;stroke-width:0.80000001;stroke-linecap:butt;stroke-linejoin:round;stroke-miterlimit:10;stroke-dasharray:none;stroke-opacity:1"
                   id="path4362"
                   inkscape:connector-curvature="0" /></g><g
                 id="g4364"
                 transform="matrix(1,0,0,-1,0,289)"><path
                   d="m 242.695,91.758 3.844,0.387 -2.695,-2.766 -1.149,2.379 z"
                   style="fill:#000000;fill-opacity:1;fill-rule:evenodd;stroke:#000000;stroke-width:0.80000001;stroke-linecap:butt;stroke-linejoin:miter;stroke-miterlimit:10;stroke-dasharray:none;stroke-opacity:1"
                   id="path4366"
                   inkscape:connector-curvature="0" /></g><g
                 id="g4368"
                 transform="matrix(1,0,0,-1,0,289)"><path
                   d="m 172.758,56.57 72.031,100.071"
                   style="fill:none;stroke:#000000;stroke-width:0.80000001;stroke-linecap:butt;stroke-linejoin:round;stroke-miterlimit:10;stroke-dasharray:none;stroke-opacity:1"
                   id="path4370"
                   inkscape:connector-curvature="0" /></g><g
                 id="g4372"
                 transform="matrix(1,0,0,-1,0,289)"><path
                   d="m 243.715,157.41 3.195,2.176 -1.051,-3.719 -2.144,1.543 z"
                   style="fill:#000000;fill-opacity:1;fill-rule:evenodd;stroke:#000000;stroke-width:0.80000001;stroke-linecap:butt;stroke-linejoin:miter;stroke-miterlimit:10;stroke-dasharray:none;stroke-opacity:1"
                   id="path4374"
                   inkscape:connector-curvature="0" /></g><g
                 id="g4376"
                 transform="matrix(1,0,0,-1,0,289)"><path
                   d="m 172.758,56.57 72.918,167.446"
                   style="fill:none;stroke:#000000;stroke-width:0.80000001;stroke-linecap:butt;stroke-linejoin:round;stroke-miterlimit:10;stroke-dasharray:none;stroke-opacity:1"
                   id="path4378"
                   inkscape:connector-curvature="0" /></g><g
                 id="g4380"
                 transform="matrix(1,0,0,-1,0,289)"><path
                   d="m 244.465,224.543 2.66,2.801 -0.238,-3.86 -2.422,1.059 z"
                   style="fill:#000000;fill-opacity:1;fill-rule:evenodd;stroke:#000000;stroke-width:0.80000001;stroke-linecap:butt;stroke-linejoin:miter;stroke-miterlimit:10;stroke-dasharray:none;stroke-opacity:1"
                   id="path4382"
                   inkscape:connector-curvature="0" /></g><g
                 id="g4384"
                 transform="matrix(1,0,0,-1,0,289)"><path
                   d="M 296.359,228.426 368.387,128.359"
                   style="fill:none;stroke:#000000;stroke-width:0.80000001;stroke-linecap:butt;stroke-linejoin:round;stroke-miterlimit:10;stroke-dasharray:none;stroke-opacity:1"
                   id="path4386"
                   inkscape:connector-curvature="0" /></g><g
                 id="g4388"
                 transform="matrix(1,0,0,-1,0,289)"><path
                   d="m 369.461,129.129 1.047,-3.715 -3.192,2.172 2.145,1.543 z"
                   style="fill:#000000;fill-opacity:1;fill-rule:evenodd;stroke:#000000;stroke-width:0.80000001;stroke-linecap:butt;stroke-linejoin:miter;stroke-miterlimit:10;stroke-dasharray:none;stroke-opacity:1"
                   id="path4390"
                   inkscape:connector-curvature="0" /></g><g
                 id="g4392"
                 transform="matrix(1,0,0,-1,0,289)"><path
                   d="m 296.359,160.543 70.508,-33.996"
                   style="fill:none;stroke:#000000;stroke-width:0.80000001;stroke-linecap:butt;stroke-linejoin:round;stroke-miterlimit:10;stroke-dasharray:none;stroke-opacity:1"
                   id="path4394"
                   inkscape:connector-curvature="0" /></g><g
                 id="g4396"
                 transform="matrix(1,0,0,-1,0,289)"><path
                   d="m 367.441,127.734 2.7,-2.765 -3.844,0.386 1.144,2.379 z"
                   style="fill:#000000;fill-opacity:1;fill-rule:evenodd;stroke:#000000;stroke-width:0.80000001;stroke-linecap:butt;stroke-linejoin:miter;stroke-miterlimit:10;stroke-dasharray:none;stroke-opacity:1"
                   id="path4398"
                   inkscape:connector-curvature="0" /></g><g
                 id="g4400"
                 transform="matrix(1,0,0,-1,0,289)"><path
                   d="m 296.359,92.66 70.414,29.922"
                   style="fill:none;stroke:#000000;stroke-width:0.80000001;stroke-linecap:butt;stroke-linejoin:round;stroke-miterlimit:10;stroke-dasharray:none;stroke-opacity:1"
                   id="path4402"
                   inkscape:connector-curvature="0" /></g><g
                 id="g4404"
                 transform="matrix(1,0,0,-1,0,289)"><path
                   d="m 366.258,123.797 3.859,0.203 -2.824,-2.633 -1.035,2.43 z"
                   style="fill:#000000;fill-opacity:1;fill-rule:evenodd;stroke:#000000;stroke-width:0.80000001;stroke-linecap:butt;stroke-linejoin:miter;stroke-miterlimit:10;stroke-dasharray:none;stroke-opacity:1"
                   id="path4406"
                   inkscape:connector-curvature="0" /></g><g
                 id="g4408"
                 transform="matrix(1,0,0,-1,0,289)"><path
                   d="m 296.359,24.777 71.954,95.84"
                   style="fill:none;stroke:#000000;stroke-width:0.80000001;stroke-linecap:butt;stroke-linejoin:round;stroke-miterlimit:10;stroke-dasharray:none;stroke-opacity:1"
                   id="path4410"
                   inkscape:connector-curvature="0" /></g><g
                 id="g4412"
                 transform="matrix(1,0,0,-1,0,289)"><path
                   d="m 367.254,121.41 3.238,2.11 -1.125,-3.696 -2.113,1.586 z"
                   style="fill:#000000;fill-opacity:1;fill-rule:evenodd;stroke:#000000;stroke-width:0.80000001;stroke-linecap:butt;stroke-linejoin:miter;stroke-miterlimit:10;stroke-dasharray:none;stroke-opacity:1"
                   id="path4414"
                   inkscape:connector-curvature="0" /></g><g
                 id="g4416"
                 transform="matrix(1,0,0,-1,0,289)"><path
                   d="m 172.758,124.453 71.953,-95.84"
                   style="fill:none;stroke:#000000;stroke-width:0.80000001;stroke-linecap:butt;stroke-linejoin:round;stroke-miterlimit:10;stroke-dasharray:none;stroke-opacity:1"
                   id="path4418"
                   inkscape:connector-curvature="0" /></g><g
                 id="g4420"
                 transform="matrix(1,0,0,-1,0,289)"><path
                   d="m 245.766,29.406 1.125,-3.695 -3.239,2.109 2.114,1.586 z"
                   style="fill:#000000;fill-opacity:1;fill-rule:evenodd;stroke:#000000;stroke-width:0.80000001;stroke-linecap:butt;stroke-linejoin:miter;stroke-miterlimit:10;stroke-dasharray:none;stroke-opacity:1"
                   id="path4422"
                   inkscape:connector-curvature="0" /></g><g
                 id="g4424"
                 transform="matrix(1,0,0,-1,0,289)"><path
                   d="M 172.758,124.453 243.176,94.535"
                   style="fill:none;stroke:#000000;stroke-width:0.80000001;stroke-linecap:butt;stroke-linejoin:round;stroke-miterlimit:10;stroke-dasharray:none;stroke-opacity:1"
                   id="path4426"
                   inkscape:connector-curvature="0" /></g><g
                 id="g4428"
                 transform="matrix(1,0,0,-1,0,289)"><path
                   d="m 243.691,95.75 2.825,-2.637 -3.86,0.203 1.035,2.434 z"
                   style="fill:#000000;fill-opacity:1;fill-rule:evenodd;stroke:#000000;stroke-width:0.80000001;stroke-linecap:butt;stroke-linejoin:miter;stroke-miterlimit:10;stroke-dasharray:none;stroke-opacity:1"
                   id="path4430"
                   inkscape:connector-curvature="0" /></g><g
                 id="g4432"
                 transform="matrix(1,0,0,-1,0,289)"><path
                   d="m 172.758,124.453 70.512,34"
                   style="fill:none;stroke:#000000;stroke-width:0.80000001;stroke-linecap:butt;stroke-linejoin:round;stroke-miterlimit:10;stroke-dasharray:none;stroke-opacity:1"
                   id="path4434"
                   inkscape:connector-curvature="0" /></g><g
                 id="g4436"
                 transform="matrix(1,0,0,-1,0,289)"><path
                   d="m 242.695,159.641 3.844,0.386 -2.695,-2.765 -1.149,2.379 z"
                   style="fill:#000000;fill-opacity:1;fill-rule:evenodd;stroke:#000000;stroke-width:0.80000001;stroke-linecap:butt;stroke-linejoin:miter;stroke-miterlimit:10;stroke-dasharray:none;stroke-opacity:1"
                   id="path4438"
                   inkscape:connector-curvature="0" /></g><g
                 id="g4440"
                 transform="matrix(1,0,0,-1,0,289)"><path
                   d="M 172.758,124.453 244.789,224.52"
                   style="fill:none;stroke:#000000;stroke-width:0.80000001;stroke-linecap:butt;stroke-linejoin:round;stroke-miterlimit:10;stroke-dasharray:none;stroke-opacity:1"
                   id="path4442"
                   inkscape:connector-curvature="0" /></g><g
                 id="g4444"
                 transform="matrix(1,0,0,-1,0,289)"><path
                   d="m 243.715,225.293 3.195,2.176 -1.051,-3.719 -2.144,1.543 z"
                   style="fill:#000000;fill-opacity:1;fill-rule:evenodd;stroke:#000000;stroke-width:0.80000001;stroke-linecap:butt;stroke-linejoin:miter;stroke-miterlimit:10;stroke-dasharray:none;stroke-opacity:1"
                   id="path4446"
                   inkscape:connector-curvature="0" /></g><g
                 id="g4448"
                 transform="matrix(1,0,0,-1,0,289)"><path
                   d="m 172.758,192.336 70.512,34"
                   style="fill:none;stroke:#000000;stroke-width:0.80000001;stroke-linecap:butt;stroke-linejoin:round;stroke-miterlimit:10;stroke-dasharray:none;stroke-opacity:1"
                   id="path4450"
                   inkscape:connector-curvature="0" /></g><g
                 id="g4452"
                 transform="matrix(1,0,0,-1,0,289)"><path
                   d="m 242.695,227.523 3.844,0.387 -2.695,-2.765 -1.149,2.378 z"
                   style="fill:#000000;fill-opacity:1;fill-rule:evenodd;stroke:#000000;stroke-width:0.80000001;stroke-linecap:butt;stroke-linejoin:miter;stroke-miterlimit:10;stroke-dasharray:none;stroke-opacity:1"
                   id="path4454"
                   inkscape:connector-curvature="0" /></g><g
                 id="g4456"
                 transform="matrix(1,0,0,-1,0,289)"><path
                   d="m 172.758,192.336 70.418,-29.922"
                   style="fill:none;stroke:#000000;stroke-width:0.80000001;stroke-linecap:butt;stroke-linejoin:round;stroke-miterlimit:10;stroke-dasharray:none;stroke-opacity:1"
                   id="path4458"
                   inkscape:connector-curvature="0" /></g><g
                 id="g4460"
                 transform="matrix(1,0,0,-1,0,289)"><path
                   d="m 243.691,163.633 2.825,-2.637 -3.86,0.203 1.035,2.434 z"
                   style="fill:#000000;fill-opacity:1;fill-rule:evenodd;stroke:#000000;stroke-width:0.80000001;stroke-linecap:butt;stroke-linejoin:miter;stroke-miterlimit:10;stroke-dasharray:none;stroke-opacity:1"
                   id="path4462"
                   inkscape:connector-curvature="0" /></g><g
                 id="g4464"
                 transform="matrix(1,0,0,-1,0,289)"><path
                   d="m 172.758,192.336 71.953,-95.84"
                   style="fill:none;stroke:#000000;stroke-width:0.80000001;stroke-linecap:butt;stroke-linejoin:round;stroke-miterlimit:10;stroke-dasharray:none;stroke-opacity:1"
                   id="path4466"
                   inkscape:connector-curvature="0" /></g><g
                 id="g4468"
                 transform="matrix(1,0,0,-1,0,289)"><path
                   d="m 245.766,97.289 1.125,-3.695 -3.239,2.109 2.114,1.586 z"
                   style="fill:#000000;fill-opacity:1;fill-rule:evenodd;stroke:#000000;stroke-width:0.80000001;stroke-linecap:butt;stroke-linejoin:miter;stroke-miterlimit:10;stroke-dasharray:none;stroke-opacity:1"
                   id="path4470"
                   inkscape:connector-curvature="0" /></g><g
                 id="g4472"
                 transform="matrix(1,0,0,-1,0,289)"><path
                   d="M 172.758,192.336 245.633,29.16"
                   style="fill:none;stroke:#000000;stroke-width:0.80000001;stroke-linecap:butt;stroke-linejoin:round;stroke-miterlimit:10;stroke-dasharray:none;stroke-opacity:1"
                   id="path4474"
                   inkscape:connector-curvature="0" /></g><g
                 id="g4476"
                 transform="matrix(1,0,0,-1,0,289)"><path
                   d="m 246.84,29.699 0.273,-3.851 -2.687,2.773 2.414,1.078 z"
                   style="fill:#000000;fill-opacity:1;fill-rule:evenodd;stroke:#000000;stroke-width:0.80000001;stroke-linecap:butt;stroke-linejoin:miter;stroke-miterlimit:10;stroke-dasharray:none;stroke-opacity:1"
                   id="path4478"
                   inkscape:connector-curvature="0" /></g><path
                 d="m 76.305,24.398 c 0.156,0 0.832,0.028 2.023,0.086 0.02,-0.058 0.027,-0.16 0.027,-0.312 0.008,-0.149 0,-0.231 -0.027,-0.238 -0.457,0 -0.687,-0.164 -0.687,-0.5 l 0.187,-0.461 2.727,-5.414 c 0.05,-0.106 0.125,-0.082 0.226,0.078 l 0.91,1.625 -1.625,3.222 c -0.308,0.602 -0.519,0.965 -0.636,1.086 -0.25,0.243 -0.539,0.364 -0.864,0.364 -0.043,0 -0.062,0.097 -0.062,0.289 0,0.156 0.012,0.246 0.039,0.261 1.355,-0.058 2.043,-0.086 2.062,-0.086 0.118,0 0.766,0.028 1.95,0.086 0.023,-0.058 0.039,-0.164 0.039,-0.312 0.008,-0.149 -0.008,-0.231 -0.039,-0.238 -0.16,0 -0.313,-0.036 -0.461,-0.114 -0.145,-0.074 -0.215,-0.195 -0.215,-0.359 l 0.176,-0.465 0.863,-1.699 0.711,1.414 c 0.199,0.398 0.301,0.652 0.301,0.762 0,0.132 -0.086,0.238 -0.262,0.312 -0.176,0.074 -0.336,0.121 -0.477,0.137 -0.14,0.016 -0.261,0.023 -0.363,0.023 -0.039,0 -0.066,0.082 -0.074,0.239 0,0.16 0.019,0.257 0.062,0.3 0.95,-0.058 1.539,-0.086 1.762,-0.086 0.051,0 0.668,0.028 1.852,0.086 0.023,-0.058 0.039,-0.156 0.039,-0.3 0.008,-0.141 -0.008,-0.219 -0.039,-0.239 -0.149,0 -0.348,-0.043 -0.586,-0.136 -0.235,-0.09 -0.399,-0.192 -0.489,-0.301 -0.269,-0.289 -0.546,-0.715 -0.839,-1.274 l -1.036,-2.05 1.286,-2.536 c 0.05,-0.101 0.117,-0.085 0.203,0.047 l 2.535,5.039 c 0.176,0.36 0.262,0.606 0.262,0.739 0,0.175 -0.133,0.297 -0.399,0.363 -0.258,0.074 -0.476,0.109 -0.648,0.109 -0.043,0 -0.071,0.082 -0.078,0.239 0,0.16 0.023,0.257 0.062,0.3 0.953,-0.058 1.539,-0.086 1.766,-0.086 0.047,0 0.664,0.028 1.847,0.086 0.036,-0.074 0.051,-0.199 0.051,-0.375 0,-0.109 -0.015,-0.164 -0.051,-0.164 -0.14,0 -0.328,-0.043 -0.562,-0.136 -0.223,-0.082 -0.387,-0.176 -0.488,-0.274 -0.274,-0.293 -0.563,-0.726 -0.86,-1.301 l -3.664,-7.289 c -0.16,-0.316 -0.324,-0.472 -0.5,-0.472 -0.082,0 -0.14,0.019 -0.176,0.062 l -1.824,3.586 -1.773,-3.176 c -0.176,-0.316 -0.344,-0.472 -0.5,-0.472 -0.071,0 -0.114,0.019 -0.141,0.062 l -4.023,7.949 c -0.266,0.524 -0.496,0.907 -0.688,1.137 -0.074,0.102 -0.207,0.176 -0.398,0.227 -0.196,0.058 -0.356,0.086 -0.489,0.086 -0.042,0 -0.062,0.097 -0.062,0.289 0,0.156 0.012,0.246 0.035,0.261 1.367,-0.058 2.067,-0.086 2.102,-0.086 z"
                 style="fill:#000000;fill-opacity:1;fill-rule:nonzero;stroke:none"
                 id="path4480"
                 inkscape:connector-curvature="0" /><path
                 d="m 91.363,23.121 c 0,-0.883 0.157,-1.699 0.473,-2.449 0.316,-0.75 0.594,-1.184 0.828,-1.301 0.016,-0.008 0.024,-0.023 0.024,-0.047 0,-0.043 -0.016,-0.086 -0.051,-0.125 -0.024,-0.051 -0.055,-0.078 -0.086,-0.078 -0.125,0 -0.289,0.109 -0.488,0.328 -0.2,0.207 -0.403,0.481 -0.602,0.824 -0.199,0.34 -0.371,0.77 -0.512,1.286 -0.133,0.519 -0.199,1.039 -0.199,1.562 0,0.559 0.063,1.102 0.188,1.625 0.132,0.535 0.292,0.981 0.472,1.34 0.184,0.355 0.383,0.644 0.59,0.863 0.207,0.215 0.391,0.324 0.551,0.324 0.031,0 0.062,-0.031 0.086,-0.089 0.023,-0.047 0.039,-0.094 0.039,-0.137 0,-0.016 -0.004,-0.024 -0.012,-0.024 -0.309,-0.152 -0.605,-0.613 -0.891,-1.386 -0.273,-0.77 -0.41,-1.606 -0.41,-2.516 z m 3.086,1.789 c -0.031,0.016 -0.07,0.051 -0.109,0.102 -0.035,0.054 -0.051,0.101 -0.051,0.136 0,0.024 0.004,0.04 0.012,0.051 1.058,0.723 1.601,1.086 1.625,1.086 l 0.023,0 c 0.051,0 0.09,-0.062 0.114,-0.187 -0.067,-0.2 -0.098,-0.493 -0.098,-0.875 l 0,-3.7 c 0,-0.359 0.023,-0.632 0.074,-0.824 0.016,-0.051 0.106,-0.097 0.274,-0.14 0.175,-0.032 0.292,-0.047 0.351,-0.047 0.024,0 0.035,-0.059 0.035,-0.176 l 0,-0.102 c -0.625,0.036 -1.004,0.051 -1.136,0.051 -0.098,0 -0.461,-0.015 -1.086,-0.051 -0.028,0.028 -0.039,0.075 -0.039,0.153 0,0.082 0.011,0.125 0.039,0.125 0.082,0 0.207,0.015 0.375,0.047 0.175,0.043 0.265,0.089 0.273,0.14 0.043,0.149 0.063,0.324 0.063,0.524 l 0,3.375 c 0,0.183 -0.008,0.32 -0.024,0.414 -0.008,0.097 -0.023,0.156 -0.039,0.172 -0.016,0.027 -0.043,0.039 -0.074,0.039 -0.035,0 -0.086,-0.02 -0.164,-0.063 -0.067,-0.035 -0.149,-0.078 -0.25,-0.137 -0.09,-0.058 -0.153,-0.097 -0.188,-0.113 z m 5.231,-1.789 c 0,0.91 -0.145,1.746 -0.426,2.516 -0.277,0.773 -0.57,1.234 -0.887,1.386 l 0,0.024 c 0,0.043 0.012,0.086 0.035,0.137 0.028,0.058 0.051,0.089 0.075,0.089 0.168,0 0.351,-0.109 0.55,-0.328 0.211,-0.215 0.407,-0.504 0.59,-0.859 0.192,-0.359 0.348,-0.805 0.473,-1.34 0.125,-0.523 0.187,-1.066 0.187,-1.625 0,-0.523 -0.07,-1.043 -0.211,-1.562 -0.132,-0.516 -0.3,-0.946 -0.5,-1.286 -0.191,-0.343 -0.386,-0.617 -0.589,-0.828 -0.2,-0.215 -0.364,-0.324 -0.5,-0.324 -0.024,0 -0.051,0.027 -0.086,0.074 -0.024,0.043 -0.039,0.086 -0.039,0.125 0,0.028 0.007,0.043 0.015,0.051 0.242,0.117 0.52,0.551 0.836,1.301 0.317,0.75 0.477,1.566 0.477,2.449 z"
                 style="fill:#000000;fill-opacity:1;fill-rule:nonzero;stroke:none"
                 id="path4482"
                 inkscape:connector-curvature="0" /><path
                 d="m 199.906,24.398 c 0.157,0 0.832,0.028 2.024,0.086 0.015,-0.058 0.027,-0.16 0.027,-0.312 0.008,-0.149 0,-0.231 -0.027,-0.238 -0.457,0 -0.688,-0.164 -0.688,-0.5 l 0.188,-0.461 2.726,-5.414 c 0.051,-0.106 0.125,-0.082 0.223,0.078 l 0.914,1.625 -1.625,3.222 c -0.309,0.602 -0.52,0.965 -0.637,1.086 -0.25,0.243 -0.539,0.364 -0.863,0.364 -0.043,0 -0.063,0.097 -0.063,0.289 0,0.156 0.012,0.246 0.04,0.261 1.355,-0.058 2.043,-0.086 2.062,-0.086 0.113,0 0.766,0.028 1.949,0.086 0.024,-0.058 0.035,-0.164 0.035,-0.312 0.012,-0.149 -0.003,-0.231 -0.035,-0.238 -0.16,0 -0.312,-0.036 -0.465,-0.114 -0.14,-0.074 -0.211,-0.195 -0.211,-0.359 l 0.176,-0.465 0.864,-1.699 0.71,1.414 c 0.2,0.398 0.301,0.652 0.301,0.762 0,0.132 -0.09,0.238 -0.261,0.312 -0.176,0.074 -0.336,0.121 -0.477,0.137 -0.141,0.016 -0.262,0.023 -0.363,0.023 -0.039,0 -0.067,0.082 -0.075,0.239 0,0.16 0.02,0.257 0.063,0.3 0.949,-0.058 1.539,-0.086 1.762,-0.086 0.05,0 0.668,0.028 1.851,0.086 0.024,-0.058 0.035,-0.156 0.035,-0.3 0.012,-0.141 -0.003,-0.219 -0.035,-0.239 -0.152,0 -0.347,-0.043 -0.59,-0.136 -0.23,-0.09 -0.394,-0.192 -0.484,-0.301 -0.269,-0.289 -0.547,-0.715 -0.84,-1.274 l -1.035,-2.05 1.285,-2.536 c 0.051,-0.101 0.117,-0.085 0.199,0.047 l 2.539,5.039 c 0.176,0.36 0.262,0.606 0.262,0.739 0,0.175 -0.133,0.297 -0.398,0.363 -0.258,0.074 -0.477,0.109 -0.653,0.109 -0.039,0 -0.066,0.082 -0.074,0.239 0,0.16 0.024,0.257 0.063,0.3 0.949,-0.058 1.539,-0.086 1.761,-0.086 0.051,0 0.668,0.028 1.852,0.086 0.035,-0.074 0.051,-0.199 0.051,-0.375 0,-0.109 -0.016,-0.164 -0.051,-0.164 -0.141,0 -0.328,-0.043 -0.563,-0.136 -0.226,-0.082 -0.386,-0.176 -0.488,-0.274 -0.273,-0.293 -0.562,-0.726 -0.863,-1.301 l -3.66,-7.289 c -0.16,-0.316 -0.324,-0.472 -0.5,-0.472 -0.086,0 -0.141,0.019 -0.176,0.062 l -1.824,3.586 -1.778,-3.176 c -0.171,-0.316 -0.339,-0.472 -0.5,-0.472 -0.066,0 -0.109,0.019 -0.136,0.062 l -4.024,7.949 c -0.265,0.524 -0.496,0.907 -0.687,1.137 -0.074,0.102 -0.211,0.176 -0.403,0.227 -0.191,0.058 -0.351,0.086 -0.484,0.086 -0.043,0 -0.062,0.097 -0.062,0.289 0,0.156 0.011,0.246 0.035,0.261 1.367,-0.058 2.066,-0.086 2.101,-0.086 z"
                 style="fill:#000000;fill-opacity:1;fill-rule:nonzero;stroke:none"
                 id="path4484"
                 inkscape:connector-curvature="0" /><path
                 d="m 214.965,23.121 c 0,-0.883 0.156,-1.699 0.473,-2.449 0.316,-0.75 0.593,-1.184 0.824,-1.301 0.019,-0.008 0.027,-0.023 0.027,-0.047 0,-0.043 -0.019,-0.086 -0.051,-0.125 -0.023,-0.051 -0.054,-0.078 -0.086,-0.078 -0.125,0 -0.289,0.109 -0.488,0.328 -0.199,0.207 -0.402,0.481 -0.601,0.824 -0.2,0.34 -0.372,0.77 -0.512,1.286 -0.133,0.519 -0.199,1.039 -0.199,1.562 0,0.559 0.062,1.102 0.187,1.625 0.133,0.535 0.289,0.981 0.473,1.34 0.183,0.355 0.379,0.644 0.59,0.863 0.207,0.215 0.39,0.324 0.55,0.324 0.032,0 0.063,-0.031 0.086,-0.089 0.024,-0.047 0.039,-0.094 0.039,-0.137 0,-0.016 -0.004,-0.024 -0.015,-0.024 -0.309,-0.152 -0.602,-0.613 -0.887,-1.386 -0.273,-0.77 -0.41,-1.606 -0.41,-2.516 z m 4.262,3.164 c 0.418,0 0.746,-0.16 0.988,-0.476 0.242,-0.309 0.363,-0.661 0.363,-1.063 0,-0.223 -0.043,-0.461 -0.125,-0.711 -0.078,-0.25 -0.199,-0.504 -0.363,-0.762 -0.16,-0.25 -0.309,-0.472 -0.449,-0.664 -0.137,-0.191 -0.325,-0.41 -0.563,-0.66 -0.234,-0.25 -0.398,-0.422 -0.488,-0.515 -0.086,-0.09 -0.227,-0.235 -0.426,-0.438 -0.023,-0.023 -0.019,-0.043 0.012,-0.062 l 1.812,0 c 0.176,0 0.301,0.05 0.375,0.152 0.086,0.098 0.164,0.289 0.239,0.574 0.023,0.067 0.07,0.102 0.136,0.102 0.086,0 0.137,-0.016 0.164,-0.039 -0.152,-0.75 -0.234,-1.188 -0.25,-1.313 -0.007,-0.101 -0.07,-0.148 -0.187,-0.148 l -3.074,0 c -0.028,0 -0.051,0.031 -0.078,0.097 -0.016,0.075 -0.024,0.137 -0.024,0.188 0.684,0.683 1.266,1.394 1.75,2.137 0.492,0.742 0.738,1.367 0.738,1.875 0,0.343 -0.089,0.605 -0.261,0.789 -0.168,0.183 -0.391,0.273 -0.664,0.273 -0.516,0 -0.934,-0.258 -1.25,-0.773 -0.032,0 -0.071,0.019 -0.114,0.062 -0.039,0.043 -0.062,0.07 -0.062,0.086 0.019,0.078 0.066,0.176 0.152,0.301 0.09,0.133 0.203,0.277 0.336,0.426 0.141,0.148 0.328,0.277 0.563,0.386 0.242,0.118 0.492,0.176 0.75,0.176 z m 4.054,-3.164 c 0,0.91 -0.144,1.746 -0.426,2.516 -0.277,0.773 -0.57,1.234 -0.886,1.386 l 0,0.024 c 0,0.043 0.011,0.086 0.035,0.137 0.027,0.058 0.051,0.089 0.074,0.089 0.168,0 0.352,-0.109 0.551,-0.328 0.207,-0.215 0.406,-0.504 0.59,-0.859 0.191,-0.359 0.347,-0.805 0.472,-1.34 0.125,-0.523 0.188,-1.066 0.188,-1.625 0,-0.523 -0.07,-1.043 -0.211,-1.562 -0.133,-0.516 -0.301,-0.946 -0.5,-1.286 -0.191,-0.343 -0.387,-0.617 -0.59,-0.828 -0.199,-0.215 -0.367,-0.324 -0.5,-0.324 -0.023,0 -0.055,0.027 -0.086,0.074 -0.023,0.043 -0.039,0.086 -0.039,0.125 0,0.028 0.004,0.043 0.016,0.051 0.238,0.117 0.519,0.551 0.836,1.301 0.316,0.75 0.476,1.566 0.476,2.449 z"
                 style="fill:#000000;fill-opacity:1;fill-rule:nonzero;stroke:none"
                 id="path4486"
                 inkscape:connector-curvature="0" /><path
                 d="m 323.516,24.398 c 0.16,0 0.836,0.028 2.027,0.086 0.016,-0.058 0.023,-0.16 0.023,-0.312 0.008,-0.149 0,-0.231 -0.023,-0.238 -0.461,0 -0.688,-0.164 -0.688,-0.5 l 0.188,-0.461 2.723,-5.414 c 0.05,-0.106 0.125,-0.082 0.226,0.078 l 0.914,1.625 -1.625,3.222 c -0.308,0.602 -0.523,0.965 -0.64,1.086 -0.25,0.243 -0.536,0.364 -0.86,0.364 -0.043,0 -0.062,0.097 -0.062,0.289 0,0.156 0.011,0.246 0.035,0.261 1.359,-0.058 2.047,-0.086 2.062,-0.086 0.118,0 0.766,0.028 1.95,0.086 0.027,-0.058 0.039,-0.164 0.039,-0.312 0.008,-0.149 -0.004,-0.231 -0.039,-0.238 -0.157,0 -0.313,-0.036 -0.461,-0.114 -0.141,-0.074 -0.211,-0.195 -0.211,-0.359 l 0.172,-0.465 0.863,-1.699 0.715,1.414 c 0.199,0.398 0.297,0.652 0.297,0.762 0,0.132 -0.086,0.238 -0.262,0.312 -0.176,0.074 -0.332,0.121 -0.473,0.137 -0.144,0.016 -0.265,0.023 -0.363,0.023 -0.043,0 -0.066,0.082 -0.074,0.239 0,0.16 0.019,0.257 0.062,0.3 0.949,-0.058 1.535,-0.086 1.762,-0.086 0.051,0 0.664,0.028 1.848,0.086 0.027,-0.058 0.039,-0.156 0.039,-0.3 0.008,-0.141 -0.004,-0.219 -0.039,-0.239 -0.149,0 -0.344,-0.043 -0.586,-0.136 -0.235,-0.09 -0.395,-0.192 -0.489,-0.301 -0.265,-0.289 -0.546,-0.715 -0.836,-1.274 l -1.039,-2.05 1.289,-2.536 c 0.051,-0.101 0.118,-0.085 0.2,0.047 l 2.539,5.039 c 0.172,0.36 0.261,0.606 0.261,0.739 0,0.175 -0.132,0.297 -0.402,0.363 -0.258,0.074 -0.473,0.109 -0.648,0.109 -0.043,0 -0.067,0.082 -0.075,0.239 0,0.16 0.02,0.257 0.063,0.3 0.949,-0.058 1.535,-0.086 1.762,-0.086 0.05,0 0.668,0.028 1.851,0.086 0.032,-0.074 0.047,-0.199 0.047,-0.375 0,-0.109 -0.015,-0.164 -0.047,-0.164 -0.144,0 -0.332,-0.043 -0.562,-0.136 -0.227,-0.082 -0.391,-0.176 -0.489,-0.274 -0.277,-0.293 -0.562,-0.726 -0.863,-1.301 l -3.664,-7.289 c -0.156,-0.316 -0.324,-0.472 -0.5,-0.472 -0.082,0 -0.14,0.019 -0.172,0.062 l -1.828,3.586 -1.773,-3.176 c -0.176,-0.316 -0.344,-0.472 -0.5,-0.472 -0.067,0 -0.114,0.019 -0.137,0.062 l -4.027,7.949 c -0.266,0.524 -0.496,0.907 -0.688,1.137 -0.074,0.102 -0.207,0.176 -0.398,0.227 -0.192,0.058 -0.356,0.086 -0.489,0.086 -0.039,0 -0.062,0.097 -0.062,0.289 0,0.156 0.012,0.246 0.039,0.261 1.367,-0.058 2.066,-0.086 2.098,-0.086 z"
                 style="fill:#000000;fill-opacity:1;fill-rule:nonzero;stroke:none"
                 id="path4488"
                 inkscape:connector-curvature="0" /><path
                 d="m 338.574,23.121 c 0,-0.883 0.16,-1.699 0.477,-2.449 0.316,-0.75 0.59,-1.184 0.824,-1.301 0.016,-0.008 0.023,-0.023 0.023,-0.047 0,-0.043 -0.015,-0.086 -0.046,-0.125 -0.028,-0.051 -0.055,-0.078 -0.09,-0.078 -0.125,0 -0.285,0.109 -0.489,0.328 -0.199,0.207 -0.398,0.481 -0.597,0.824 -0.199,0.34 -0.371,0.77 -0.512,1.286 -0.137,0.519 -0.203,1.039 -0.203,1.562 0,0.559 0.062,1.102 0.187,1.625 0.133,0.535 0.293,0.981 0.477,1.34 0.184,0.355 0.379,0.644 0.586,0.863 0.211,0.215 0.394,0.324 0.551,0.324 0.035,0 0.062,-0.031 0.09,-0.089 0.023,-0.047 0.035,-0.094 0.035,-0.137 0,-0.016 -0.004,-0.024 -0.012,-0.024 -0.309,-0.152 -0.605,-0.613 -0.887,-1.386 -0.277,-0.77 -0.414,-1.606 -0.414,-2.516 z m 4.215,3.164 c 0.266,0 0.52,-0.113 0.762,-0.336 0.25,-0.226 0.375,-0.515 0.375,-0.863 0,-0.277 -0.067,-0.508 -0.199,-0.699 -0.133,-0.196 -0.325,-0.387 -0.575,-0.578 0.332,-0.118 0.633,-0.313 0.899,-0.586 0.273,-0.274 0.414,-0.618 0.414,-1.024 0,-0.601 -0.215,-1.086 -0.641,-1.453 -0.414,-0.355 -0.933,-0.535 -1.547,-0.535 -0.535,0 -0.937,0.094 -1.214,0.285 -0.067,0.043 -0.098,0.133 -0.098,0.277 0,0.29 0.113,0.438 0.348,0.438 0.058,0 0.117,-0.027 0.175,-0.074 0.059,-0.043 0.121,-0.102 0.188,-0.176 0.074,-0.074 0.137,-0.133 0.187,-0.176 0.184,-0.133 0.422,-0.199 0.711,-0.199 0.278,0 0.524,0.105 0.739,0.324 0.226,0.215 0.339,0.563 0.339,1.039 0,0.364 -0.121,0.676 -0.363,0.938 -0.234,0.258 -0.508,0.386 -0.824,0.386 -0.235,0 -0.438,-0.023 -0.613,-0.062 -0.043,0.051 -0.063,0.129 -0.063,0.238 0,0.039 0.008,0.074 0.024,0.098 0.425,0.074 0.765,0.226 1.027,0.449 0.258,0.227 0.387,0.531 0.387,0.914 0,0.215 -0.086,0.403 -0.25,0.563 -0.168,0.168 -0.356,0.25 -0.563,0.25 -0.141,0 -0.273,-0.024 -0.387,-0.075 -0.117,-0.043 -0.207,-0.089 -0.265,-0.136 -0.059,-0.051 -0.114,-0.106 -0.172,-0.164 -0.051,-0.059 -0.082,-0.094 -0.09,-0.102 -0.023,0 -0.051,0.031 -0.074,0.09 -0.024,0.059 -0.039,0.113 -0.039,0.16 0.168,0.25 0.355,0.442 0.562,0.578 0.219,0.141 0.496,0.211 0.84,0.211 z m 4.113,-3.164 c 0,0.91 -0.144,1.746 -0.425,2.516 -0.278,0.773 -0.571,1.234 -0.887,1.386 l 0,0.024 c 0,0.043 0.012,0.086 0.035,0.137 0.027,0.058 0.051,0.089 0.074,0.089 0.168,0 0.352,-0.109 0.551,-0.328 0.211,-0.215 0.406,-0.504 0.59,-0.859 0.191,-0.359 0.348,-0.805 0.473,-1.34 0.125,-0.523 0.187,-1.066 0.187,-1.625 0,-0.523 -0.07,-1.043 -0.211,-1.562 -0.133,-0.516 -0.301,-0.946 -0.5,-1.286 -0.191,-0.343 -0.387,-0.617 -0.59,-0.828 -0.199,-0.215 -0.363,-0.324 -0.5,-0.324 -0.023,0 -0.051,0.027 -0.086,0.074 -0.023,0.043 -0.039,0.086 -0.039,0.125 0,0.028 0.004,0.043 0.016,0.051 0.238,0.117 0.519,0.551 0.836,1.301 0.316,0.75 0.476,1.566 0.476,2.449 z"
                 style="fill:#000000;fill-opacity:1;fill-rule:nonzero;stroke:none"
                 id="path4490"
                 inkscape:connector-curvature="0" /></g></g></g></g></g></g></svg>