<?xml version="1.0" encoding="UTF-8" standalone="no"?>
<!-- Created with Inkscape (http://www.inkscape.org/) -->

<svg
   xmlns:dc="http://purl.org/dc/elements/1.1/"
   xmlns:cc="http://creativecommons.org/ns#"
   xmlns:rdf="http://www.w3.org/1999/02/22-rdf-syntax-ns#"
   xmlns:svg="http://www.w3.org/2000/svg"
   xmlns="http://www.w3.org/2000/svg"
   xmlns:sodipodi="http://sodipodi.sourceforge.net/DTD/sodipodi-0.dtd"
   xmlns:inkscape="http://www.inkscape.org/namespaces/inkscape"
   id="svg4846"
   version="1.1"
   inkscape:version="0.91 r13725"
   xml:space="preserve"
   width="370.95801"
   height="275.52493"
   viewBox="0 0 370.95801 275.52493"
   sodipodi:docname="xor-nn.svg"><metadata
     id="metadata4852"><rdf:RDF><cc:Work
         rdf:about=""><dc:format>image/svg+xml</dc:format><dc:type
           rdf:resource="http://purl.org/dc/dcmitype/StillImage" /><dc:title></dc:title></cc:Work></rdf:RDF></metadata><defs
     id="defs4850"><clipPath
       clipPathUnits="userSpaceOnUse"
       id="clipPath4864"><path
         d="m 0,35 297,0 0,186 L 0,221 0,35 Z"
         id="path4866"
         inkscape:connector-curvature="0" /></clipPath></defs><sodipodi:namedview
     pagecolor="#ffffff"
     bordercolor="#666666"
     borderopacity="1"
     objecttolerance="10"
     gridtolerance="10"
     guidetolerance="10"
     inkscape:pageopacity="0"
     inkscape:pageshadow="2"
     inkscape:window-width="690"
     inkscape:window-height="480"
     id="namedview4848"
     showgrid="false"
     inkscape:zoom="4.5367945"
     inkscape:cx="185.479"
     inkscape:cy="137.76247"
     inkscape:window-x="0"
     inkscape:window-y="0"
     inkscape:window-maximized="1"
     inkscape:current-layer="g4854" /><g
     id="g4854"
     inkscape:groupmode="layer"
     inkscape:label="xor-nn"
     transform="matrix(1.25,0,0,-1.25,0,275.52494)"><g
       id="g4856"><g
         id="g4858"
         transform="translate(0,-0.580048)"><g
           id="g4860"><g
             id="g4862"
             clip-path="url(#clipPath4864)"><g
               id="g4868"><g
                 id="g4870"
                 transform="matrix(1,0,0,-1,0,221)"><path
                   d="m 49.156,24.789 c 0,-13.461 10.914,-24.375 24.379,-24.375 6.465,0 12.664,2.566 17.238,7.141 4.571,4.57 7.137,10.769 7.137,17.234 0,13.465 -10.914,24.379 -24.375,24.379 -13.465,0 -24.379,-10.914 -24.379,-24.379 z"
                   style="fill:none;stroke:#000000;stroke-width:0.80000001;stroke-linecap:butt;stroke-linejoin:round;stroke-miterlimit:10;stroke-dasharray:none;stroke-opacity:1"
                   id="path4872"
                   inkscape:connector-curvature="0" /></g><path
                 d="m 72.777,197.59 c 1.2,0 2.141,-0.41 2.825,-1.227 0.683,-0.816 1.027,-1.687 1.027,-2.609 0,-1.191 -0.441,-2.238 -1.328,-3.141 -0.883,-0.898 -1.852,-1.347 -2.91,-1.347 -0.469,0 -0.911,0.039 -1.325,0.125 -0.418,0.082 -0.66,0.125 -0.726,0.125 -0.11,0 -0.25,-0.039 -0.426,-0.114 -0.164,-0.066 -0.262,-0.101 -0.285,-0.101 -0.051,0 -0.129,0.023 -0.238,0.062 -0.102,0.035 -0.153,0.078 -0.153,0.125 0,0.02 0.02,0.121 0.051,0.313 0.043,0.191 0.082,0.476 0.113,0.851 0.043,0.375 0.063,0.797 0.063,1.262 l 0,7.762 c 0,0.426 -0.039,0.828 -0.113,1.203 -0.067,0.199 -0.387,0.297 -0.961,0.297 l -0.164,0 c -0.075,0 -0.114,0.066 -0.114,0.203 0,0.199 0.039,0.297 0.114,0.297 0.375,0.043 0.722,0.094 1.039,0.152 0.316,0.067 0.566,0.129 0.75,0.188 0.183,0.066 0.336,0.125 0.461,0.175 0.125,0.059 0.218,0.106 0.277,0.149 l 0.074,0.051 0.035,0 c 0.051,0 0.102,-0.036 0.153,-0.102 0.05,-0.066 0.082,-0.133 0.097,-0.199 -0.14,-0.399 -0.211,-0.942 -0.211,-1.625 l 0,-3.289 c 0,-0.133 0.02,-0.199 0.063,-0.199 0.008,0 0.023,0.003 0.051,0.011 0.175,0.125 0.441,0.254 0.8,0.391 0.368,0.141 0.688,0.211 0.961,0.211 z m -0.601,-0.914 c -0.348,0 -0.649,-0.098 -0.899,-0.297 -0.25,-0.191 -0.375,-0.469 -0.375,-0.828 l 0,-4.375 c 0,-0.383 0.184,-0.664 0.551,-0.848 0.375,-0.183 0.805,-0.277 1.285,-0.277 0.719,0 1.278,0.34 1.676,1.015 0.402,0.672 0.602,1.438 0.602,2.286 0,0.992 -0.262,1.793 -0.789,2.402 -0.516,0.613 -1.2,0.922 -2.051,0.922 z"
                 style="fill:#000000;fill-opacity:1;fill-rule:nonzero;stroke:none"
                 id="path4874"
                 inkscape:connector-curvature="0" /><path
                 d="m 78.973,188.379 c -0.051,0.023 -0.102,0.07 -0.153,0.137 -0.05,0.074 -0.074,0.132 -0.074,0.175 0,0.032 0.008,0.059 0.024,0.075 1.41,0.957 2.132,1.437 2.164,1.437 l 0.023,0 c 0.07,0 0.117,-0.078 0.152,-0.238 -0.082,-0.274 -0.125,-0.668 -0.125,-1.176 l 0,-4.926 c 0,-0.48 0.032,-0.851 0.098,-1.109 0.02,-0.059 0.141,-0.117 0.363,-0.176 0.235,-0.051 0.395,-0.074 0.477,-0.074 0.031,0 0.051,-0.078 0.051,-0.227 0,-0.074 -0.004,-0.121 -0.016,-0.136 -0.832,0.039 -1.336,0.062 -1.512,0.062 -0.132,0 -0.617,-0.023 -1.449,-0.062 -0.031,0.031 -0.051,0.097 -0.051,0.199 0,0.109 0.02,0.164 0.051,0.164 0.109,0 0.274,0.023 0.5,0.074 0.234,0.059 0.359,0.117 0.375,0.176 0.051,0.199 0.074,0.437 0.074,0.711 l 0,4.5 c 0,0.242 -0.007,0.426 -0.023,0.551 -0.016,0.125 -0.039,0.199 -0.063,0.222 -0.015,0.035 -0.046,0.051 -0.089,0.051 -0.047,0 -0.125,-0.023 -0.223,-0.074 -0.094,-0.051 -0.199,-0.113 -0.324,-0.188 l -0.25,-0.148 z"
                 style="fill:#000000;fill-opacity:1;fill-rule:nonzero;stroke:none"
                 id="path4876"
                 inkscape:connector-curvature="0" /><g
                 id="g4878"
                 transform="matrix(1,0,0,-1,0,221)"><path
                   d="m 0.398,92.672 c 0,-13.461 10.915,-24.375 24.379,-24.375 6.465,0 12.668,2.566 17.239,7.137 4.57,4.574 7.14,10.773 7.14,17.238 0,13.465 -10.914,24.379 -24.379,24.379 -13.464,0 -24.379,-10.914 -24.379,-24.379 z"
                   style="fill:none;stroke:#000000;stroke-width:0.80000001;stroke-linecap:butt;stroke-linejoin:round;stroke-miterlimit:10;stroke-dasharray:none;stroke-opacity:1"
                   id="path4880"
                   inkscape:connector-curvature="0" /></g><path
                 d="m 19.773,129.371 c 0.024,0.125 0.047,0.211 0.075,0.262 1.207,-0.059 1.832,-0.086 1.875,-0.086 0.023,0 0.679,0.027 1.961,0.086 0.015,-0.051 0.027,-0.125 0.027,-0.227 0,-0.207 -0.023,-0.312 -0.063,-0.312 -0.5,0 -0.75,-0.106 -0.75,-0.324 0,-0.051 0.032,-0.125 0.098,-0.223 l 1.215,-1.891 c 0.09,0.133 0.223,0.332 0.398,0.59 0.176,0.258 0.313,0.461 0.414,0.613 0.106,0.157 0.204,0.325 0.286,0.5 0.093,0.172 0.136,0.305 0.136,0.399 0,0.109 -0.07,0.183 -0.211,0.226 -0.14,0.047 -0.304,0.075 -0.488,0.075 -0.183,0.007 -0.285,0.019 -0.312,0.035 -0.032,0.008 -0.051,0.109 -0.051,0.301 0,0.109 0.019,0.187 0.051,0.238 1.277,-0.059 1.929,-0.086 1.964,-0.086 0.04,0 0.61,0.027 1.711,0.086 0.024,-0.125 0.039,-0.211 0.039,-0.262 0,-0.183 -0.019,-0.277 -0.05,-0.277 -0.825,-0.098 -1.371,-0.313 -1.637,-0.637 l -1.801,-2.348 c -0.027,-0.035 -0.039,-0.078 -0.039,-0.125 0,-0.07 0.02,-0.14 0.063,-0.214 l 2,-2.961 c 0.343,-0.5 0.867,-0.778 1.574,-0.825 0.043,0 0.062,-0.089 0.062,-0.265 0,-0.125 -0.023,-0.219 -0.074,-0.285 -1.168,0.066 -1.754,0.097 -1.762,0.097 -0.043,0 -0.738,-0.031 -2.086,-0.097 -0.027,0.132 -0.039,0.214 -0.039,0.25 0,0.199 0.02,0.3 0.063,0.3 0.523,0.039 0.789,0.153 0.789,0.336 0,0.024 -0.016,0.063 -0.039,0.114 l -1.426,2.25 -1.301,-1.926 c -0.082,-0.141 -0.125,-0.262 -0.125,-0.363 0,-0.223 0.313,-0.364 0.938,-0.411 l 0.09,0 c 0.039,0 0.062,-0.093 0.062,-0.277 0,-0.125 -0.027,-0.215 -0.074,-0.273 -1.219,0.066 -1.844,0.097 -1.875,0.097 -0.027,0 -0.637,-0.031 -1.828,-0.097 -0.024,0.105 -0.035,0.199 -0.035,0.273 0,0.184 0.023,0.277 0.074,0.277 0.84,0.125 1.402,0.387 1.687,0.786 l 1.95,2.613 c 0,0.008 0.004,0.023 0.011,0.051 0.008,0.023 0.016,0.043 0.016,0.062 0,0.024 -0.016,0.063 -0.039,0.113 l -1.938,2.825 c -0.109,0.164 -0.336,0.316 -0.687,0.449 -0.352,0.14 -0.633,0.211 -0.852,0.211 l -0.047,0.277 z"
                 style="fill:#000000;fill-opacity:1;fill-rule:nonzero;stroke:none"
                 id="path4882"
                 inkscape:connector-curvature="0" /><path
                 d="m 29.914,120.496 c -0.047,0.024 -0.098,0.07 -0.148,0.137 -0.051,0.074 -0.075,0.133 -0.075,0.176 0,0.031 0.008,0.058 0.024,0.074 1.41,0.957 2.129,1.437 2.164,1.437 l 0.023,0 c 0.067,0 0.118,-0.078 0.153,-0.238 -0.086,-0.273 -0.125,-0.668 -0.125,-1.176 l 0,-4.922 c 0,-0.484 0.031,-0.855 0.097,-1.113 0.016,-0.058 0.137,-0.117 0.364,-0.176 0.234,-0.05 0.39,-0.074 0.476,-0.074 0.031,0 0.047,-0.074 0.047,-0.226 0,-0.075 -0.004,-0.122 -0.012,-0.137 -0.832,0.043 -1.336,0.062 -1.511,0.062 -0.133,0 -0.618,-0.019 -1.45,-0.062 -0.035,0.031 -0.05,0.101 -0.05,0.199 0,0.109 0.015,0.164 0.05,0.164 0.106,0 0.274,0.024 0.5,0.074 0.231,0.059 0.356,0.118 0.375,0.176 0.051,0.199 0.075,0.438 0.075,0.711 l 0,4.5 c 0,0.242 -0.008,0.426 -0.024,0.551 -0.019,0.125 -0.039,0.199 -0.062,0.226 -0.02,0.032 -0.047,0.047 -0.09,0.047 -0.051,0 -0.125,-0.023 -0.223,-0.074 -0.094,-0.051 -0.203,-0.113 -0.328,-0.187 l -0.25,-0.149 z"
                 style="fill:#000000;fill-opacity:1;fill-rule:nonzero;stroke:none"
                 id="path4884"
                 inkscape:connector-curvature="0" /><g
                 id="g4886"
                 transform="matrix(1,0,0,-1,0,221)"><path
                   d="m 0.398,160.555 c 0,-13.461 10.915,-24.379 24.379,-24.379 6.465,0 12.668,2.57 17.239,7.14 4.57,4.575 7.14,10.774 7.14,17.239 0,13.465 -10.914,24.379 -24.379,24.379 -13.464,0 -24.379,-10.914 -24.379,-24.379 z"
                   style="fill:none;stroke:#000000;stroke-width:0.80000001;stroke-linecap:butt;stroke-linejoin:round;stroke-miterlimit:10;stroke-dasharray:none;stroke-opacity:1"
                   id="path4888"
                   inkscape:connector-curvature="0" /></g><path
                 d="m 19.293,61.488 c 0.027,0.125 0.051,0.211 0.074,0.262 1.211,-0.059 1.836,-0.086 1.875,-0.086 0.028,0 0.68,0.027 1.965,0.086 0.016,-0.051 0.023,-0.125 0.023,-0.227 0,-0.207 -0.019,-0.312 -0.062,-0.312 -0.5,0 -0.75,-0.106 -0.75,-0.324 0,-0.051 0.035,-0.125 0.102,-0.223 l 1.21,-1.891 c 0.094,0.137 0.227,0.332 0.403,0.59 0.172,0.258 0.312,0.461 0.41,0.614 0.109,0.156 0.203,0.324 0.289,0.5 0.09,0.171 0.137,0.308 0.137,0.398 0,0.109 -0.071,0.184 -0.211,0.227 -0.145,0.046 -0.305,0.074 -0.488,0.074 -0.184,0.008 -0.29,0.019 -0.313,0.035 -0.035,0.012 -0.051,0.109 -0.051,0.301 0,0.109 0.016,0.187 0.051,0.238 1.273,-0.059 1.93,-0.086 1.961,-0.086 0.043,0 0.613,0.027 1.715,0.086 0.023,-0.125 0.035,-0.211 0.035,-0.262 0,-0.183 -0.016,-0.277 -0.051,-0.277 -0.824,-0.098 -1.371,-0.313 -1.637,-0.637 l -1.8,-2.347 c -0.024,-0.036 -0.035,-0.079 -0.035,-0.125 0,-0.067 0.019,-0.141 0.062,-0.215 l 2,-2.961 c 0.34,-0.5 0.867,-0.778 1.574,-0.824 0.043,0 0.063,-0.09 0.063,-0.266 0,-0.125 -0.024,-0.219 -0.074,-0.285 -1.168,0.066 -1.754,0.097 -1.762,0.097 -0.043,0 -0.738,-0.031 -2.09,-0.097 -0.023,0.133 -0.035,0.215 -0.035,0.25 0,0.199 0.019,0.301 0.062,0.301 0.524,0.039 0.785,0.152 0.785,0.336 0,0.023 -0.011,0.062 -0.035,0.113 l -1.425,2.25 -1.301,-1.926 c -0.082,-0.141 -0.125,-0.262 -0.125,-0.363 0,-0.223 0.312,-0.364 0.937,-0.41 l 0.086,0 c 0.043,0 0.063,-0.094 0.063,-0.278 0,-0.125 -0.024,-0.215 -0.075,-0.273 -1.214,0.066 -1.839,0.097 -1.875,0.097 -0.023,0 -0.632,-0.031 -1.824,-0.097 -0.023,0.109 -0.039,0.199 -0.039,0.273 0,0.184 0.028,0.278 0.078,0.278 0.84,0.125 1.403,0.386 1.688,0.785 l 1.949,2.613 c 0,0.008 0.004,0.023 0.012,0.051 0.008,0.023 0.011,0.047 0.011,0.062 0,0.024 -0.011,0.063 -0.035,0.114 l -1.937,2.824 c -0.11,0.164 -0.34,0.316 -0.688,0.449 -0.351,0.141 -0.636,0.211 -0.851,0.211 l -0.051,0.277 z"
                 style="fill:#000000;fill-opacity:1;fill-rule:nonzero;stroke:none"
                 id="path4890"
                 inkscape:connector-curvature="0" /><path
                 d="m 31,54.438 c 0.559,0 0.996,-0.208 1.313,-0.625 0.324,-0.418 0.488,-0.887 0.488,-1.415 0,-0.308 -0.055,-0.628 -0.164,-0.96 -0.098,-0.325 -0.262,-0.661 -0.489,-1 -0.214,-0.34 -0.414,-0.641 -0.597,-0.899 -0.176,-0.25 -0.422,-0.543 -0.738,-0.875 -0.317,-0.336 -0.54,-0.562 -0.665,-0.687 -0.113,-0.125 -0.308,-0.317 -0.574,-0.579 -0.023,-0.039 -0.015,-0.07 0.028,-0.085 l 2.41,0 c 0.234,0 0.402,0.066 0.5,0.199 0.109,0.133 0.218,0.386 0.324,0.761 0.035,0.094 0.094,0.141 0.176,0.141 0.109,0 0.183,-0.019 0.226,-0.051 -0.199,-1 -0.312,-1.586 -0.34,-1.75 -0.015,-0.133 -0.097,-0.199 -0.25,-0.199 l -4.097,0 c -0.035,0 -0.067,0.043 -0.102,0.137 -0.023,0.097 -0.035,0.179 -0.035,0.238 0.906,0.914 1.688,1.863 2.336,2.848 0.648,0.992 0.977,1.828 0.977,2.511 0,0.454 -0.114,0.797 -0.34,1.04 -0.223,0.25 -0.52,0.375 -0.887,0.375 -0.691,0 -1.246,-0.348 -1.664,-1.04 -0.047,0 -0.102,0.028 -0.16,0.079 -0.051,0.058 -0.074,0.097 -0.074,0.125 0.023,0.097 0.089,0.23 0.199,0.398 0.117,0.176 0.265,0.363 0.449,0.563 0.191,0.207 0.441,0.382 0.75,0.523 0.316,0.152 0.648,0.227 1,0.227 z"
                 style="fill:#000000;fill-opacity:1;fill-rule:nonzero;stroke:none"
                 id="path4892"
                 inkscape:connector-curvature="0" /><g
                 id="g4894"
                 transform="matrix(1,0,0,-1,0,221)"><path
                   d="m 172.762,24.777 c 0,-13.464 10.914,-24.379 24.379,-24.379 6.464,0 12.664,2.571 17.234,7.141 4.574,4.574 7.141,10.774 7.141,17.238 0,13.465 -10.914,24.379 -24.375,24.379 -13.465,0 -24.379,-10.914 -24.379,-24.379 z"
                   style="fill:none;stroke:#000000;stroke-width:0.80000001;stroke-linecap:butt;stroke-linejoin:round;stroke-miterlimit:10;stroke-dasharray:none;stroke-opacity:1"
                   id="path4896"
                   inkscape:connector-curvature="0" /></g><path
                 d="m 196.383,197.602 c 1.199,0 2.14,-0.407 2.824,-1.223 0.684,-0.816 1.027,-1.688 1.027,-2.613 0,-1.192 -0.441,-2.239 -1.328,-3.137 -0.883,-0.902 -1.851,-1.352 -2.91,-1.352 -0.469,0 -0.91,0.043 -1.324,0.125 -0.418,0.082 -0.66,0.125 -0.727,0.125 -0.109,0 -0.25,-0.039 -0.425,-0.113 -0.165,-0.066 -0.262,-0.098 -0.286,-0.098 -0.05,0 -0.129,0.02 -0.238,0.063 -0.101,0.031 -0.152,0.074 -0.152,0.125 0,0.016 0.019,0.121 0.051,0.312 0.043,0.192 0.078,0.473 0.113,0.848 0.043,0.375 0.062,0.797 0.062,1.262 l 0,7.765 c 0,0.422 -0.039,0.825 -0.113,1.2 -0.066,0.199 -0.387,0.3 -0.961,0.3 l -0.164,0 c -0.074,0 -0.113,0.067 -0.113,0.2 0,0.199 0.039,0.3 0.113,0.3 0.375,0.039 0.723,0.09 1.039,0.149 0.317,0.066 0.567,0.129 0.75,0.187 0.184,0.067 0.336,0.125 0.461,0.176 0.125,0.059 0.219,0.11 0.277,0.149 l 0.075,0.05 0.035,0 c 0.051,0 0.101,-0.031 0.152,-0.101 0.051,-0.067 0.082,-0.133 0.098,-0.199 -0.141,-0.399 -0.211,-0.942 -0.211,-1.625 l 0,-3.286 c 0,-0.132 0.019,-0.203 0.062,-0.203 0.008,0 0.024,0.008 0.051,0.016 0.176,0.125 0.442,0.254 0.801,0.387 0.363,0.14 0.687,0.211 0.961,0.211 z m -0.602,-0.911 c -0.347,0 -0.648,-0.101 -0.898,-0.3 -0.25,-0.192 -0.375,-0.469 -0.375,-0.825 l 0,-4.375 c 0,-0.382 0.183,-0.668 0.551,-0.851 0.375,-0.184 0.804,-0.274 1.285,-0.274 0.719,0 1.277,0.336 1.676,1.012 0.402,0.676 0.601,1.438 0.601,2.285 0,0.992 -0.262,1.793 -0.789,2.403 -0.516,0.617 -1.199,0.925 -2.051,0.925 z"
                 style="fill:#000000;fill-opacity:1;fill-rule:nonzero;stroke:none"
                 id="path4898"
                 inkscape:connector-curvature="0" /><path
                 d="m 204.141,190.215 c 0.558,0 0.996,-0.207 1.312,-0.625 0.324,-0.418 0.485,-0.887 0.485,-1.414 0,-0.305 -0.051,-0.629 -0.161,-0.961 -0.101,-0.324 -0.261,-0.656 -0.488,-1 -0.215,-0.34 -0.418,-0.641 -0.601,-0.899 -0.172,-0.25 -0.418,-0.543 -0.735,-0.875 -0.316,-0.336 -0.539,-0.562 -0.664,-0.687 -0.117,-0.125 -0.309,-0.316 -0.574,-0.578 -0.027,-0.039 -0.016,-0.071 0.023,-0.086 l 2.414,0 c 0.235,0 0.399,0.066 0.5,0.199 0.11,0.133 0.215,0.387 0.325,0.762 0.035,0.094 0.089,0.14 0.175,0.14 0.11,0 0.184,-0.019 0.223,-0.05 -0.199,-1 -0.312,-1.582 -0.336,-1.75 -0.016,-0.133 -0.101,-0.2 -0.25,-0.2 l -4.101,0 c -0.032,0 -0.067,0.043 -0.098,0.137 -0.027,0.098 -0.039,0.18 -0.039,0.238 0.91,0.914 1.687,1.868 2.34,2.848 0.648,0.992 0.972,1.832 0.972,2.512 0,0.453 -0.113,0.797 -0.336,1.039 -0.226,0.25 -0.523,0.375 -0.886,0.375 -0.692,0 -1.246,-0.344 -1.664,-1.039 -0.051,0 -0.106,0.027 -0.164,0.078 -0.047,0.059 -0.075,0.098 -0.075,0.125 0.028,0.098 0.094,0.23 0.2,0.398 0.117,0.176 0.269,0.364 0.453,0.563 0.191,0.207 0.441,0.383 0.75,0.523 0.316,0.153 0.648,0.227 1,0.227 z"
                 style="fill:#000000;fill-opacity:1;fill-rule:nonzero;stroke:none"
                 id="path4900"
                 inkscape:connector-curvature="0" /><g
                 id="g4902"
                 transform="matrix(1,0,0,-1,0,221)"><path
                   d="m 124.004,92.668 c 0,-13.465 10.914,-24.379 24.379,-24.379 6.465,0 12.668,2.566 17.238,7.141 4.57,4.57 7.141,10.773 7.141,17.238 0,13.461 -10.914,24.375 -24.379,24.375 -13.465,0 -24.379,-10.914 -24.379,-24.375 z"
                   style="fill:none;stroke:#000000;stroke-width:0.80000001;stroke-linecap:butt;stroke-linejoin:round;stroke-miterlimit:10;stroke-dasharray:none;stroke-opacity:1"
                   id="path4904"
                   inkscape:connector-curvature="0" /></g><g
                 id="g4906"
                 transform="matrix(1,0,0,-1,0,221)"><path
                   d="m 124.004,160.555 c 0,-13.461 10.914,-24.379 24.379,-24.379 6.465,0 12.668,2.57 17.238,7.14 4.57,4.575 7.141,10.774 7.141,17.239 0,13.465 -10.914,24.379 -24.379,24.379 -13.465,0 -24.379,-10.914 -24.379,-24.379 z"
                   style="fill:none;stroke:#000000;stroke-width:0.80000001;stroke-linecap:butt;stroke-linejoin:round;stroke-miterlimit:10;stroke-dasharray:none;stroke-opacity:1"
                   id="path4908"
                   inkscape:connector-curvature="0" /></g><g
                 id="g4910"
                 transform="matrix(1,0,0,-1,0,221)"><path
                   d="m 247.609,126.605 c 0,-13.46 10.914,-24.375 24.379,-24.375 6.465,0 12.668,2.567 17.239,7.137 4.57,4.574 7.14,10.774 7.14,17.238 0,13.465 -10.914,24.379 -24.379,24.379 -13.465,0 -24.379,-10.914 -24.379,-24.379 z"
                   style="fill:none;stroke:#000000;stroke-width:0.80000001;stroke-linecap:butt;stroke-linejoin:round;stroke-miterlimit:10;stroke-dasharray:none;stroke-opacity:1"
                   id="path4912"
                   inkscape:connector-curvature="0" /></g><path
                 d="m 272.016,95.609 c 0.218,0 0.414,0.008 0.589,0.016 0.184,0.016 0.391,0.027 0.625,0.035 0.231,0.02 0.438,0.031 0.61,0.039 0.027,-0.074 0.039,-0.168 0.039,-0.277 0,-0.172 -0.024,-0.262 -0.074,-0.262 -0.102,0 -0.266,-0.043 -0.5,-0.137 -0.235,-0.082 -0.364,-0.171 -0.387,-0.261 l 0,-0.039 c 0,-0.223 0.668,-1.852 2.012,-4.887 l 1.425,4.102 c 0.083,0.265 0.125,0.46 0.125,0.585 0,0.184 -0.097,0.332 -0.289,0.45 -0.191,0.125 -0.449,0.187 -0.773,0.187 -0.051,0 -0.078,0.082 -0.078,0.238 0,0.149 0.027,0.25 0.078,0.301 0.156,-0.008 0.398,-0.027 0.723,-0.051 0.324,-0.023 0.636,-0.039 0.937,-0.039 0.277,0 0.574,0.016 0.902,0.039 0.325,0.024 0.571,0.043 0.735,0.051 0.027,-0.074 0.039,-0.168 0.039,-0.277 0,-0.172 -0.024,-0.262 -0.074,-0.262 -0.168,0 -0.391,-0.058 -0.676,-0.176 -0.274,-0.105 -0.457,-0.285 -0.551,-0.535 l -3.348,-9.062 c -0.292,-0.778 -0.621,-1.317 -0.988,-1.625 -0.359,-0.309 -0.687,-0.465 -0.988,-0.465 -0.258,0 -0.449,0.086 -0.574,0.25 -0.125,0.16 -0.188,0.324 -0.188,0.488 0,0.278 0.086,0.477 0.262,0.602 1.035,0 1.723,0.535 2.062,1.613 0.059,0.184 0.129,0.406 0.211,0.672 0.094,0.262 0.164,0.473 0.215,0.641 l -2.676,6.562 c -0.14,0.297 -0.265,0.512 -0.375,0.637 -0.117,0.117 -0.293,0.211 -0.523,0.285 -0.227,0.078 -0.41,0.113 -0.551,0.113 -0.051,0 -0.074,0.082 -0.074,0.238 0,0.149 0.023,0.25 0.074,0.301 1.293,-0.058 1.965,-0.09 2.024,-0.09 z"
                 style="fill:#000000;fill-opacity:1;fill-rule:nonzero;stroke:none"
                 id="path4914"
                 inkscape:connector-curvature="0" /><g
                 id="g4916"
                 transform="matrix(1,0,0,-1,0,221)"><path
                   d="M 90.773,42.027 121.371,88.66"
                   style="fill:none;stroke:#000000;stroke-width:0.80000001;stroke-linecap:butt;stroke-linejoin:round;stroke-miterlimit:10;stroke-dasharray:none;stroke-opacity:1"
                   id="path4918"
                   inkscape:connector-curvature="0" /></g><g
                 id="g4920"
                 transform="matrix(1,0,0,-1,0,221)"><path
                   d="m 120.27,89.387 3.093,2.308 -0.886,-3.757 -2.207,1.449 z"
                   style="fill:#000000;fill-opacity:1;fill-rule:evenodd;stroke:#000000;stroke-width:0.80000001;stroke-linecap:butt;stroke-linejoin:miter;stroke-miterlimit:10;stroke-dasharray:none;stroke-opacity:1"
                   id="path4922"
                   inkscape:connector-curvature="0" /></g><g
                 id="g4924"
                 transform="matrix(1,0,0,-1,0,221)"><path
                   d="m 90.773,42.027 31.938,113.907"
                   style="fill:none;stroke:#000000;stroke-width:0.80000001;stroke-linecap:butt;stroke-linejoin:round;stroke-miterlimit:10;stroke-dasharray:none;stroke-opacity:1"
                   id="path4926"
                   inkscape:connector-curvature="0" /></g><g
                 id="g4928"
                 transform="matrix(1,0,0,-1,0,221)"><path
                   d="m 121.438,156.289 2.253,3.141 0.293,-3.856 -2.546,0.715 z"
                   style="fill:#000000;fill-opacity:1;fill-rule:evenodd;stroke:#000000;stroke-width:0.80000001;stroke-linecap:butt;stroke-linejoin:miter;stroke-miterlimit:10;stroke-dasharray:none;stroke-opacity:1"
                   id="path4930"
                   inkscape:connector-curvature="0" /></g><g
                 id="g4932"
                 transform="matrix(1,0,0,-1,0,221)"><path
                   d="m 49.156,92.672 70.059,0"
                   style="fill:none;stroke:#000000;stroke-width:0.80000001;stroke-linecap:butt;stroke-linejoin:round;stroke-miterlimit:10;stroke-dasharray:none;stroke-opacity:1"
                   id="path4934"
                   inkscape:connector-curvature="0" /></g><g
                 id="g4936"
                 transform="matrix(1,0,0,-1,0,221)"><path
                   d="m 119.215,93.996 3.633,-1.324 -3.633,-1.32 0,2.644 z"
                   style="fill:#000000;fill-opacity:1;fill-rule:evenodd;stroke:#000000;stroke-width:0.80000001;stroke-linecap:butt;stroke-linejoin:miter;stroke-miterlimit:10;stroke-dasharray:none;stroke-opacity:1"
                   id="path4938"
                   inkscape:connector-curvature="0" /></g><g
                 id="g4940"
                 transform="matrix(1,0,0,-1,0,221)"><path
                   d="m 49.156,92.672 71.305,64.656"
                   style="fill:none;stroke:#000000;stroke-width:0.80000001;stroke-linecap:butt;stroke-linejoin:round;stroke-miterlimit:10;stroke-dasharray:none;stroke-opacity:1"
                   id="path4942"
                   inkscape:connector-curvature="0" /></g><g
                 id="g4944"
                 transform="matrix(1,0,0,-1,0,221)"><path
                   d="m 119.574,158.309 3.574,1.461 -1.8,-3.418 -1.774,1.957 z"
                   style="fill:#000000;fill-opacity:1;fill-rule:evenodd;stroke:#000000;stroke-width:0.80000001;stroke-linecap:butt;stroke-linejoin:miter;stroke-miterlimit:10;stroke-dasharray:none;stroke-opacity:1"
                   id="path4946"
                   inkscape:connector-curvature="0" /></g><g
                 id="g4948"
                 transform="matrix(1,0,0,-1,0,221)"><path
                   d="M 49.156,160.555 120.461,95.898"
                   style="fill:none;stroke:#000000;stroke-width:0.80000001;stroke-linecap:butt;stroke-linejoin:round;stroke-miterlimit:10;stroke-dasharray:none;stroke-opacity:1"
                   id="path4950"
                   inkscape:connector-curvature="0" /></g><g
                 id="g4952"
                 transform="matrix(1,0,0,-1,0,221)"><path
                   d="m 121.348,96.879 1.8,-3.418 -3.574,1.461 1.774,1.957 z"
                   style="fill:#000000;fill-opacity:1;fill-rule:evenodd;stroke:#000000;stroke-width:0.80000001;stroke-linecap:butt;stroke-linejoin:miter;stroke-miterlimit:10;stroke-dasharray:none;stroke-opacity:1"
                   id="path4954"
                   inkscape:connector-curvature="0" /></g><g
                 id="g4956"
                 transform="matrix(1,0,0,-1,0,221)"><path
                   d="m 49.156,160.555 70.059,0"
                   style="fill:none;stroke:#000000;stroke-width:0.80000001;stroke-linecap:butt;stroke-linejoin:round;stroke-miterlimit:10;stroke-dasharray:none;stroke-opacity:1"
                   id="path4958"
                   inkscape:connector-curvature="0" /></g><g
                 id="g4960"
                 transform="matrix(1,0,0,-1,0,221)"><path
                   d="m 119.215,161.875 3.633,-1.32 -3.633,-1.321 0,2.641 z"
                   style="fill:#000000;fill-opacity:1;fill-rule:evenodd;stroke:#000000;stroke-width:0.80000001;stroke-linecap:butt;stroke-linejoin:miter;stroke-miterlimit:10;stroke-dasharray:none;stroke-opacity:1"
                   id="path4962"
                   inkscape:connector-curvature="0" /></g><g
                 id="g4964"
                 transform="matrix(1,0,0,-1,0,221)"><path
                   d="m 214.375,42.016 31.48,80.117"
                   style="fill:none;stroke:#000000;stroke-width:0.80000001;stroke-linecap:butt;stroke-linejoin:round;stroke-miterlimit:10;stroke-dasharray:none;stroke-opacity:1"
                   id="path4966"
                   inkscape:connector-curvature="0" /></g><g
                 id="g4968"
                 transform="matrix(1,0,0,-1,0,221)"><path
                   d="m 244.625,122.617 2.559,2.895 -0.098,-3.86 -2.461,0.965 z"
                   style="fill:#000000;fill-opacity:1;fill-rule:evenodd;stroke:#000000;stroke-width:0.80000001;stroke-linecap:butt;stroke-linejoin:miter;stroke-miterlimit:10;stroke-dasharray:none;stroke-opacity:1"
                   id="path4970"
                   inkscape:connector-curvature="0" /></g><g
                 id="g4972"
                 transform="matrix(1,0,0,-1,0,221)"><path
                   d="m 172.762,92.668 70.488,31.957"
                   style="fill:none;stroke:#000000;stroke-width:0.80000001;stroke-linecap:butt;stroke-linejoin:round;stroke-miterlimit:10;stroke-dasharray:none;stroke-opacity:1"
                   id="path4974"
                   inkscape:connector-curvature="0" /></g><g
                 id="g4976"
                 transform="matrix(1,0,0,-1,0,221)"><path
                   d="m 242.703,125.828 3.852,0.297 -2.758,-2.703 -1.094,2.406 z"
                   style="fill:#000000;fill-opacity:1;fill-rule:evenodd;stroke:#000000;stroke-width:0.80000001;stroke-linecap:butt;stroke-linejoin:miter;stroke-miterlimit:10;stroke-dasharray:none;stroke-opacity:1"
                   id="path4978"
                   inkscape:connector-curvature="0" /></g><g
                 id="g4980"
                 transform="matrix(1,0,0,-1,0,221)"><path
                   d="M 172.762,160.555 243.25,128.598"
                   style="fill:none;stroke:#000000;stroke-width:0.80000001;stroke-linecap:butt;stroke-linejoin:round;stroke-miterlimit:10;stroke-dasharray:none;stroke-opacity:1"
                   id="path4982"
                   inkscape:connector-curvature="0" /></g><g
                 id="g4984"
                 transform="matrix(1,0,0,-1,0,221)"><path
                   d="m 243.797,129.801 2.758,-2.703 -3.852,0.297 1.094,2.406 z"
                   style="fill:#000000;fill-opacity:1;fill-rule:evenodd;stroke:#000000;stroke-width:0.80000001;stroke-linecap:butt;stroke-linejoin:miter;stroke-miterlimit:10;stroke-dasharray:none;stroke-opacity:1"
                   id="path4986"
                   inkscape:connector-curvature="0" /></g><path
                 d="m 148.387,129.949 c 0.843,0 1.441,-0.301 1.801,-0.898 0.367,-0.602 0.55,-1.528 0.55,-2.778 l 0,-2.023 c 0,-0.711 0.051,-1.258 0.149,-1.652 0.027,-0.082 0.187,-0.164 0.488,-0.25 0.301,-0.082 0.512,-0.125 0.637,-0.125 0.035,0 0.054,-0.075 0.062,-0.223 0.016,-0.152 0.012,-0.258 -0.011,-0.324 -1.25,0.066 -1.918,0.097 -2,0.097 -0.043,0 -0.7,-0.031 -1.977,-0.097 -0.047,0.054 -0.074,0.16 -0.074,0.312 0,0.157 0.027,0.235 0.074,0.235 0.152,0 0.359,0.043 0.625,0.125 0.277,0.086 0.426,0.168 0.453,0.25 0.082,0.367 0.125,0.804 0.125,1.312 l 0,1.988 c 0,1.153 -0.16,1.922 -0.476,2.313 -0.317,0.402 -0.809,0.602 -1.477,0.602 -0.375,0 -0.746,-0.153 -1.109,-0.45 -0.368,-0.293 -0.551,-0.55 -0.551,-0.777 l 0,-3.313 c 0,-0.722 0.051,-1.281 0.148,-1.675 0.028,-0.082 0.188,-0.164 0.489,-0.25 0.3,-0.082 0.511,-0.125 0.636,-0.125 0.035,0 0.055,-0.075 0.063,-0.223 0.015,-0.152 0.011,-0.258 -0.012,-0.324 -1.25,0.066 -1.918,0.097 -2,0.097 -0.074,0 -0.758,-0.031 -2.051,-0.097 -0.051,0.054 -0.074,0.16 -0.074,0.312 0,0.157 0.023,0.235 0.074,0.235 0.153,0 0.371,0.043 0.664,0.125 0.301,0.086 0.461,0.168 0.489,0.25 0.082,0.367 0.125,0.8 0.125,1.3 l 0,8.137 c 0,0.426 -0.039,0.828 -0.114,1.203 -0.058,0.2 -0.375,0.297 -0.949,0.297 l -0.176,0 c -0.074,0 -0.113,0.067 -0.113,0.203 0,0.2 0.039,0.297 0.113,0.297 0.375,0.043 0.719,0.094 1.035,0.153 0.329,0.066 0.579,0.128 0.75,0.187 0.184,0.066 0.34,0.125 0.465,0.176 0.125,0.054 0.211,0.105 0.262,0.148 l 0.102,0.051 0.035,0 c 0.051,0 0.101,-0.035 0.152,-0.102 0.047,-0.066 0.078,-0.132 0.086,-0.199 -0.133,-0.398 -0.199,-0.941 -0.199,-1.625 l 0,-4.113 c 0,-0.051 0.012,-0.074 0.035,-0.074 0.012,0 0.027,0.011 0.051,0.039 0.277,0.297 0.668,0.586 1.176,0.859 0.507,0.278 0.992,0.414 1.449,0.414 z"
                 style="fill:#000000;fill-opacity:1;fill-rule:nonzero;stroke:none"
                 id="path4988"
                 inkscape:connector-curvature="0" /><path
                 d="m 154.113,120.738 c -0.05,0.024 -0.101,0.071 -0.152,0.137 -0.047,0.074 -0.074,0.133 -0.074,0.176 0,0.031 0.008,0.054 0.027,0.074 1.406,0.957 2.129,1.438 2.16,1.438 l 0.028,0 c 0.066,0 0.113,-0.083 0.148,-0.239 -0.082,-0.273 -0.125,-0.668 -0.125,-1.176 l 0,-4.925 c 0,-0.481 0.031,-0.852 0.102,-1.11 0.015,-0.058 0.136,-0.117 0.359,-0.175 0.234,-0.051 0.394,-0.075 0.477,-0.075 0.031,0 0.05,-0.078 0.05,-0.226 0,-0.074 -0.004,-0.121 -0.011,-0.137 -0.836,0.039 -1.34,0.063 -1.516,0.063 -0.133,0 -0.617,-0.024 -1.449,-0.063 -0.032,0.031 -0.051,0.098 -0.051,0.199 0,0.11 0.019,0.164 0.051,0.164 0.109,0 0.277,0.024 0.5,0.075 0.234,0.058 0.359,0.117 0.375,0.175 0.051,0.2 0.074,0.438 0.074,0.711 l 0,4.5 c 0,0.242 -0.008,0.426 -0.023,0.551 -0.016,0.125 -0.04,0.199 -0.063,0.223 -0.016,0.035 -0.047,0.05 -0.086,0.05 -0.051,0 -0.125,-0.023 -0.226,-0.074 -0.09,-0.051 -0.2,-0.113 -0.325,-0.187 l -0.25,-0.149 z"
                 style="fill:#000000;fill-opacity:1;fill-rule:nonzero;stroke:none"
                 id="path4990"
                 inkscape:connector-curvature="0" /><path
                 d="m 148.387,60.516 c 0.843,0 1.441,-0.301 1.801,-0.903 0.367,-0.597 0.55,-1.523 0.55,-2.773 l 0,-2.024 c 0,-0.711 0.051,-1.261 0.149,-1.652 0.027,-0.082 0.187,-0.164 0.488,-0.25 0.301,-0.082 0.512,-0.125 0.637,-0.125 0.035,0 0.054,-0.074 0.062,-0.223 0.016,-0.152 0.012,-0.261 -0.011,-0.328 -1.25,0.067 -1.918,0.102 -2,0.102 -0.043,0 -0.7,-0.035 -1.977,-0.102 -0.047,0.059 -0.074,0.164 -0.074,0.313 0,0.16 0.027,0.238 0.074,0.238 0.152,0 0.359,0.043 0.625,0.125 0.277,0.086 0.426,0.168 0.453,0.25 0.082,0.367 0.125,0.805 0.125,1.313 l 0,1.988 c 0,1.148 -0.16,1.922 -0.476,2.312 -0.317,0.399 -0.809,0.602 -1.477,0.602 -0.375,0 -0.746,-0.152 -1.109,-0.453 -0.368,-0.289 -0.551,-0.547 -0.551,-0.774 l 0,-3.312 c 0,-0.727 0.051,-1.285 0.148,-1.676 0.028,-0.082 0.188,-0.164 0.489,-0.25 0.3,-0.082 0.511,-0.125 0.636,-0.125 0.035,0 0.055,-0.074 0.063,-0.223 0.015,-0.152 0.011,-0.261 -0.012,-0.328 -1.25,0.067 -1.918,0.102 -2,0.102 -0.074,0 -0.758,-0.035 -2.051,-0.102 -0.051,0.059 -0.074,0.164 -0.074,0.313 0,0.16 0.023,0.238 0.074,0.238 0.153,0 0.371,0.043 0.664,0.125 0.301,0.086 0.461,0.168 0.489,0.25 0.082,0.367 0.125,0.801 0.125,1.301 l 0,8.137 c 0,0.425 -0.039,0.824 -0.114,1.199 -0.058,0.203 -0.375,0.301 -0.949,0.301 l -0.176,0 c -0.074,0 -0.113,0.066 -0.113,0.199 0,0.203 0.039,0.301 0.113,0.301 0.375,0.043 0.719,0.093 1.035,0.152 0.329,0.066 0.579,0.129 0.75,0.187 0.184,0.067 0.34,0.125 0.465,0.172 0.125,0.059 0.211,0.11 0.262,0.153 l 0.102,0.05 0.035,0 c 0.051,0 0.101,-0.035 0.152,-0.101 0.047,-0.067 0.078,-0.133 0.086,-0.199 -0.133,-0.403 -0.199,-0.942 -0.199,-1.625 l 0,-4.114 c 0,-0.05 0.012,-0.074 0.035,-0.074 0.012,0 0.027,0.012 0.051,0.035 0.277,0.301 0.668,0.59 1.176,0.864 0.507,0.277 0.992,0.414 1.449,0.414 z"
                 style="fill:#000000;fill-opacity:1;fill-rule:nonzero;stroke:none"
                 id="path4992"
                 inkscape:connector-curvature="0" /><path
                 d="m 155.676,53.129 c 0.558,0 0.996,-0.211 1.312,-0.625 0.325,-0.418 0.489,-0.891 0.489,-1.414 0,-0.309 -0.055,-0.629 -0.164,-0.961 -0.102,-0.328 -0.262,-0.66 -0.489,-1 -0.215,-0.344 -0.414,-0.645 -0.597,-0.902 -0.176,-0.25 -0.422,-0.539 -0.739,-0.875 -0.316,-0.332 -0.539,-0.563 -0.664,-0.688 -0.117,-0.125 -0.308,-0.316 -0.574,-0.574 -0.023,-0.043 -0.016,-0.07 0.023,-0.086 l 2.415,0 c 0.234,0 0.398,0.066 0.5,0.199 0.109,0.133 0.214,0.387 0.324,0.762 0.035,0.09 0.093,0.137 0.176,0.137 0.109,0 0.183,-0.016 0.226,-0.051 -0.203,-1 -0.312,-1.582 -0.34,-1.75 -0.015,-0.133 -0.097,-0.199 -0.25,-0.199 l -4.097,0 c -0.036,0 -0.071,0.046 -0.102,0.136 -0.023,0.102 -0.039,0.18 -0.039,0.239 0.91,0.918 1.687,1.867 2.34,2.851 0.648,0.992 0.972,1.828 0.972,2.512 0,0.449 -0.109,0.797 -0.335,1.039 -0.227,0.25 -0.52,0.375 -0.887,0.375 -0.692,0 -1.246,-0.348 -1.664,-1.039 -0.051,0 -0.106,0.023 -0.16,0.074 -0.051,0.059 -0.079,0.102 -0.079,0.125 0.028,0.102 0.094,0.234 0.204,0.402 0.113,0.172 0.265,0.36 0.449,0.563 0.191,0.207 0.441,0.383 0.75,0.523 0.316,0.149 0.648,0.227 1,0.227 z"
                 style="fill:#000000;fill-opacity:1;fill-rule:nonzero;stroke:none"
                 id="path4994"
                 inkscape:connector-curvature="0" /></g></g></g></g></g></g></svg>